<svg width="92" height="96" viewBox="0 0 92 96" fill="none" xmlns="http://www.w3.org/2000/svg">
<path d="M46 95.61C70.908 95.61 91.1 75.418 91.1 50.51C91.1 25.602 70.908 5.41 46 5.41C21.092 5.41 0.9 25.602 0.9 50.51C0.9 75.418 21.092 95.61 46 95.61Z" fill="#232628"/>
<path d="M46 86.37C68.5774 86.37 86.88 68.0674 86.88 45.49C86.88 22.9126 68.5774 4.60999 46 4.60999C23.4226 4.60999 5.12 22.9126 5.12 45.49C5.12 68.0674 23.4226 86.37 46 86.37Z" fill="#3D4144"/>
<path d="M8.56 62.23C10.1549 68.3151 13.1334 73.9498 17.2632 78.695C21.393 83.4402 26.5627 87.1677 32.3695 89.5872C38.1763 92.0067 44.4632 93.0528 50.7406 92.6439C57.018 92.235 63.1161 90.3823 68.56 87.23C69.66 82.55 69.09 76.44 66.77 76.16C60.77 75.41 61.95 79.59 57.54 76.75C54.94 75.09 55.42 73.34 52.16 67.24C49.9879 63.2017 47.3536 59.4297 44.31 56C42.7873 56.5219 41.1616 56.6707 39.5694 56.4341C37.9772 56.1974 36.4651 55.5822 35.16 54.64C34.0844 53.8549 32.8628 53.2926 31.5669 52.986C30.2711 52.6794 28.927 52.6347 27.6136 52.8545C26.3003 53.0743 25.044 53.5542 23.9186 54.2661C22.7932 54.978 21.8213 55.9075 21.06 57C20.1358 58.318 18.9086 59.3946 17.4817 60.1395C16.0547 60.8843 14.4697 61.2754 12.86 61.28C11.3733 61.2678 9.90316 61.5926 8.56 62.23Z" fill="#261F1D"/>
<path d="M42.78 16.29C59.84 15.19 75.08 23.15 82.37 35.5C81.2999 26.6979 76.8895 18.6431 70.05 13C62.4987 6.80509 52.876 3.7101 43.1292 4.34132C33.3823 4.97255 24.2392 9.28285 17.55 16.4C12.6199 21.708 9.47307 28.4247 8.55 35.61C15.21 24.92 27.86 17.25 42.78 16.29Z" fill="#232628"/>
<path d="M77.89 13.6C71.5833 7.29109 63.5472 2.99418 54.7983 1.25273C46.0493 -0.488733 36.9804 0.403486 28.7385 3.81654C20.4967 7.22959 13.4521 13.0102 8.49577 20.4272C3.53943 27.8442 0.893969 36.5644 0.893969 45.485C0.893969 54.4056 3.53943 63.1258 8.49577 70.5428C13.4521 77.9598 20.4967 83.7404 28.7385 87.1535C36.9804 90.5665 46.0493 91.4587 54.7983 89.7173C63.5472 87.9758 71.5833 83.6789 77.89 77.37C86.3445 68.9126 91.094 57.4436 91.094 45.485C91.094 33.5264 86.3445 22.0574 77.89 13.6ZM72.12 71.6C66.9539 76.7663 60.3718 80.2846 53.2061 81.7101C46.0404 83.1356 38.613 82.4041 31.863 79.6083C25.113 76.8124 19.3437 72.0777 15.2846 66.0029C11.2255 59.9281 9.05895 52.7861 9.05895 45.48C9.05895 38.1739 11.2255 31.0319 15.2846 24.9571C19.3437 18.8823 25.113 14.1476 31.863 11.3517C38.613 8.55589 46.0404 7.82444 53.2061 9.2499C60.3718 10.6754 66.9539 14.1937 72.12 19.36C79.0479 26.2893 82.9398 35.6865 82.9398 45.485C82.9398 55.2835 79.0479 64.6807 72.12 71.61V71.6Z" fill="#4F4F4F"/>
<path d="M71 45.91L69.32 43.36L70 43C70.882 42.5116 71.6064 41.7817 72.0882 40.8961C72.5699 40.0105 72.7891 39.0058 72.72 38L72.33 30.72C72.3349 30.3742 72.2473 30.0333 72.0763 29.7327C71.9052 29.4321 71.6569 29.1827 71.357 29.0103C71.0572 28.838 70.7167 28.7489 70.3708 28.7524C70.025 28.7558 69.6864 28.8517 69.39 29.03L62.64 33.37C61.1444 31.6111 59.2837 30.1991 57.1872 29.232C55.0907 28.2649 52.8088 27.766 50.5 27.77H41.63C39.3218 27.7667 37.0407 28.267 34.9457 29.2359C32.8507 30.2048 30.9923 31.619 29.5 33.38L21.89 29C21.6294 28.8629 21.3371 28.7975 21.0429 28.8106C20.7488 28.8238 20.4634 28.9149 20.2161 29.0747C19.9688 29.2345 19.7684 29.4572 19.6355 29.7199C19.5027 29.9827 19.4421 30.2761 19.46 30.57L19.4 38.57C19.3738 39.4801 19.6109 40.3785 20.0827 41.1572C20.5546 41.9359 21.2411 42.5619 22.06 42.96L22.82 43.31L21.21 45.7C20.0805 47.4206 19.4564 49.4236 19.4087 51.4813C19.361 53.539 19.8915 55.5688 20.94 57.34L34 71C34.5595 71.5832 35.2695 72.0003 36.0513 72.205C36.8332 72.4098 37.6565 72.3942 38.43 72.16L41.43 74.77C42.7239 75.9665 44.4098 76.65 46.1716 76.6923C47.9334 76.7347 49.6501 76.1329 51 75L54.4 72.2C55.2064 72.392 56.0493 72.3674 56.8431 72.1286C57.6369 71.8897 58.3535 71.4451 58.92 70.84L71.46 57.22C72.423 55.4724 72.8892 53.4945 72.8081 51.5008C72.727 49.5071 72.1017 47.5736 71 45.91Z" fill="#261F1D"/>
<path d="M59.88 31.14L69.37 25C69.6671 24.8212 70.0067 24.7253 70.3534 24.7222C70.7001 24.7192 71.0413 24.8092 71.3415 24.9827C71.6416 25.1563 71.8898 25.4071 72.0601 25.7091C72.2305 26.0112 72.3168 26.3533 72.31 26.7L72.7 34C72.771 35.0037 72.5548 36.007 72.0767 36.8924C71.5986 37.7778 70.8783 38.5088 70 39L66 41.09L59.88 31.14Z" fill="#4F4F4F"/>
<path d="M31.9 30.74L21.89 25C21.6302 24.8634 21.3388 24.7982 21.0456 24.8109C20.7524 24.8236 20.4677 24.9138 20.2207 25.0724C19.9737 25.231 19.7732 25.4522 19.6396 25.7135C19.5059 25.9748 19.444 26.2669 19.46 26.56L19.4 34.56C19.3738 35.4702 19.6109 36.3685 20.0827 37.1472C20.5546 37.9259 21.2411 38.5519 22.06 38.95L26.31 40.95L31.9 30.74Z" fill="#4F4F4F"/>
<path d="M20.94 53.32L34 66.94C34.6119 67.5587 35.3925 67.9835 36.2444 68.1614C37.0963 68.3392 37.9816 68.2622 38.79 67.94L46.1 65.09L53.81 68C54.679 68.3176 55.6224 68.3722 56.5222 68.1571C57.4221 67.9419 58.2387 67.4664 58.87 66.79L71.46 53.2C72.423 51.4524 72.8892 49.4745 72.8081 47.4808C72.727 45.4871 72.1017 43.5536 71 41.89L63.75 30.89C62.303 28.6981 60.3355 26.8988 58.0234 25.6529C55.7112 24.407 53.1265 23.7532 50.5 23.75H41.63C38.9992 23.7463 36.4086 24.3957 34.0908 25.6402C31.7729 26.8846 29.8003 28.6851 28.35 30.88L21.21 41.68C20.0805 43.4007 19.4564 45.4037 19.4087 47.4614C19.361 49.5191 19.8915 51.5489 20.94 53.32Z" fill="#4F4F4F"/>
<path d="M46.07 66.4V59.17" stroke="#232628" stroke-width="1.71" stroke-miterlimit="10"/>
<path d="M42.34 55H49.88C50.0659 54.999 50.2478 55.0537 50.4023 55.1571C50.5567 55.2605 50.6767 55.4078 50.7466 55.58C50.8166 55.7522 50.8334 55.9414 50.7947 56.1232C50.7561 56.305 50.6639 56.4711 50.53 56.6L47.14 59.87C46.9072 60.0851 46.6019 60.2045 46.285 60.2045C45.9681 60.2045 45.6628 60.0851 45.43 59.87L41.72 56.6C41.5878 56.4729 41.4962 56.3095 41.4566 56.1305C41.417 55.9514 41.4312 55.7647 41.4975 55.5937C41.5637 55.4227 41.6791 55.2751 41.829 55.1694C41.9789 55.0638 42.1567 55.0049 42.34 55Z" fill="#42322C"/>
<path d="M54.64 45.24L54.21 52.32L61.06 47.61V42.93L54.64 45.24Z" fill="#42322C"/>
<path d="M56.55 69.07L46.07 67.46L35.55 69.07L31.55 51.26L37 56.82L36.34 45.45L29.34 43.45L37.7 24.24C37.7 24.24 38.31 24.07 38.77 24L40.07 23.82L32.13 42.12L38.31 43.92L39.31 61.99L34.76 57.42L37.01 66.42L46.01 65.35L55.01 66.42L57.22 57.72L52.61 61.72L53.61 44.52L59.35 42.19L52.64 23.9L53.9 24.11L54.97 24.39L61.97 43.33L55.6 45.93L54.93 57.06L60.4 52.26L56.55 69.07Z" fill="#42322C"/>
<path d="M46.13 25.16L41.33 25.12L46.3 31.88L50.81 25.12L46.13 25.16Z" fill="#42322C"/>
<path d="M51.65 30.46L53.79 35.59L50.35 39.04L48.34 34.76L51.65 30.46Z" fill="#42322C"/>
<path d="M62.38 56.85L63.68 50.69L66.23 48.85L66.43 52.74L62.38 56.85Z" fill="#42322C"/>
<path d="M72.77 47.06C72.5622 44.1654 71.3488 41.4345 69.34 39.34L70.54 38.81C72.05 38.15 72.94 34.87 72.7 34L63.77 30.9C61.7218 27.81 58.6588 25.5322 55.11 24.46C53.8 25.11 52.79 25 51.79 26.17C51.0245 27.1411 50.6119 28.3435 50.62 29.58V29.78C50.71 31.69 53.32 32.08 54.39 33.95C55.02 35.05 54.51 35.6 54.54 38.44C54.5662 40.3148 54.8078 42.1804 55.26 44H55.31C55.9411 44.013 56.5548 44.2089 57.0767 44.5639C57.5986 44.9189 58.0062 45.4178 58.25 46C58.4772 46.5216 58.8097 46.9906 59.2267 47.3777C59.6437 47.7647 60.1362 48.0614 60.6732 48.2492C61.2103 48.437 61.7803 48.5118 62.3476 48.4689C62.9149 48.426 63.4673 48.2664 63.97 48C64.5158 47.6906 65.1326 47.528 65.76 47.528C66.3874 47.528 67.0042 47.6906 67.55 48C68.392 48.4811 69.3764 48.6506 70.3308 48.4787C71.2852 48.3068 72.1487 47.8046 72.77 47.06Z" fill="#42322C"/>
<path d="M60.57 54.34C54.7 52.64 55.26 56.96 51.35 53.46C49.06 51.41 49.81 49.76 47.56 43.21C46.0659 38.8785 44.0761 34.7343 41.63 30.86C40.0454 31.1379 38.4171 31.0294 36.8834 30.5437C35.3497 30.058 33.9558 29.2094 32.82 28.07C32.5078 27.7504 32.1736 27.453 31.82 27.18C30.9908 27.8306 30.2272 28.5608 29.54 29.36L22.9 25.54C21.6615 25.9061 20.5065 26.5108 19.5 27.32L19.44 34.51C19.4138 35.4201 19.6509 36.3185 20.1227 37.0972C20.5946 37.8759 21.2811 38.5019 22.1 38.9L22.86 39.25L21.25 41.67C20.1185 43.3917 19.4933 45.3966 19.4456 47.4563C19.3978 49.516 19.9295 51.5477 20.98 53.32L34 66.94C34.5581 67.516 35.2629 67.9285 36.0384 68.1329C36.8139 68.3374 37.6305 68.326 38.4 68.1V68.15L41.4 70.76C42.6945 71.9661 44.3858 72.6564 46.1545 72.7006C47.9232 72.7448 49.6469 72.1399 51 71L54.4 68.2C55.2064 68.392 56.0493 68.3674 56.8431 68.1285C57.6369 67.8897 58.3535 67.4451 58.92 66.84L61 64.53C62.44 60.23 62.64 55 60.57 54.34Z" fill="#42322C"/>
<path d="M14.11 13.6C11.5121 16.1966 9.24186 19.1016 7.35 22.25C7.35 22.25 7.35 22.25 7.35 22.3C8.25 24.09 10.86 24.3 12.95 24.11C14.1 23.99 13.95 23.64 16.27 22.76C16.57 22.64 16.83 22.56 17.09 22.47C17.9566 21.3874 18.8813 20.3525 19.86 19.37C22.8045 16.4091 26.234 13.974 30 12.17C30 11.94 30 11.76 30 11.67C30 8.98999 28 8.48999 28 5.87999C27.992 5.20563 28.1391 4.53845 28.43 3.92999C23.0768 6.19802 18.2139 9.48188 14.11 13.6Z" fill="#42322C"/>
<path d="M10.6 56.06C8.07 56.17 7.52 58 5 58C4.14709 57.9803 3.30962 57.7684 2.55 57.38C5.20293 67.1306 11.0564 75.7065 19.17 81.73C19.276 81.0912 19.5314 80.4865 19.9155 79.9652C20.2995 79.4438 20.8013 79.0206 21.38 78.73C22.77 78.03 23.22 76.31 23.25 74.6C22.0696 73.666 20.9444 72.6643 19.88 71.6C15.5385 67.2755 12.3482 61.9332 10.6 56.06Z" fill="#42322C"/>
<path d="M77.89 77.37C83.1623 72.1058 87.0452 65.615 89.19 58.48C88.8504 58.4129 88.4981 58.4622 88.19 58.62C82.84 61.56 86.29 64.23 81.05 64.52C80.0075 64.5905 78.9666 64.3615 78.05 63.86C73.7446 71.3672 66.9407 77.125 58.8248 80.1294C50.7089 83.1338 41.7959 83.1942 33.64 80.3C32.8088 81.4383 32.2277 82.7395 31.9347 84.1182C31.6418 85.4969 31.6436 86.922 31.94 88.3C39.8606 90.9072 48.3491 91.2659 56.4614 89.3362C64.5737 87.4066 71.9916 83.2642 77.89 77.37Z" fill="#42322C"/>
</svg>
