<svg width="105" height="75" viewBox="0 0 146 119" fill="none" xmlns="http://www.w3.org/2000/svg">
<path d="M48.4175 107.873L55.6515 113.951C58.8338 116.752 62.9872 118.344 67.3224 118.424C71.6575 118.503 75.8723 117.065 79.1658 114.382L87.4871 107.873L65.3925 50.2319L48.4175 107.873Z" fill="#CC8837"/>
<path d="M100.022 15.8367L100.551 15.4488C102.469 14.0121 119.414 1.19648 124.216 1.08154C125.44 1.08154 126.527 1.87174 127.614 3.46651C131.163 8.66745 134.32 22.5462 133.066 25.2042C129.789 32.201 116.922 39.5714 116.454 39.83L115.819 40.1892L100.022 15.8367Z" fill="#CC8837"/>
<path d="M124.291 1.75801C128.958 1.75801 133.655 22.1739 132.371 24.8749C129.154 31.7425 115.985 39.2422 115.985 39.2422L101.019 16.0103C101.019 16.0103 119.549 1.91605 124.231 1.75801H124.291ZM124.231 0.321289H124.125C119.187 0.479329 103.178 12.476 99.9615 14.8753L98.9194 15.6799L99.6141 16.7574L114.581 39.9174L115.366 41.1243L116.634 40.4059C117.193 40.0898 130.227 32.662 133.64 25.464C134.969 22.5905 131.858 8.49625 128.127 3.0367C126.889 1.21206 125.59 0.321289 124.171 0.321289H124.231Z" fill="#2A130F"/>
<path d="M18.4545 39.2414C17.7598 38.8535 3.11053 29.7446 1.22274 24.0696C-0.665056 18.3945 3.92605 2.20261 7.79225 0.981395C7.99253 0.921592 8.20154 0.892493 8.41144 0.895191C12.7458 0.895191 30.9139 13.093 32.9678 14.4866L33.5266 14.8602L19.1341 39.6868L18.4545 39.2414Z" fill="#CC8837"/>
<path d="M8.41161 1.61348C12.6403 1.61348 32.5753 15.0756 32.5753 15.0756L18.9832 38.6379C18.9832 38.6379 3.7601 29.3423 1.93272 23.8827C0.105341 18.4232 4.83237 2.69103 7.97365 1.68532C8.09889 1.66861 8.22596 1.66861 8.3512 1.68532L8.41161 1.61348ZM8.3512 0.248594C8.05993 0.247221 7.76999 0.285934 7.49037 0.363532C2.95968 1.80026 -1.41999 18.7967 0.437592 24.3568C2.37069 30.1037 16.3856 38.9396 17.9714 39.9166L19.3457 40.7499L20.1159 39.4137L33.7986 15.8371L34.448 14.7164L33.3455 13.9693C30.023 11.6131 12.897 0.176758 8.41161 0.176758L8.3512 0.248594Z" fill="#2A130F"/>
<path d="M106.607 18.5238C106.607 18.5238 124.035 11.0529 128.928 11.5988L106.607 18.5238Z" fill="#CC8837"/>
<path d="M105.988 17.2167C109.718 15.8949 113.539 14.7024 117.269 13.6105C119.172 13.0933 121.09 12.5761 123.023 12.1738C124.949 11.6969 126.941 11.503 128.928 11.5991C126.973 11.7381 125.052 12.1646 123.235 12.8634C121.392 13.4956 119.58 14.3001 117.798 14.961C114.219 16.4696 110.67 18.1218 107.226 19.8315L105.988 17.2167Z" fill="#2A130F"/>
<path d="M30.038 19.3711C30.038 19.3711 12.1417 9.74502 7.26367 10.2766L30.038 19.3711Z" fill="#CC8837"/>
<path d="M29.2981 20.6218C25.8397 18.5242 22.2906 16.4841 18.7265 14.602C16.9142 13.6681 15.0868 12.7486 13.199 11.9584C11.3627 11.0671 9.37268 10.4977 7.32422 10.2774C9.41979 10.2608 11.5015 10.6015 13.4709 11.2831C15.4795 11.8578 17.4277 12.5762 19.3759 13.2946C23.2572 14.7313 27.063 16.3835 30.8386 18.1219L29.2981 20.6218Z" fill="#2A130F"/>
<path d="M15.7516 84.5412C30.2801 103.793 40.2023 107.443 47.3608 107.112C54.5193 106.782 67.2204 100.862 67.2204 100.862C67.2204 100.862 71.0866 102.428 76.2818 103.994C84.8448 106.566 89.1641 107.687 93.2719 107.112C100.823 106.049 100.264 106.178 114.415 91.0065C119.339 85.7481 125.863 79.915 125.863 69.0821C125.878 51.7408 124.987 32.5031 112.996 19.5726C96.9418 2.20255 74.3487 1.15374 67.3865 1.16811C41.0329 1.23995 24.3298 17.0727 21.2338 20.1185C19.7235 21.7995 6.37309 43.4797 8.59313 67.1425C8.94048 70.878 10.647 79.6276 15.7516 84.5412Z" fill="#CC8837"/>
<path d="M37.7253 90.4317C39.6584 89.0812 28.5129 78.6075 67.2202 80.1304C101.019 81.4666 96.3375 93.0609 96.3375 93.0609C96.3375 93.0609 95.4766 107.241 87.4875 107.098C83.8781 112.6 71.7962 118.592 67.9602 118.419C64.0772 117.979 60.3336 116.773 56.9685 114.878C53.6035 112.983 50.6912 110.441 48.4178 107.414C48.4178 107.414 38.4502 108.721 37.7253 90.4317Z" fill="#FAE5BF"/>
<path d="M67.2202 103.794V86.9697" stroke="#2A130F" stroke-width="2.23" stroke-miterlimit="10"/>
<path d="M52.0872 77.2138C53.5975 73.6938 64.4863 78.3631 67.3557 78.4637C70.2252 78.5643 79.9964 74.2972 82.156 77.2138C84.3157 80.1303 74.6049 90.4316 67.7786 90.4316C60.9523 90.4316 50.5317 80.7337 52.0872 77.2138Z" fill="#2A130F"/>
<path d="M42.4218 75.9066C42.4218 75.9066 42.8598 65.5478 35.3237 63.3496C27.7877 61.1514 14.1805 50.9219 22.6982 39.5143C32.0012 27.101 45.7141 24.8741 47.315 25.8223C50.5016 27.7188 44.1435 39.4712 45.9256 41.1522C47.7076 42.8332 53.3861 49.2122 51.2869 55.6631C49.1877 62.114 42.4218 75.9066 42.4218 75.9066Z" fill="#FAE5BF"/>
<path d="M91.6255 75.9066C91.6255 75.9066 91.2027 65.5478 98.7387 63.3496C106.275 61.1514 119.882 50.9219 111.364 39.5143C102.046 27.101 88.3332 24.8741 86.7324 25.8223C83.5609 27.7188 89.9038 39.4712 88.1218 41.1522C86.3397 42.8332 81.6127 47.7468 83.7119 54.212C85.8111 60.6773 91.6255 75.9066 91.6255 75.9066Z" fill="#FAE5BF"/>
<path d="M112.044 42.9622C110.508 41.5709 108.834 40.3247 107.045 39.2411C105.305 38.1118 103.366 37.2894 101.321 36.813C100.341 36.5662 99.311 36.5551 98.3251 36.7809C97.3391 37.0066 96.4276 37.462 95.6726 38.1061L90.9154 42.1432C89.3109 43.4311 87.7974 44.8181 86.3847 46.2954C85.0126 47.6698 84.236 49.4861 84.2099 51.3814C84.3032 53.3277 84.6377 55.2567 85.2067 57.1283C85.7353 59.0679 86.3394 60.9931 86.9586 62.8752C87.5778 64.7573 88.197 66.74 88.7708 68.6939C89.0578 69.6853 89.3296 70.6766 89.5713 71.6823C89.7746 72.6146 90.0782 73.5245 90.4774 74.3977C92.1085 77.9895 94.7816 81.3515 96.1861 85.3599C96.9379 87.3677 97.3408 89.4786 97.3792 91.6097C97.3908 92.6976 97.2998 93.7843 97.1073 94.8567C96.8506 95.8768 96.5636 96.8681 96.2465 97.8594C95.6012 99.8475 94.7566 101.772 93.7244 103.606C93.1782 104.569 92.5196 105.471 91.7611 106.293C90.9391 107.185 89.9029 107.875 88.7406 108.304L88.499 108.405H88.2121L67.0688 104.713H67.4011L47.5717 108.276H47.2848H47.028C45.3938 107.793 43.924 106.905 42.7692 105.704C41.6781 104.589 40.7532 103.337 40.0205 101.983C39.2968 100.677 38.6857 99.317 38.1932 97.9169C37.6803 96.5091 37.2715 95.0688 36.9699 93.6067V93.5205C36.8063 91.6836 36.8316 89.8358 37.0454 88.0035C37.3052 86.1583 37.8127 84.3525 38.5556 82.6301C40.0659 79.1676 42.4973 76.3517 43.8867 73.3058C44.2341 72.5443 44.4606 71.7541 44.7627 70.8777L45.6084 68.4209L47.5264 63.4355C48.8723 60.1614 49.9725 56.8006 50.8187 53.3784C50.9963 52.5857 51.0523 51.7727 50.9848 50.9647C50.842 50.2043 50.5049 49.4889 50.0032 48.8815C48.8816 47.5224 47.6386 46.2582 46.288 45.1029C44.9439 43.8817 43.5696 42.6605 42.3312 41.2956C41.7016 40.6206 41.1213 39.9053 40.5944 39.1549C40.0507 38.4221 39.6581 37.4739 39.2352 36.8417C38.6761 36.2121 37.9278 35.7603 37.0909 35.5471C36.254 35.334 35.3685 35.3696 34.5535 35.6493C32.777 36.08 31.0664 36.7271 29.464 37.5745C26.2184 39.2931 23.1536 41.3041 20.312 43.58C23.0643 41.1852 26.0534 39.0489 29.2375 37.2009C30.8479 36.2557 32.5923 35.5348 34.4176 35.0602C35.3638 34.8252 36.3505 34.7763 37.3172 34.9165C38.3283 35.0602 39.2396 35.5762 39.8544 36.3532C41.6896 39.4064 44.1494 42.0786 47.0884 44.2121C48.5517 45.3717 49.906 46.6505 51.1359 48.0338C51.8255 48.8245 52.2931 49.7687 52.4951 50.778C52.5884 51.7383 52.5324 52.7066 52.3289 53.6514C51.5161 57.1506 50.4514 60.5925 49.1423 63.9527L47.315 68.9525L46.4541 71.4381C46.1974 72.2426 45.9255 73.1621 45.548 74.0385C44.0378 77.4867 41.5912 80.2165 40.3377 83.3773C39.0567 86.5504 38.6209 89.9758 39.0691 93.3481V93.2475C39.388 94.5817 39.7914 95.8964 40.2773 97.1842C40.7653 98.4635 41.3508 99.7071 42.0292 100.905C43.3733 103.233 45.2762 105.374 47.6623 105.977H47.1186L67.0537 102.902H67.2198H67.386L88.6198 106.465H88.0912C89.7552 105.599 91.0797 104.243 91.8668 102.601C92.8358 100.878 93.6249 99.0682 94.2228 97.1985C94.5248 96.2647 94.7967 95.3021 95.0232 94.3251C95.1777 93.4082 95.2535 92.4808 95.2497 91.5522C95.2274 89.6334 94.8754 87.731 94.2077 85.9203C92.9391 82.2279 90.4321 78.9809 88.65 75.1161C88.2067 74.1318 87.8727 73.1061 87.6533 72.0559C87.4569 71.0933 87.2153 70.1163 86.9435 69.1824C86.4149 67.2428 85.841 65.3033 85.2671 63.3493C84.6932 61.3954 84.1193 59.4558 83.6209 57.4587C83.0435 55.4438 82.729 53.3689 82.6846 51.2808C82.7294 50.1764 83.0068 49.0919 83.5001 48.0913C83.9961 47.1277 84.6428 46.2413 85.4181 45.4621C86.9312 44.0095 88.5458 42.6559 90.2509 41.4105L95.1893 37.5888C96.0407 36.8585 97.0847 36.3619 98.2098 36.1521C99.3049 35.9788 100.426 36.0228 101.502 36.2814C103.581 36.8348 105.536 37.7453 107.271 38.9681C108.992 40.1513 110.591 41.4888 112.044 42.9622Z" fill="#2A130F"/>
<path d="M71.1014 6.81409C68.4736 6.91466 65.8005 6.81409 63.5502 10.0467C61.3 13.2794 68.6246 20.1038 71.3581 20.1756C74.0916 20.2475 80.4195 12.3886 78.4864 10.0467C77.614 8.98837 76.4891 8.14307 75.2048 7.58089C73.9204 7.01871 72.5138 6.75585 71.1014 6.81409Z" fill="#2A130F"/>
<path d="M59.5929 29.3418C55.8476 29.3418 55.9835 33.3215 56.497 36.3818C57.0105 39.442 58.5358 41.281 61.4656 41.1229C64.3955 40.9649 64.3502 37.6461 64.3502 35.2467C64.3502 32.8474 63.3232 29.3418 59.5929 29.3418Z" fill="#2A130F"/>
<path d="M19.6478 76.3657C17.1408 76.3657 17.2314 79.0237 17.5788 81.0782C17.9261 83.1327 18.9682 84.3539 20.9013 84.2534C22.8344 84.1528 22.8344 81.9259 22.8344 80.3167C22.8344 78.7076 22.1548 76.3657 19.6478 76.3657Z" fill="#2A130F"/>
<path d="M115.275 73.5498C112.768 73.5498 112.874 76.2077 113.222 78.2623C113.569 80.3168 114.596 81.538 116.529 81.4374C118.462 81.3368 118.477 79.1099 118.477 77.5008C118.477 75.8917 117.782 73.5498 115.275 73.5498Z" fill="#2A130F"/>
<path d="M113.328 90.1446C115.11 88.4493 113.056 86.639 111.289 85.4178C109.522 84.1966 107.891 83.9811 106.592 85.4178C105.293 86.8545 106.954 88.2912 108.102 89.4981C109.25 90.7049 111.561 91.8256 113.328 90.1446Z" fill="#2A130F"/>
<path d="M15.1772 33.7959C12.1568 33.7959 12.1568 37.0573 12.64 39.5428C13.1233 42.0283 14.3315 43.5656 16.7177 43.4363C19.1038 43.307 19.1038 40.5629 19.1038 38.6089C19.1038 36.655 18.243 33.7959 15.1772 33.7959Z" fill="#2A130F"/>
<path d="M80.8273 26.6407C83.3192 26.77 83.727 30.0026 83.2739 32.2152C82.8208 34.4277 81.6277 35.965 79.3322 35.965C77.0366 35.965 77.0366 33.0916 77.0366 31.3244C77.0366 29.5573 78.3203 26.5114 80.8273 26.6407Z" fill="#2A130F"/>
<path d="M35.8824 20.6358C35.8824 18.6675 29.8415 19.1991 27.1986 20.176C26.0709 20.7151 25.1704 21.6041 24.6459 22.6961C24.1214 23.7881 24.0043 25.0177 24.314 26.1815C24.9786 27.5321 27.1986 27.6183 29.6754 26.4401C32.1522 25.262 35.8824 22.5897 35.8824 20.6358Z" fill="#2A130F"/>
<path d="M120.002 42.4023C121.966 42.4023 121.513 37.0002 120.455 34.5434C119.916 33.5157 119.021 32.6961 117.92 32.2225C116.82 31.7489 115.582 31.6502 114.415 31.9429C113.07 32.532 112.904 34.5434 114.158 36.7847C115.411 39.0259 118.039 42.4023 120.002 42.4023Z" fill="#2A130F"/>
<path d="M96.4276 18.409C97.2733 15.7223 101.91 15.6792 106.214 16.3688C110.518 17.0585 110.397 22.5467 109.355 24.3283C108.313 26.1098 105.64 25.3484 103.073 24.63C100.505 23.9116 95.5668 21.0957 96.4276 18.409Z" fill="#2A130F"/>
<path d="M44.672 23.2219C42.603 22.6185 42.5728 19.3859 43.1618 16.3831C43.7508 13.3803 47.919 13.5096 49.2933 14.1849C50.6676 14.8602 50.0786 16.7854 49.5349 18.5813C48.9913 20.3772 46.741 23.8828 44.672 23.2219Z" fill="#2A130F"/>
<path d="M18.5456 69.4843C16.8692 68.9958 16.8541 66.3953 17.277 63.996C17.6999 61.5967 21.0979 61.6398 22.2155 62.2145C23.333 62.7891 22.8347 64.3121 22.3967 65.7488C21.9587 67.1855 20.2069 69.9584 18.5456 69.4843Z" fill="#2A130F"/>
<path d="M87.2305 55.4906C87.955 53.6606 89.1125 52.0138 90.6134 50.6776C92.136 49.2865 93.9761 48.249 95.9898 47.6461C97.9971 47.022 100.138 46.8934 102.212 47.2726C103.248 47.4274 104.262 47.6975 105.232 48.0771C106.155 48.5009 107.048 48.9808 107.906 49.5138C106.894 49.3558 105.957 49.0685 104.991 48.9248C104.042 48.7691 103.083 48.6684 102.121 48.6231C100.243 48.5273 98.362 48.7711 96.5788 49.3414C92.9606 50.5959 89.7417 52.7132 87.2305 55.4906Z" fill="#2A130F"/>
<path d="M29.842 46.3244C29.842 46.3244 27.5464 53.623 31.8506 55.9649C36.1547 58.3067 47.4362 59.4417 46.1676 54.2121C44.9443 49.4278 33.678 40.7212 29.842 46.3244Z" fill="#CF9F66"/>
<path d="M46.4544 54.2118C45.6928 52.2647 44.5352 50.4795 43.0477 48.9584C41.5603 47.4373 39.7721 46.2102 37.7856 45.3472C36.8046 45.7616 35.9412 46.3922 35.2669 47.1868C34.5927 47.9814 34.1268 48.9172 33.9079 49.917C33.6889 50.9167 33.7232 51.9517 34.0078 52.9363C34.2924 53.921 34.8192 54.8271 35.5447 55.5798C36.2701 56.3325 37.1735 56.9102 38.18 57.2651C39.1866 57.62 40.2674 57.742 41.3333 57.621C42.3992 57.4999 43.4196 57.1394 44.31 56.5691C45.2005 55.9987 45.9355 55.235 46.4544 54.3411C46.4544 54.3411 46.4544 54.2549 46.4544 54.2118Z" fill="#2A130F"/>
<path d="M46.5906 53.6661C45.1888 50.1036 42.3592 47.2154 38.7222 45.6348C37.8287 46.0107 37.0423 46.5839 36.4282 47.3068C35.814 48.0297 35.3899 48.8814 35.1909 49.7914C34.9919 50.7014 35.0237 51.6434 35.2839 52.5393C35.544 53.4352 36.0248 54.2592 36.6866 54.943C37.3483 55.6268 38.1719 56.1507 39.089 56.4712C40.006 56.7917 40.9902 56.8997 41.9599 56.7861C42.9296 56.6725 43.8568 56.3406 44.6648 55.818C45.4727 55.2954 46.1381 54.5971 46.6057 53.781C46.6057 53.781 46.6057 53.7092 46.5906 53.6661Z" fill="#FAE5BF"/>
<path d="M46.2276 53.3355C44.9659 50.1537 42.4374 47.5729 39.1899 46.1519C38.3931 46.4895 37.6921 47.0026 37.145 47.6489C36.5979 48.2952 36.2203 49.056 36.0434 49.8686C35.8665 50.6812 35.8954 51.5221 36.1277 52.3219C36.3601 53.1218 36.7891 53.8575 37.3794 54.4684C37.9698 55.0793 38.7044 55.5478 39.5227 55.8352C40.341 56.1226 41.2194 56.2206 42.0854 56.1211C42.9514 56.0216 43.78 55.7276 44.5029 55.2632C45.2258 54.7988 45.8221 54.1774 46.2427 53.4504C46.2459 53.4115 46.2407 53.3724 46.2276 53.3355Z" fill="#2A130F"/>
<path d="M33.8289 45.1458C38.3596 45.1458 44.2042 49.7433 45.7295 54.427C45.834 54.6715 45.8748 54.9363 45.8485 55.1989C45.8222 55.4616 45.7296 55.7143 45.5785 55.9356C44.914 56.7976 43.0564 57.2861 40.5041 57.2861C37.5745 57.2963 34.6797 56.6827 32.0317 55.4902C28.5431 53.5937 29.9476 47.7032 30.1741 46.8699C30.5763 46.307 31.1234 45.8516 31.7632 45.5473C32.4031 45.2429 33.1143 45.0997 33.8289 45.1314V45.1458ZM33.8289 44.4131C32.9672 44.3797 32.1112 44.561 31.3457 44.939C30.5802 45.317 29.9317 45.8786 29.4643 46.5682C29.4643 46.5682 27.3349 53.7518 31.6542 56.1511C34.4173 57.4006 37.4451 58.0298 40.5041 57.9901C44.2344 57.9901 47.3455 56.9557 46.4545 54.1972C44.7932 49.1255 38.571 44.4131 33.8289 44.4131Z" fill="#2A130F"/>
<path d="M27.2744 48.8531C28.3969 46.8754 30.1834 45.3125 32.3488 44.4136C32.9111 44.1874 33.5074 44.0467 34.1158 43.997C34.4178 43.997 34.7199 43.8964 35.037 43.8677H35.9733C36.597 43.8962 37.2128 44.0124 37.8007 44.2125C38.0877 44.3131 38.4048 44.3705 38.6918 44.4998L39.4922 44.9165C40.531 45.4952 41.4899 46.1951 42.3465 46.9997C43.1201 47.8327 43.8317 48.716 44.4759 49.6433C45.0892 50.5664 45.6391 51.5262 46.1221 52.5168C46.5601 53.5225 46.998 54.5282 47.3605 55.5482C46.6507 54.6862 46.0315 53.7954 45.3972 52.919C44.7629 52.0426 44.0229 51.1806 43.4339 50.3473C42.8449 49.514 41.9236 48.8387 41.244 48.0629C40.4611 47.3982 39.6055 46.8154 38.6918 46.3245C37.8209 45.837 36.8539 45.5255 35.8509 45.4093C34.848 45.2931 33.8306 45.3748 32.8623 45.6492C30.7666 46.2966 28.855 47.3927 27.2744 48.8531Z" fill="#2A130F"/>
<path d="M125.123 72.329C124.957 69.9675 124.65 67.617 124.201 65.289C123.756 62.9535 123.181 60.642 122.48 58.364C121.745 56.0888 120.841 53.8659 119.776 51.712C118.67 49.5688 117.323 47.5456 115.759 45.6777C117.426 47.4827 118.884 49.4527 120.109 51.5539C121.283 53.6791 122.293 55.8832 123.129 58.1485C123.971 60.4219 124.677 62.7387 125.244 65.0879C125.834 67.4556 126.278 69.8543 126.573 72.2715L125.123 72.329Z" fill="#2A130F"/>
<path d="M7.88281 72.1999C8.23017 69.8006 8.71344 67.4731 9.28733 65.1312C9.86122 62.7893 10.571 60.5049 11.3715 58.2493C12.2024 55.9972 13.1757 53.795 14.2862 51.6547C15.433 49.5338 16.7989 47.5269 18.3638 45.6636C16.9069 47.5892 15.6572 49.6493 14.6336 51.8128C13.6383 53.9759 12.7908 56.1978 12.0964 58.4648C11.4168 60.7348 10.858 63.0479 10.4049 65.3611C9.94186 67.6705 9.60413 70.0011 9.39305 72.3436L7.88281 72.1999Z" fill="#2A130F"/>
<path d="M126.24 67.4872C126.24 29.3421 113.162 19.6586 112.044 18.5236C95.2203 1.45531 72.9595 1.16797 67.3867 1.16797C50.9554 1.16797 39.3719 5.89479 31.4432 11.225C27.66 13.7742 24.2299 16.767 21.234 20.1327C19.7238 21.8568 6.84152 38.6665 7.80807 64.5563C8.33665 79.1246 14.876 85.1589 24.1488 95.3884C24.1488 95.3884 35.2792 104.871 42.483 106.537L48.4182 107.888L55.6522 113.965C58.8346 116.767 62.988 118.359 67.3231 118.438C71.6583 118.518 75.873 117.079 79.1665 114.396L87.4879 107.888C89.4449 107.893 91.3927 107.631 93.2721 107.112C101.775 105.546 109.718 96.8107 113.675 92.7448C122.571 82.9894 126.24 81.0499 126.24 67.4872Z" stroke="#2A130F" stroke-miterlimit="10"/>
<path d="M88.3027 106.437C91.0212 105.993 93.6011 104.977 95.8539 103.463C98.1407 101.913 100.009 99.8698 101.306 97.5006C102.526 95.0364 103.272 92.3847 103.511 89.6704C103.632 88.2337 103.511 86.9263 103.511 85.5614L103.058 81.438L103.843 85.5327C103.843 86.9694 104.054 88.3055 104.024 89.6992C103.98 92.5126 103.408 95.2958 102.333 97.9172C101.095 100.546 99.2156 102.856 96.8507 104.655C94.4512 106.478 91.6466 107.755 88.6501 108.391L88.3027 106.437Z" fill="#2A130F"/>
<path d="M47.8284 108.377C44.7109 107.563 41.7844 106.193 39.205 104.34C36.6411 102.506 34.541 100.149 33.0584 97.4434C32.68 96.7807 32.3617 96.0886 32.1069 95.3745L31.669 94.2826C31.5481 93.9234 31.4726 93.5642 31.3669 93.1907C31.2008 92.4579 30.9743 91.7539 30.8534 91.0068L30.6269 88.7799C30.5514 88.0441 30.5514 87.3031 30.6269 86.5674L30.7175 84.3404C30.8987 82.9037 31.1857 81.467 31.4122 80.0303C31.2763 81.467 31.0649 82.9037 30.9743 84.4266V86.6248C30.9509 87.3569 31.0117 88.0892 31.1555 88.8087L31.5028 90.9637C31.669 91.6677 31.9257 92.4005 32.1371 93.0614C32.2428 93.4062 32.3486 93.751 32.4694 94.0958L32.9527 95.0728C33.2403 95.735 33.5837 96.374 33.9796 96.9836C35.5141 99.4564 37.6151 101.568 40.1262 103.162C42.592 104.749 45.3476 105.884 48.2513 106.509L47.8284 108.377Z" fill="#2A130F"/>
<path d="M126.24 40.678L134.547 41.0659L139.379 34.6294L138.971 42.5314L145.752 47.1289L137.431 46.741L132.598 53.1919L133.021 45.2755L126.24 40.678Z" fill="#F9BF4B"/>
</svg>
