<svg width="100" height="100" viewBox="0 0 100 100" fill="none" xmlns="http://www.w3.org/2000/svg">
<path d="M16.63 30.8L26 59.61C26.9526 60.533 27.9541 61.4043 29 62.22L77.66 54.3L81.3 29.61L73.81 33.44L60.56 38.72L52 37.72L35 23L16.63 30.8Z" fill="#301905"/>
<path d="M67.17 48.78L50.72 54.78L37.94 51.78L27.2 54.83L36.45 66.66C40.7501 68.5186 45.3866 69.4729 50.0711 69.4636C54.7557 69.4542 59.3883 68.4814 63.6809 66.6057C67.9736 64.7299 71.8346 61.9913 75.0239 58.56C78.2132 55.1287 80.6626 51.0781 82.22 46.66L67.17 48.78Z" fill="#7F4E2D"/>
<path d="M55.66 61.17L60.89 57.62L69.79 57.37L61.31 59.27L55.66 61.17Z" fill="#301905"/>
<path d="M32.92 54.42L38.26 57.39L48.28 58.98L36.88 59.29L32.92 54.42Z" fill="#301905"/>
<path d="M49.89 17.33C49.89 17.33 53.8 23.88 50.47 29.14C50.47 29.14 50.59 35.84 46.19 37.14C43.19 38.04 34.99 46.37 28.85 46.68C25.97 46.83 22.1 39.2 22.1 39.2C22.1 39.2 22.97 26.2 26.47 22.2C26.47 22.2 32.39 10.88 43.13 13.92C45 14.4 47.23 13.18 49.89 17.33Z" fill="#301905"/>
<path d="M48.1 14.84C48.1 14.84 52.01 21.39 48.68 26.65C48.68 26.65 48.8 33.35 44.4 34.65C41.4 35.54 33.2 43.88 27.06 44.19C24.18 44.33 20.31 36.7 20.31 36.7C20.31 36.7 21.18 23.7 24.69 19.7C24.69 19.7 30.6 8.38 41.34 11.42C43.17 11.91 45.44 10.69 48.1 14.84Z" fill="#7F4E2D"/>
<path d="M48.27 14.74C48.7699 15.66 49.1753 16.6283 49.48 17.63C49.8057 18.6254 50.0334 19.6503 50.16 20.69C50.2816 21.7382 50.258 22.7982 50.09 23.84C49.903 24.8912 49.5449 25.9046 49.03 26.84L49.09 26.62C49.1784 28.3749 48.9132 30.1296 48.31 31.78C47.9674 32.6533 47.4579 33.4516 46.81 34.13C46.63 34.29 46.47 34.47 46.27 34.62L45.66 35.03C45.4435 35.1475 45.2197 35.251 44.99 35.34L44.65 35.49L44.43 35.59C43.7474 35.9403 43.098 36.352 42.49 36.82C41.83 37.3 41.17 37.82 40.49 38.31C39.16 39.31 37.83 40.31 36.49 41.31C35.0636 42.3427 33.5629 43.2685 32 44.08C31.194 44.4857 30.3542 44.8203 29.49 45.08C29.0431 45.2296 28.585 45.3433 28.12 45.42L27.39 45.53C27.2572 45.5473 27.1228 45.5473 26.99 45.53C26.8068 45.5399 26.6232 45.5399 26.44 45.53C25.3391 45.2897 24.3337 44.7296 23.55 43.92C22.8831 43.3047 22.2677 42.6358 21.71 41.92C20.6399 40.5214 19.6771 39.0439 18.83 37.5L18.63 37.15V36.65C18.71 35.1 18.84 33.65 18.99 32.1C19.14 30.55 19.36 29.1 19.62 27.56C19.8982 26.0144 20.2859 24.4906 20.78 23C21.2689 21.3224 22.0808 19.7564 23.17 18.39L22.91 18.77C23.5651 17.6379 24.3251 16.5699 25.18 15.58C26.0363 14.6025 26.9802 13.7054 28 12.9C30.0663 11.275 32.5332 10.2385 35.14 9.89999C36.4105 9.76406 37.6941 9.81459 38.95 10.05C40.16 10.24 41.44 10.8 42.38 10.96C42.93 11.05 43.55 11.07 44.17 11.23C44.7894 11.3722 45.3763 11.6301 45.9 11.99C46.8722 12.7324 47.6792 13.6689 48.27 14.74ZM47.94 14.94C47.3357 13.9771 46.5179 13.1662 45.55 12.57C44.5247 12.1131 43.3934 11.9471 42.28 12.09C41.9452 12.0967 41.6106 12.0733 41.28 12.02L40.42 11.92C39.8722 11.824 39.3157 11.7871 38.76 11.81C37.6796 11.8193 36.6071 11.9947 35.58 12.33C33.5824 13.0113 31.7688 14.144 30.28 15.64C29.5136 16.365 28.8111 17.1546 28.18 18C27.5333 18.8102 26.961 19.677 26.47 20.59L26.36 20.8L26.21 20.98C25.4837 21.9739 24.9293 23.0826 24.57 24.26C24.1146 25.5724 23.7274 26.9075 23.41 28.26C23.07 29.65 22.78 31.07 22.54 32.5C22.3 33.93 22.1 35.38 21.95 36.79L21.77 36C22.461 37.4256 23.26 38.7962 24.16 40.1C24.5831 40.7255 25.0581 41.3142 25.58 41.86C25.9411 42.274 26.3928 42.5991 26.9 42.81C26.926 42.8016 26.954 42.8016 26.98 42.81C26.98 42.81 27.13 42.81 27.19 42.81L27.71 42.75C28.0723 42.7126 28.4305 42.6423 28.78 42.54C29.5194 42.3414 30.2417 42.084 30.94 41.77C32.4056 41.1026 33.8195 40.3272 35.17 39.45C36.56 38.57 37.91 37.62 39.29 36.67C39.98 36.19 40.67 35.67 41.39 35.24C42.1408 34.7437 42.9419 34.328 43.78 34C46.78 33.38 48.03 29.85 48.27 26.7V26.56V26.47C48.8323 25.6488 49.2453 24.7348 49.49 23.77C49.7163 22.7871 49.7939 21.7759 49.72 20.77C49.5538 18.7211 48.9466 16.7323 47.94 14.94Z" fill="#301905"/>
<path d="M22.69 27.4C22.69 27.4 30 18.89 36.08 16.71C39.4 15.52 42.08 18.34 43.74 21.34C43.74 21.34 46.74 25.54 45.11 30.34C44.8776 31.0987 44.8047 31.8972 44.8959 32.6854C44.9871 33.4737 45.2404 34.2345 45.64 34.92C46.489 36.0952 47.2767 37.3135 48 38.57C49 40.75 44.93 47.1 39.4 46.35C37.4 46.03 36.08 45.59 34.59 46.15C32.94 39.88 30.48 39.15 27.95 38.91C26.85 38.81 20.71 46.06 19.23 44.58C18.39 43.74 17.02 36.06 17.75 31.58C18.35 27.58 22.69 27.4 22.69 27.4Z" fill="#301905"/>
<path d="M40.46 45.31H39.92C39.5 45.26 39.13 45.19 38.77 45.13C38.0874 44.9987 37.395 44.9251 36.7 44.91C36.1261 44.9155 35.5538 44.9724 34.99 45.08L34.4 45.19L34.25 44.61C32.63 38.4 30.8 38.23 28.69 38C27.7956 38.5742 26.9464 39.2161 26.15 39.92C23.55 42.03 21.6 43.52 20.25 43.52C19.8775 43.521 19.5191 43.3777 19.25 43.12C18.12 41.98 17.45 33.51 18.15 29.17C18.3232 28.004 18.9281 26.9456 19.845 26.2047C20.7619 25.4638 21.9236 25.0945 23.1 25.17H23.29C24.56 23.72 31.04 16.56 36.74 14.53C37.3056 14.3304 37.9003 14.2256 38.5 14.22C40.94 14.22 43.31 16.08 45.19 19.47C46.1123 20.8568 46.7146 22.4313 46.9533 24.0796C47.192 25.7279 47.0611 27.4086 46.57 29C46.3735 29.6634 46.313 30.3596 46.3921 31.0469C46.4711 31.7342 46.6881 32.3985 47.03 33V33.06V33.12C47.29 33.83 48.57 37.42 48.54 38.52C48.55 40.36 44.46 45.31 40.46 45.31Z" fill="#F28705"/>
<path d="M38.4701 14.9C41.0801 14.9 43.1901 17.29 44.5901 19.81C44.5901 19.81 47.5901 24 45.9601 28.81C45.7254 29.5667 45.6513 30.364 45.7426 31.1509C45.8338 31.9379 46.0884 32.6971 46.4901 33.38C46.4901 33.38 48.0001 37.53 48.0001 38.57C48.0001 39.86 44.3001 44.66 40.5101 44.66H40.0301C38.9472 44.4517 37.8513 44.3181 36.7501 44.26C36.1358 44.2637 35.5232 44.3239 34.9201 44.44C33.2801 38.17 31.3301 37.64 28.8001 37.44C27.7301 37.44 22.4301 42.95 20.3201 42.95C20.2157 42.9561 20.1112 42.9405 20.0132 42.9044C19.9151 42.8683 19.8255 42.8123 19.7501 42.74C18.9201 41.91 18.0901 33.88 18.8301 29.36C18.9652 28.3395 19.4886 27.4103 20.2914 26.7659C21.0941 26.1214 22.1144 25.8113 23.1401 25.9C23.4301 25.9 23.6101 25.9 23.6101 25.9C23.6101 25.9 30.8701 17.39 36.9901 15.21C37.4874 15.0316 38.0117 14.9403 38.5401 14.94L38.4701 14.9ZM38.5401 13.64C37.8573 13.6405 37.1801 13.7624 36.5401 14C30.9001 16 24.6401 22.68 23.0001 24.55C21.6845 24.4894 20.3934 24.9207 19.3785 25.76C18.3636 26.5993 17.6975 27.7864 17.5101 29.09C16.8701 33.04 17.3201 42.09 18.8001 43.6C18.996 43.7899 19.2278 43.9389 19.4819 44.0385C19.7359 44.1381 20.0072 44.1862 20.2801 44.18C21.8501 44.18 23.7901 42.7 26.5801 40.44C27.3189 39.8167 28.09 39.2325 28.8901 38.69C30.7301 38.87 32.2101 39.23 33.6501 44.75L33.9601 45.91L35.1401 45.69C35.6637 45.5858 36.1961 45.5322 36.7301 45.53C37.4015 45.5427 38.0706 45.613 38.7301 45.74C39.1001 45.8 39.4801 45.87 39.8901 45.92H40.5301C45.0401 45.92 49.2601 40.63 49.3101 38.57C49.3101 37.42 48.2501 34.25 47.7701 32.93L47.7201 32.8L47.6501 32.68C47.3549 32.1577 47.1675 31.5815 47.0988 30.9855C47.0301 30.3895 47.0815 29.7858 47.2501 29.21C47.7627 27.5176 47.895 25.7328 47.6374 23.9833C47.3798 22.2338 46.7387 20.5628 45.7601 19.09C43.7601 15.53 41.2101 13.57 38.5401 13.57V13.64Z" fill="#301905"/>
<path d="M36.7201 27.49C36.7201 27.49 36.2901 29.06 37.1201 29.81C37.9501 30.56 39.4001 30 39.4001 30C39.3976 29.6606 39.3263 29.3251 39.1905 29.014C39.0548 28.7029 38.8573 28.4226 38.6101 28.19C38.0878 27.7318 37.4148 27.4825 36.7201 27.49Z" fill="white"/>
<path d="M44 30.56C44.2879 30.8251 44.6287 31.0262 45 31.15C45.31 31.15 45.76 29.79 45.76 29.79C45.76 29.79 45.34 29.09 44.76 29.31C44.18 29.53 44 30.56 44 30.56Z" fill="white"/>
<path d="M41.33 12.57C41.33 12.57 46.58 17.41 46.73 18.7C46.84 19.64 46.78 25.7 44.26 25.7C42.61 25.7 41.46 21.77 38.66 22.04C36.42 22.25 33.19 26.04 32.81 26.88C30.81 31.31 31.15 32.71 31.21 34.68C31.21 35.75 31.43 37.89 31.95 41.86C32.76 47.94 27.33 48.73 27.33 48.73C27.33 48.73 21.49 49.24 20.83 47.66C20.4 46.66 18.2 50.06 16.56 40.61C14.92 31.16 30.93 4.79 41.33 12.57Z" fill="#301905"/>
<path d="M39.62 10.11C31.71 4.19 22.45 18.25 18.28 29.38C17.7999 31.3214 17.5019 33.3033 17.39 35.3C17.39 38.42 18.54 40.06 19.32 42.93C21.06 45.28 20.67 45.87 20.67 45.87C21.52 45.65 21.93 44.87 22.36 45.87C23.02 47.46 27.46 46.66 27.46 46.66C27.46 46.66 31.84 45.3 30.25 39.38C29.6885 37.1765 29.3535 34.9215 29.25 32.65C29.1262 29.7891 29.7609 26.9464 31.09 24.41C31.47 23.58 34.7 19.78 36.94 19.56C39.74 19.29 41.84 23.23 43.5 23.2C46 23.18 45.83 17 45.72 16.1C45.57 14.8 39.62 10.11 39.62 10.11Z" fill="#7F4E2D"/>
<path d="M39.5 10.26C38.4635 9.4328 37.1943 8.9503 35.87 8.88C34.5434 8.86987 33.2382 9.21516 32.09 9.88C29.8295 11.3133 27.8973 13.208 26.42 15.44C24.8996 17.6333 23.5617 19.9478 22.42 22.36C21.2382 24.7508 20.1965 27.2083 19.3 29.72L19.35 29.54C18.95 31.9 18.41 34.06 18.66 36.13C18.7875 37.1771 19.0531 38.2027 19.45 39.18C19.85 40.18 20.31 41.35 20.66 42.54L20.45 42.09C20.8138 42.576 21.1478 43.0836 21.45 43.61C21.629 43.9101 21.7829 44.2245 21.91 44.55C21.9897 44.7573 22.05 44.9716 22.09 45.19C22.1081 45.3395 22.1081 45.4905 22.09 45.64C22.0986 45.7465 22.0986 45.8535 22.09 45.96C22.0797 46.0346 22.063 46.1082 22.04 46.18C22.04 46.18 22.04 46.25 22.04 46.33C22.0016 46.4354 21.9512 46.536 21.89 46.63L20.3 44.47C20.4995 44.3823 20.6932 44.2821 20.88 44.17L21.08 44.07C21.1803 44.0278 21.284 43.9944 21.39 43.97C21.7358 43.8666 22.1043 43.8666 22.45 43.97C22.6318 44.0286 22.8013 44.1202 22.95 44.24C23.0716 44.3189 23.1796 44.4168 23.27 44.53C23.3983 44.673 23.5091 44.8308 23.6 45L23.69 45.18V45.27C23.6755 45.2389 23.6588 45.2088 23.64 45.18C23.58 45.12 23.64 45.18 23.64 45.18C23.7692 45.2304 23.9032 45.2673 24.04 45.29C24.5384 45.3471 25.0417 45.3471 25.54 45.29C26.0875 45.2571 26.6321 45.1869 27.17 45.08H26.98C26.98 45.08 27.26 44.94 27.4 44.85C27.562 44.7378 27.7157 44.6141 27.86 44.48C28.1343 44.2162 28.358 43.9044 28.52 43.56C28.8497 42.7843 28.9436 41.9287 28.79 41.1C28.7117 40.6124 28.5981 40.1311 28.45 39.66C28.27 39.04 28.12 38.43 27.99 37.83C27.73 36.62 27.54 35.42 27.4 34.19L27.3 33.25C27.3 32.94 27.3 32.44 27.3 32.25C27.3 31.69 27.3 31.05 27.3 30.38C27.3933 29.0471 27.6623 27.7324 28.1 26.47C28.3 25.85 28.53 25.26 28.77 24.69L29.15 23.84C29.2367 23.6451 29.3335 23.4548 29.44 23.27C29.5426 23.0844 29.6597 22.9072 29.79 22.74C30.5849 21.683 31.5011 20.7231 32.52 19.88C33.0402 19.439 33.5954 19.0411 34.18 18.69C34.8786 18.252 35.6569 17.9564 36.47 17.82C37.3763 17.7072 38.2959 17.8565 39.12 18.25C39.7773 18.5703 40.3865 18.9809 40.93 19.47C41.43 19.92 41.85 20.37 42.25 20.78C42.5831 21.1378 42.9406 21.4719 43.32 21.78C43.45 21.89 43.52 21.91 43.48 21.93C43.44 21.95 43.56 21.93 43.64 21.93C43.9497 21.7138 44.184 21.4061 44.31 21.05C44.709 20.0758 44.9617 19.0481 45.06 18C45.1229 17.4388 45.1563 16.8747 45.16 16.31C45.24 16.06 44.84 15.52 44.51 15.1C42.9858 13.3423 41.3092 11.7227 39.5 10.26ZM39.74 9.96C41.6352 11.37 43.4575 12.8752 45.2 14.47C45.41 14.69 45.62 14.91 45.83 15.16C45.9393 15.3002 46.0395 15.4471 46.13 15.6C46.2244 15.7916 46.2853 15.9979 46.31 16.21C46.4 16.83 46.44 17.42 46.47 18.03C46.5525 19.2903 46.4583 20.5559 46.19 21.79C46.0214 22.5853 45.6048 23.3066 45 23.85C44.5871 24.1946 44.0764 24.4009 43.54 24.44C43.0186 24.4628 42.5007 24.3453 42.04 24.1C41.4496 23.7873 40.8904 23.419 40.37 23C39.89 22.63 39.45 22.29 39.03 22C38.6647 21.7552 38.272 21.5539 37.86 21.4C37.6035 21.3153 37.3266 21.3153 37.07 21.4C36.745 21.5238 36.4388 21.692 36.16 21.9C35.765 22.183 35.3908 22.4937 35.04 22.83C34.3062 23.5392 33.6369 24.3123 33.04 25.14C32.9926 25.2039 32.9492 25.2707 32.91 25.34C32.91 25.25 32.91 25.45 32.82 25.56L32.51 26.32C32.3 26.83 32.12 27.32 31.95 27.83C31.6359 28.7842 31.428 29.7702 31.33 30.77C31.33 31.27 31.33 31.77 31.27 32.4C31.27 32.78 31.27 32.86 31.27 33.14L31.32 33.94C31.4 35.04 31.53 36.17 31.7 37.25C31.78 37.8 31.88 38.34 32 38.85C32.1649 39.5069 32.2786 40.1755 32.34 40.85C32.5034 42.3567 32.2255 43.8784 31.54 45.23C31.1398 45.9096 30.6177 46.5096 30 47C29.7025 47.2523 29.3848 47.4797 29.05 47.68C28.6846 47.8973 28.2954 48.0718 27.89 48.2H27.79H27.7C27.0082 48.3054 26.3098 48.3622 25.61 48.37C24.8623 48.395 24.1141 48.3346 23.38 48.19C22.9033 48.0909 22.4469 47.9117 22.03 47.66C21.7503 47.4802 21.5006 47.2575 21.29 47C21.176 46.8476 21.0788 46.6833 21 46.51V46.45C21 46.45 21 46.6 21.52 46.83C21.7165 46.8831 21.9236 46.8831 22.12 46.83H22.2C21.8416 47.0274 21.4627 47.185 21.07 47.3L19.49 45.12C19.4362 45.1974 19.3925 45.2814 19.36 45.37V45.46V45.58C19.36 45.66 19.36 45.67 19.36 45.7C19.3676 45.6469 19.3676 45.5931 19.36 45.54C19.2617 45.3465 19.1409 45.1652 19 45C18.7681 44.5686 18.511 44.1512 18.23 43.75L18.06 43.51L18 43.29C17.75 42.29 17.38 41.2 17 40.06C16.581 38.8627 16.3221 37.6152 16.23 36.35C16.1673 35.097 16.2579 33.841 16.5 32.61C16.72 31.41 17.02 30.29 17.24 29.19V29.08V29.01C18.2519 26.4482 19.4519 23.9648 20.83 21.58C22.2049 19.199 23.7913 16.9465 25.57 14.85C27.3113 12.7051 29.4377 10.9043 31.84 9.54C33.0659 8.87017 34.4431 8.52587 35.84 8.54C37.26 8.61014 38.6231 9.12039 39.74 10V9.96Z" fill="#301905"/>
<path d="M34 17.67C34 17.67 31.63 14.67 30.18 14.67C27.98 14.67 28.51 20.87 28.51 20.87C28.51 20.87 30.82 23.45 34 17.67Z" fill="#301905"/>
<path d="M34.42 17.32C34.42 17.32 32 14.7 30.69 14.63C29.38 14.56 29.62 20.12 29.62 20.12C29.62 20.12 31.5 22.71 34.42 17.32Z" fill="#F28705"/>
<path d="M47.71 39C47.71 39 43.87 39.33 41.82 38.31C41.82 38.31 42.4 40.8 43.82 41.25C45.24 41.7 47.71 39 47.71 39Z" fill="#301905"/>
<path d="M83.32 42.81L81.32 27.41L69.32 28.11L73.2 42.73C76.28 42.79 80.08 45.08 82.2 46.57C82.6414 45.338 83.0153 44.0828 83.32 42.81Z" fill="#301905"/>
<path d="M82.18 44.66C79.78 43.08 76.65 41.39 73.89 41.15L70.4 27.76L81 27.14L82.9 41.88C82.68 42.81 82.45 43.75 82.18 44.66Z" fill="#F28705"/>
<path d="M80.39 27.82L82.21 41.82C82.09 42.41 81.95 43.01 81.79 43.6C79.5617 42.0884 77.0518 41.041 74.41 40.52L71.22 28.35L80.39 27.82ZM81.52 26.46L69.52 27.16L73.34 41.77C76.47 41.84 80.34 44.2 82.5 45.69C82.9003 44.4453 83.2341 43.1802 83.5 41.9L81.5 26.46H81.52Z" fill="#301905"/>
<path d="M69.41 28.08C69.41 28.08 71.08 23.48 67.12 22.64C67.12 22.64 65.58 23.33 64.96 28.07C64.34 32.81 69.41 28.08 69.41 28.08Z" fill="#301905"/>
<path d="M65.21 30.53C65.0362 30.535 64.8632 30.5029 64.7028 30.4356C64.5424 30.3683 64.3983 30.2675 64.28 30.14C64.0569 29.8224 63.901 29.4625 63.8219 29.0825C63.7428 28.7025 63.7421 28.3103 63.82 27.93C64.18 23.18 66.24 22.61 66.47 22.56H66.73L66.95 22.7C69.85 24.51 69.34 27.06 68.66 28.16C68.18 28.71 66.54 30.5 65.27 30.5L65.21 30.53Z" fill="#F28705"/>
<path d="M66.61 23.2C69.73 25.14 68.11 27.77 68.11 27.77C68.11 27.77 66.28 29.89 65.21 29.89C64.7 29.89 64.36 29.41 64.47 27.98C64.8 23.58 66.61 23.2 66.61 23.2ZM66.85 21.83L66.34 21.93C65.88 22.03 63.57 22.77 63.18 27.93C63.1016 28.3955 63.116 28.872 63.2224 29.3319C63.3288 29.7919 63.5251 30.2262 63.8 30.61C63.9793 30.8047 64.1974 30.9596 64.4403 31.0647C64.6832 31.1698 64.9454 31.2227 65.21 31.22C66.71 31.22 68.42 29.42 69.09 28.65L69.15 28.57L69.21 28.49C69.85 27.49 70.75 24.3 67.29 22.14L66.85 21.87V21.83Z" fill="#301905"/>
<path d="M74.44 35.78C74.44 35.78 69.82 27.07 66.44 27.96C63.06 28.85 59.08 32.7 57.81 36.53C57.33 38 54.81 40.33 54.81 40.33C54.1348 41.5052 53.8494 42.8642 53.995 44.2118C54.1405 45.5593 54.7094 46.8261 55.62 47.83C55.62 47.83 57.36 52.24 64.35 50.66C64.35 50.66 66.87 46.86 69.35 46.28C78.49 44.09 76.2 38.66 76.2 38.66L74.44 35.78Z" fill="#301905"/>
<path d="M74 27.28C74 27.28 69.21 25.28 66 26.28C62.79 27.28 58.9 31.28 57.8 35.05C57.38 36.51 55 38.9 55 38.9C54.3818 40.0777 54.1561 41.4221 54.3558 42.7371C54.5554 44.0521 55.1701 45.2689 56.11 46.21C56.11 46.21 57.5 50.61 64.35 48.76C64.35 48.76 66.7 45.33 69.1 44.69C78.71 42.1 75.47 36.28 75.47 36.28" fill="#F28705"/>
<path d="M74 27.28C72.0132 26.5786 69.9166 26.2399 67.81 26.28C65.7632 26.5067 63.8583 27.4361 62.42 28.91C60.9053 30.2986 59.6816 31.9744 58.82 33.84C58.6172 34.302 58.4435 34.7763 58.3 35.26C58.1076 35.8199 57.8348 36.3487 57.49 36.83C56.8676 37.732 56.1683 38.5785 55.4 39.36L55.49 39.25C55.2365 39.7726 55.0709 40.3335 55 40.91C54.905 41.4928 54.905 42.0872 55 42.67C55.1022 43.2529 55.2945 43.8163 55.57 44.34C55.8445 44.8706 56.1801 45.3674 56.57 45.82L56.65 45.92V46.06C56.9041 46.6747 57.3143 47.2125 57.84 47.62C58.4009 48.0392 59.0455 48.3325 59.73 48.48C60.4424 48.6341 61.1728 48.6879 61.9 48.64L63.02 48.5L64.13 48.26L63.82 48.48C64.7557 47.1576 65.9167 46.0101 67.25 45.09C67.6001 44.858 67.9718 44.6604 68.36 44.5C68.78 44.35 69.16 44.25 69.51 44.15L70.61 43.82L71.61 43.41C73.0197 42.874 74.2381 41.9306 75.11 40.7C75.4936 40.041 75.7154 39.3003 75.7571 38.5389C75.7989 37.7775 75.6593 37.017 75.35 36.32C75.7443 37.0152 75.9607 37.7972 75.9799 38.5962C75.9991 39.3952 75.8205 40.1866 75.46 40.9C74.664 42.2856 73.454 43.3871 72 44.05L70.91 44.54L69.79 44.93C69.4 45.06 69.04 45.18 68.74 45.31C68.4128 45.4626 68.1013 45.6468 67.81 45.86C66.6465 46.7801 65.6342 47.8767 64.81 49.11L64.68 49.29L64.5 49.34L63.3 49.62C62.89 49.7 62.48 49.75 62.07 49.81C61.2214 49.8863 60.3664 49.8426 59.53 49.68C58.6628 49.5026 57.8463 49.1336 57.14 48.6C56.4048 48.0448 55.8372 47.2973 55.5 46.44L55.64 46.67C55.1598 46.1416 54.7497 45.5534 54.42 44.92C54.0823 44.2786 53.8526 43.586 53.74 42.87C53.6149 42.1521 53.6149 41.4179 53.74 40.7C53.8591 39.9705 54.1026 39.267 54.46 38.62L54.52 38.55C55.2432 37.8237 55.9117 37.0449 56.52 36.22C56.8017 35.8449 57.0337 35.4348 57.21 35C57.3743 34.4669 57.5747 33.9457 57.81 33.44C58.7874 31.4691 60.1711 29.7276 61.87 28.33C62.703 27.6185 63.6238 27.017 64.61 26.54C65.6062 26.0443 66.7076 25.7973 67.82 25.82C69.9562 25.8942 72.0565 26.3904 74 27.28Z" fill="#301905"/>
<path d="M76.86 33C76.86 33 78.25 27.39 75.21 26C75.21 26 72.54 25.14 71.67 30.09C71.39 31.67 74.16 33.09 75.38 33.5C75.91 33.65 76.86 33 76.86 33Z" fill="#301905"/>
<path d="M75.12 33.5C75.12 33.5 77.04 28.75 74.12 26.5C74.12 26.5 72.19 26.65 71.44 31C71.21 32.5 75.12 33.5 75.12 33.5Z" fill="#F28705"/>
<path d="M59.1 41.88C58.2567 41.9527 57.4079 41.9292 56.57 41.81C56.0173 41.7306 55.4846 41.5473 55 41.27C55 41.27 55.4 43.46 56.39 43.85C57.38 44.24 59.1 41.88 59.1 41.88Z" fill="#301905"/>
<path d="M63.69 37.35C64.0241 37.5277 64.3947 37.6255 64.773 37.6359C65.1512 37.6463 65.5267 37.569 65.87 37.41C66.1436 37.1596 66.3535 36.8475 66.4822 36.4996C66.611 36.1518 66.6548 35.7782 66.61 35.41C65.9802 35.2964 65.3309 35.4327 64.8 35.79C64.2576 36.1628 63.8644 36.7153 63.69 37.35Z" fill="white"/>
<path d="M58.33 34.9C58.33 34.9 58.09 35.83 58.22 36.02C58.35 36.21 59.22 36.28 59.22 36.28C59.3119 36.1077 59.36 35.9153 59.36 35.72C59.36 35.5247 59.3119 35.3323 59.22 35.16C59.1813 35.0819 59.1269 35.0127 59.0601 34.9567C58.9933 34.9007 58.9157 34.8592 58.832 34.8347C58.7484 34.8103 58.6606 34.8035 58.5742 34.8147C58.4878 34.826 58.4046 34.855 58.33 34.9Z" fill="white"/>
<path d="M64.33 44.93C63.8087 45.3241 63.2608 45.6817 62.69 46C62.0922 46.4016 61.4059 46.6521 60.69 46.73C60.0163 46.7032 59.3467 46.6128 58.69 46.46C58.04 46.32 57.41 46.15 56.77 45.97L56.49 45.89L56.37 45.52C56.2789 45.2703 56.2119 45.0125 56.17 44.75C56.1236 44.4823 56.0969 44.2116 56.09 43.94V43.22L56.64 43.28C56.7032 43.2743 56.7668 43.2743 56.83 43.28L57.3 43.39V43.68C57.3755 44.1772 57.3755 44.6828 57.3 45.18C57.2812 45.4766 57.177 45.7613 57 46C56.9423 46.0585 56.871 46.1019 56.7926 46.1263C56.7141 46.1508 56.6308 46.1555 56.55 46.14C56.4255 46.1159 56.3068 46.0684 56.2 46C56.45 46 56.67 46 56.68 45.84C56.7197 45.6521 56.7197 45.4579 56.68 45.27C56.5978 44.8389 56.4842 44.4145 56.34 44L56.84 44.4C56.7771 44.4104 56.7129 44.4104 56.65 44.4L57.19 43.74C57.2973 43.9883 57.381 44.2461 57.44 44.51C57.5003 44.7699 57.5404 45.034 57.56 45.3L57.16 44.85C57.75 45.07 58.37 45.26 58.97 45.46C59.5563 45.6537 60.1542 45.8107 60.76 45.93C61.3568 45.9235 61.9471 45.8047 62.5 45.58C63.1 45.38 63.72 45.16 64.33 44.93Z" fill="#301905"/>
<path d="M36.7001 38.88C36.8754 39.6032 37.1951 40.2835 37.6401 40.88C38.0398 41.4466 38.5629 41.915 39.1701 42.25C39.8156 42.4783 40.4877 42.6229 41.1701 42.68L43.4001 42.95L42.8401 43.32C43.0424 42.8822 43.2729 42.458 43.5301 42.05C43.7827 41.6211 44.0739 41.2161 44.4001 40.84C44.3863 41.3363 44.3362 41.831 44.2501 42.32C44.1567 42.8 44.0467 43.27 43.9201 43.73L43.8101 44.09H43.3501C42.5656 44.1193 41.78 44.0892 41.0001 44C40.1552 43.9112 39.3362 43.6563 38.5901 43.25C37.8814 42.7473 37.3301 42.0537 37.0001 41.25C36.661 40.509 36.5563 39.6821 36.7001 38.88Z" fill="#301905"/>
<path d="M50 65C42.1271 65 34.5766 61.8725 29.0096 56.3055C23.4425 50.7384 20.315 43.188 20.315 35.315C20.315 27.442 23.4425 19.8916 29.0096 14.3245C34.5766 8.75752 42.1271 5.63 50 5.63V1.14C40.9402 1.14 32.2515 4.73899 25.8453 11.1452C19.439 17.5515 15.84 26.2402 15.84 35.3C15.84 44.3598 19.439 53.0485 25.8453 59.4548C32.2515 65.861 40.9402 69.46 50 69.46V65Z" fill="#843C0B"/>
<path d="M50 5.63C57.873 5.63 65.4234 8.75752 70.9905 14.3245C76.5575 19.8916 79.685 27.442 79.685 35.315C79.685 43.188 76.5575 50.7384 70.9905 56.3055C65.4234 61.8725 57.873 65 50 65V69.49C59.0638 69.49 67.7563 65.8894 74.1654 59.4804C80.5744 53.0713 84.175 44.3788 84.175 35.315C84.175 26.2512 80.5744 17.5587 74.1654 11.1496C67.7563 4.74057 59.0638 1.14 50 1.14V5.63Z" fill="#301905"/>
<path d="M50 73.4C44.8622 73.4032 39.7771 72.3644 35.0522 70.3466C30.3272 68.3287 26.0605 65.3736 22.51 61.66C33.49 80.17 50 98.86 50 98.86C50 98.86 66.51 80.17 77.49 61.66C73.9395 65.3736 69.6728 68.3287 64.9479 70.3466C60.2229 72.3644 55.1378 73.4032 50 73.4Z" fill="#301905"/>
<path d="M50 73.4C44.8622 73.4032 39.7771 72.3644 35.0522 70.3466C30.3272 68.3287 26.0605 65.3736 22.51 61.66C33.49 80.17 50 98.86 50 98.86V73.4Z" fill="#843C0B"/>
</svg>
