<svg width="50" height="50" viewBox="0 0 57 58" fill="none" xmlns="http://www.w3.org/2000/svg">
<path d="M12.1735 15.8274H6.28564V36.2922H12.1735V15.8274Z" fill="#7F4E2D"/>
<path d="M50.2853 15.8274H44.3975V36.2922H50.2853V15.8274Z" fill="#7F4E2D"/>
<path d="M6.28564 25.7405C7.31999 25.7405 8.51347 25.6605 9.38869 25.6605C10.1048 25.6605 11.2187 25.5806 12.1735 25.5806V17.1868L6.28564 16.0676V25.7405Z" fill="#431714"/>
<path d="M50.285 16.1472L44.3972 17.2664V25.7401C45.2724 25.9 46.3068 25.9799 47.3411 26.0599C48.3755 26.1398 49.3303 26.1398 50.285 26.1398V16.1472Z" fill="#431714"/>
<path d="M52.513 53.7997H4.21696C1.90957 53.7997 0 51.8811 0 49.5628V36.9322C0 34.6139 1.90957 32.6953 4.21696 32.6953H52.513C54.8204 32.6953 56.73 34.6139 56.73 36.9322V49.5628C56.6504 51.8811 54.8204 53.7997 52.513 53.7997Z" fill="#593B02"/>
<path d="M11.8552 -0.000976562H5.49L0 19.9842L1.90957 23.022C2.78478 24.381 4.93304 24.381 5.80826 23.022L7.79739 19.9842L11.8552 -0.000976562Z" fill="#593B02"/>
<path d="M18.2203 -0.000976562L15.9924 19.9842L18.0611 23.022L18.2203 23.2618C19.0955 24.5408 21.1642 24.5408 22.0394 23.2618L22.1985 23.022L24.2672 19.9842L24.5059 -0.000976562H18.2203Z" fill="#593B02"/>
<path d="M11.8553 -0.000976562L7.79749 19.9842L9.86618 23.022L10.0253 23.2618C10.9005 24.5408 12.9692 24.5408 13.8444 23.2618L14.0036 23.022L16.0723 19.9842L18.3001 -0.000976562H11.8553Z" fill="#F9BF4B"/>
<path d="M43.4425 -0.000976562H36.5999L40.7372 19.9842L42.8059 23.022L42.9651 23.2618C43.8403 24.5408 45.909 24.5408 46.7842 23.2618L46.9433 23.022L49.012 19.9842L43.4425 -0.000976562Z" fill="#F9BF4B"/>
<path d="M30.4735 -0.000976562H24.4266L24.1879 19.9842L26.2566 23.022L26.4157 23.2618C27.2909 24.5408 29.3596 24.5408 30.2348 23.2618L30.394 23.022L32.4626 19.9842L30.4735 -0.000976562Z" fill="#F9BF4B"/>
<path d="M36.6004 -0.000976562H30.4739L32.463 19.9842L34.5317 23.022L34.6908 23.2618C35.566 24.5408 37.6347 24.5408 38.51 23.2618L38.6691 23.022L40.7378 19.9842L36.6004 -0.000976562Z" fill="#593B02"/>
<path d="M50.3646 -0.000976562H43.4424L48.9324 19.9842L50.842 23.022C51.7172 24.381 53.8654 24.381 54.7406 23.022L56.6502 19.9842L50.3646 -0.000976562Z" fill="#593B02"/>
<path d="M52.513 57.3172H4.21696C1.90957 57.3172 0 55.3986 0 53.0803V40.5296C0 38.2113 1.90957 36.2927 4.21696 36.2927H52.513C54.8204 36.2927 56.73 38.2113 56.73 40.5296V53.1602C56.6504 55.4785 54.8204 57.3172 52.513 57.3172Z" fill="#F9BF4B"/>
<path d="M32.7012 53.3994C31.0304 54.9983 31.1099 52.9997 28.4047 52.9997C25.6995 52.9997 26.1769 55.1581 24.4265 53.3994C22.9147 51.8806 24.8243 47.1641 28.4047 47.1641C31.9851 47.1641 34.2925 51.9605 32.7012 53.3994Z" fill="white"/>
<path d="M34.7861 45.6829C35.2044 44.1959 34.8922 42.8055 34.0888 42.5773C33.2854 42.3491 32.2949 43.3696 31.8766 44.8566C31.4583 46.3436 31.7705 47.734 32.5739 47.9622C33.3773 48.1904 34.3678 47.1699 34.7861 45.6829Z" fill="white"/>
<path d="M31.7658 42.1939C31.9129 40.6113 31.3937 39.2685 30.6062 39.1946C29.8186 39.1207 29.0609 40.3437 28.9138 41.9263C28.7667 43.5088 29.2859 44.8517 30.0735 44.9255C30.861 44.9994 31.6187 43.7764 31.7658 42.1939Z" fill="white"/>
<path d="M24.1518 48.0931C24.9552 47.8649 25.2674 46.4745 24.8491 44.9875C24.4307 43.5005 23.4403 42.48 22.6369 42.7082C21.8334 42.9364 21.5213 44.3268 21.9396 45.8138C22.3579 47.3008 23.3484 48.3213 24.1518 48.0931Z" fill="white"/>
<path d="M26.6032 44.9951C27.3908 44.9212 27.91 43.5784 27.7629 41.9958C27.6158 40.4133 26.8581 39.1903 26.0705 39.2641C25.283 39.338 24.7638 40.6809 24.9109 42.2634C25.058 43.846 25.8157 45.069 26.6032 44.9951Z" fill="white"/>
<path d="M22.2781 43.1669C22.2781 43.1669 21.8803 41.5681 22.119 40.2891C22.119 40.2891 22.5964 42.6873 22.8351 42.9271C23.1533 43.1669 22.2781 43.1669 22.2781 43.1669Z" fill="white"/>
<path d="M25.7795 39.7302C25.7795 39.7302 25.3816 38.1313 25.6203 36.8523C25.6203 36.8523 26.0977 39.2505 26.3364 39.4903C26.5751 39.7302 25.7795 39.7302 25.7795 39.7302Z" fill="white"/>
<path d="M30.871 39.7302C30.871 39.7302 31.2688 38.1313 31.0302 36.8523C31.0302 36.8523 30.5528 39.2505 30.3141 39.4903C29.9958 39.7302 30.871 39.7302 30.871 39.7302Z" fill="white"/>
<path d="M34.3722 43.0075C34.3722 43.0075 34.7701 41.4087 34.5314 40.1296C34.5314 40.1296 34.054 42.5279 33.8153 42.7677C33.497 43.0075 34.3722 43.0075 34.3722 43.0075Z" fill="white"/>
</svg>
