<svg width="80" height="80" viewBox="0 0 96 97" fill="none" xmlns="http://www.w3.org/2000/svg">
<path d="M94.5 48.498C94.5 74.4689 73.6667 95.496 48 95.496C22.3333 95.496 1.5 74.4689 1.5 48.498C1.5 22.5271 22.3333 1.5 48 1.5C73.6667 1.5 94.5 22.5271 94.5 48.498Z" fill="white" stroke="black" stroke-width="3"/>
<path d="M64.75 40.0833V29.25C64.75 20.2773 57.4727 13 48.5 13C39.5273 13 32.25 20.2773 32.25 29.25V40.0833H24.125V78H72.875V40.0833H64.75ZM51.2083 60.9998V67.1667H45.7917V60.9998C44.1802 60.06 43.0833 58.3348 43.0833 56.3333C43.0833 53.3433 45.51 50.9167 48.5 50.9167C51.49 50.9167 53.9167 53.3433 53.9167 56.3333C53.9167 58.3321 52.8225 60.06 51.2083 60.9998ZM37.6667 40.0833V29.25C37.6667 23.2754 42.5254 18.4167 48.5 18.4167C54.4719 18.4167 59.3333 23.2754 59.3333 29.25V40.0833H37.6667Z" fill="#666666"/>
</svg>
