<svg width="100" height="65" viewBox="0 0 118 72" fill="none" xmlns="http://www.w3.org/2000/svg">
<path d="M20.7924 60.5227L23.1763 51.5171L18.2762 56.1524L5.42992 34.1681L6.88671 32.0491L4.63531 32.5788L0.794678 26.0895L1.05955 25.6922C7.94619 17.3488 15.7599 12.0513 24.3682 10.3297C26.4872 9.93237 28.6061 9.6675 30.7251 9.6675C33.6387 9.6675 36.2874 10.0648 38.9361 10.4621C40.5253 10.727 42.1145 10.9919 43.8362 11.1243C45.5579 11.2567 47.2795 11.3892 49.0012 11.3892C59.9933 11.3892 71.7801 7.94584 83.9642 1.19163L84.4939 0.926758L92.3076 10.9919L86.4804 16.2893L95.3536 14.5676L117.47 42.7764L116.941 43.1737C103.035 54.828 90.3211 60.7876 78.9316 60.7876C76.9451 60.7876 74.9585 60.6552 72.972 60.2579C69.1314 59.4632 65.8205 58.1389 62.7745 56.8145C58.8014 55.0929 55.0932 53.5036 50.7229 53.5036C49.6634 53.5036 48.6039 53.6361 47.5444 53.7685C39.9956 54.9604 33.2414 60.2579 27.1493 69.5283L26.4872 70.4554L20.7924 60.5227Z" fill="#F8D46F"/>
<path d="M84.3614 1.72166C85.2884 2.91358 88.0696 6.48934 91.5129 10.8597L84.3614 17.2166L94.9562 15.3625C99.1942 20.6599 103.829 26.6195 107.802 31.6521L103.565 35.3603L108.465 32.3143C112.57 37.4792 115.749 41.5847 116.543 42.5118C100.121 56.4175 87.8047 60.1257 78.9315 60.1257C76.8126 60.1257 74.826 59.8608 73.1044 59.596C64.3636 57.8743 58.8013 52.8418 50.7228 52.8418C49.6633 52.8418 48.6038 52.9742 47.4119 53.1066C37.4792 54.6958 30.5926 62.9068 26.4871 69.1313C26.0898 68.3367 24.1033 64.8934 21.4545 60.3906C22.7789 55.358 24.3681 49.3984 24.3681 49.3984L18.4085 55.2256C14.303 48.2065 9.66779 40.1279 6.22447 34.1684L8.34343 30.9899L4.90011 31.9169C3.04602 28.7385 1.8541 26.6195 1.58923 26.2222C6.22447 20.5275 13.7733 13.2435 24.5006 10.9921C26.752 10.4624 28.7385 10.33 30.725 10.33C35.2278 10.33 39.2009 11.3894 43.8361 11.7868C45.4254 11.9192 47.2795 12.0516 49.1336 12.0516C57.8743 12.0516 69.6611 9.80022 84.3614 1.72166ZM84.6263 0L83.6992 0.529742C71.5152 7.28395 59.8608 10.7273 49.0011 10.7273C47.2795 10.7273 45.5578 10.5948 43.8361 10.4624C42.1145 10.33 40.5253 10.0651 39.0685 9.80022C36.2873 9.40292 33.6386 9.00561 30.725 9.00561C28.4736 9.00561 26.3547 9.27048 24.2357 9.66779C15.4949 11.5219 7.54882 16.8193 0.529742 25.4276L0 26.0898L0.397306 26.8844L3.70819 32.5791L4.23794 33.5062L5.16498 33.2413L5.29742 33.1089L5.16498 33.3737L4.63524 34.0359L5.03255 34.6981L9.53535 42.3793L17.2166 55.6229L18.0112 57.0797L19.2031 55.8878L21.7194 53.5039C21.1897 55.4905 20.6599 57.7419 19.9978 59.8608L19.8653 60.3906L20.1302 60.9203L25.1627 69.661L26.2222 71.5152L27.4141 69.661C33.3737 60.523 40.1279 55.358 47.4119 54.1661C48.4714 54.0337 49.3984 53.9012 50.4579 53.9012C54.6958 53.9012 58.404 55.4905 62.2447 57.0797C65.4231 58.404 68.6016 59.8608 72.5746 60.523C74.5612 60.9203 76.5477 61.0527 78.6667 61.0527C90.1886 61.0527 103.035 55.0932 117.073 43.3064L118 42.5118L117.205 41.4523L115.881 39.7306L109.524 31.6521L108.73 30.725L96.0157 14.5679L95.486 13.9057L94.6914 14.0382L88.7318 15.0976L92.44 11.7868L93.367 10.9921L92.5724 10.0651L87.4074 3.57576L85.2884 0.927048L84.6263 0Z" fill="#7F4E2D"/>
<path d="M21.9844 34.8308C22.1168 33.9038 22.3817 32.9767 22.6466 32.1821" stroke="#7F4E2D" stroke-width="1.4593" stroke-miterlimit="10"/>
<path d="M25.1628 27.017C27.2818 24.1035 30.1954 22.2494 33.3738 21.9845C36.8172 21.7196 41.32 23.4413 42.9092 27.1495C45.1606 32.4469 39.4659 37.2146 41.32 40.9228C44.366 46.8824 63.4367 43.439 63.9664 38.5389C64.3637 35.228 55.623 32.5793 56.2852 27.9441C56.55 25.5603 59.1988 24.1035 60.3907 23.5737C67.2773 19.8655 75.3559 26.2224 76.0181 26.6197C76.9451 27.2819 77.6073 28.0765 78.2695 28.7387" stroke="#7F4E2D" stroke-width="1.4593" stroke-miterlimit="10" stroke-dasharray="4.36 4.36"/>
<path d="M79.9907 30.8579C80.5205 31.6525 81.0502 32.4471 81.4475 33.2418" stroke="#7F4E2D" stroke-width="1.4593" stroke-miterlimit="10"/>
<path d="M88.7319 41.3204C87.0102 38.8041 82.9047 39.7311 82.6399 41.5852C82.1101 43.5718 83.4345 42.2474 84.7588 44.1015C86.0832 45.9556 84.6264 46.8826 86.4805 47.28C88.2022 47.6773 90.4536 43.7042 88.7319 41.3204Z" fill="#7F4E2D"/>
<path d="M89.1294 37.0821C89.7916 36.42 89.924 35.6254 89.6591 35.2281C90.0564 34.8307 90.9835 34.0361 90.9835 34.0361C90.3213 34.301 89.6591 34.8307 89.3943 34.9632C88.8645 34.8307 87.9375 35.2281 87.2753 36.0227C86.6131 36.8173 86.3483 37.7443 86.878 38.1416C87.4077 38.4065 88.4672 37.8768 89.1294 37.0821Z" fill="#7F4E2D"/>
<path d="M94.1618 37.6117C94.5591 37.2144 95.6186 36.5522 95.6186 36.5522C94.9564 36.6847 94.1618 37.082 93.8969 37.3469C93.4996 37.082 92.5726 37.2144 91.6455 37.6117C90.586 38.1415 90.0563 38.9361 90.3212 39.4658C90.586 39.9956 91.778 39.8631 92.705 39.3334C93.7645 38.8036 94.2942 38.1415 94.1618 37.6117Z" fill="#7F4E2D"/>
<path d="M96.2806 41.1875C96.0158 40.7902 95.0887 40.5253 94.1617 40.7902C93.1022 41.0551 92.1751 41.7173 92.3076 42.3794C92.44 42.9092 93.3671 43.1741 94.559 42.9092C95.486 42.6443 96.2806 42.1146 96.4131 41.5848C96.8104 41.4524 97.605 41.32 98.1347 40.9226C98.0023 40.9226 96.8104 41.1875 96.2806 41.1875Z" fill="#7F4E2D"/>
<path d="M95.8835 45.9554C95.7511 45.4257 95.0889 45.0284 94.1618 45.0284C93.1024 44.896 92.0429 45.4257 91.9104 45.9554C91.778 46.4852 92.5726 47.1474 93.6321 47.1474C94.6916 47.2798 95.6186 46.8825 95.8835 46.3527C96.2808 46.3527 97.0754 46.2203 97.7376 45.823C97.7376 45.9554 96.4132 45.9554 95.8835 45.9554Z" fill="#7F4E2D"/>
<path d="M91.5136 16.0249L90.4541 16.1573L104.757 34.301L105.552 33.6388L91.5136 16.0249Z" fill="#9E7128"/>
<path d="M105.022 34.5658L111.379 42.6443C99.1949 53.3716 87.5406 58.4042 76.5484 57.4771C71.251 57.0798 66.8806 55.3581 62.6427 53.6365C57.0804 51.3851 51.6505 49.2661 44.8963 50.8553C38.2746 52.3121 32.315 56.9474 27.2824 64.3637L22.5147 56.4176C22.3823 56.8149 22.2499 57.3447 22.1174 57.742L27.2824 66.2178L27.6797 65.5557C32.7123 57.8744 38.6719 53.3716 45.1612 51.7824C51.6505 50.3256 56.8155 52.4446 62.2454 54.5635C66.4833 56.2852 70.8537 58.0068 76.416 58.5366C87.8054 59.4636 99.8571 54.2986 112.306 43.1741L112.703 42.9092L105.817 34.1685L105.022 34.5658Z" fill="#9E7128"/>
<path d="M7.41667 31.2547L4.90039 27.0168C11.1249 19.8653 18.0115 15.4949 25.5603 13.9057C31.1226 12.7137 35.6254 13.5084 39.8634 14.1705C41.0553 14.303 42.1148 14.5678 43.3067 14.7003C55.4907 16.2895 68.7343 13.5084 82.7724 6.62172L88.3347 13.6408L89.1294 12.9786L83.0373 5.29736L82.64 5.4298C68.6019 12.3164 55.3583 15.0976 43.3067 13.5084C42.1148 13.3759 41.0553 13.2435 39.8634 12.9786C35.493 12.3164 30.9902 11.5218 25.163 12.7138C17.2169 14.303 10.0654 18.9382 3.70847 26.487L3.4436 26.7519L6.22475 31.3872L7.41667 31.2547Z" fill="#9E7128"/>
<path d="M19.8652 53.7688L20.5273 53.1067L7.81354 31.917L7.15137 32.844L19.8652 53.7688Z" fill="#9E7128"/>
</svg>
