<svg width="74" height="59" viewBox="0 0 74 59" fill="none" xmlns="http://www.w3.org/2000/svg">
<path d="M47.7997 28.4701C55.6615 28.4701 62.0348 22.0968 62.0348 14.235C62.0348 6.37324 55.6615 0 47.7997 0C39.9379 0 33.5647 6.37324 33.5647 14.235C33.5647 22.0968 39.9379 28.4701 47.7997 28.4701Z" fill="url(#paint0_linear)"/>
<path d="M47.7997 27.2713C54.9995 27.2713 60.836 21.4348 60.836 14.235C60.836 7.03528 54.9995 1.19873 47.7997 1.19873C40.6 1.19873 34.7634 7.03528 34.7634 14.235C34.7634 21.4348 40.6 27.2713 47.7997 27.2713Z" fill="url(#paint1_linear)"/>
<path d="M47.7997 26.2224C54.4202 26.2224 59.7871 20.8555 59.7871 14.235C59.7871 7.61457 54.4202 2.24763 47.7997 2.24763C41.1793 2.24763 35.8123 7.61457 35.8123 14.235C35.8123 20.8555 41.1793 26.2224 47.7997 26.2224Z" fill="#FFD45A"/>
<path d="M52.2201 9.58991C49.5978 8.61593 47.7997 11.8375 47.7997 11.8375C47.7997 11.8375 46.0765 8.61593 43.3794 9.58991C41.806 10.1893 41.2067 12.1372 41.2067 13.261C41.2067 16.7074 45.627 19.7043 47.2004 20.6033C47.575 20.8281 47.9496 20.8281 48.3242 20.6033C49.8975 19.7043 54.3179 16.7074 54.3179 13.261C54.3928 12.1372 53.7934 10.1144 52.2201 9.58991Z" fill="url(#paint2_linear)"/>
<path d="M51.7705 10.1144C49.373 9.2153 47.7997 12.4369 47.7997 12.4369C47.7997 12.4369 46.2263 9.2153 43.8289 10.1144C42.4054 10.6388 41.8809 12.4369 41.8809 13.4109C41.8809 16.5576 45.8517 19.1798 47.2752 20.004C47.5749 20.1538 47.9495 20.1538 48.2492 20.004C49.6727 19.1798 53.6435 16.5576 53.6435 13.4109C53.7185 12.4369 53.194 10.6388 51.7705 10.1144Z" fill="url(#paint3_linear)"/>
<path d="M62.9338 39.933C62.9338 39.933 72.0742 40.6073 73.9472 31.1672C73.9472 31.1672 75.2958 40.1578 64.3573 43.3045" fill="#A35F31"/>
<path d="M58.8132 40.1578C58.8132 40.1578 67.8786 40.6822 69.0774 31.0923C69.0774 31.0923 71.5498 39.7083 60.836 43.6042" fill="#A35F31"/>
<path d="M19.929 36.8612C19.929 36.8612 25.9976 28.9196 42.8549 36.0371Z" fill="#A35F31"/>
<path d="M62.6341 39.7832C55.3668 33.4149 48.3242 37.7603 48.3242 37.7603Z" fill="#A35F31"/>
<path d="M3.8959 58.7382C3.8959 58.7382 11.4629 47.4251 30.6428 50.5718C49.8226 53.7185 67.1294 47.2004 68.478 40.907C69.3021 36.9362 60.9109 39.6333 55.9661 38.8092C52.5198 38.2098 49.1483 37.4606 45.7769 36.6365C23.3005 31.1672 0 43.2295 0 43.2295" fill="#F9BF4C"/>
<path d="M53.8683 37.9101C53.8683 37.9101 62.7091 41.8809 66.2303 31.392C66.2303 31.392 66.0805 42.0308 54.6925 43.0048" fill="#A35F31"/>
<path d="M3.14669 55.4417C3.14669 55.4417 12.8864 43.0797 29.3691 45.7769C45.8518 48.4741 59.862 45.4023 61.0608 40.008C61.81 36.5616 52.8944 38.3597 48.6239 37.6105C45.627 37.086 42.7051 36.4867 39.7832 35.7375C20.3786 31.0174 0 43.2296 0 43.2296" fill="#FFD45A"/>
<defs>
<linearGradient id="paint0_linear" x1="37.7458" y1="4.16997" x2="57.8802" y2="24.3044" gradientUnits="userSpaceOnUse">
<stop stop-color="#FFD35A"/>
<stop offset="1" stop-color="#D8822A"/>
</linearGradient>
<linearGradient id="paint1_linear" x1="57.0373" y1="23.4615" x2="38.5888" y2="5.0129" gradientUnits="userSpaceOnUse">
<stop stop-color="#FFD35A"/>
<stop offset="1" stop-color="#D8822A"/>
</linearGradient>
<linearGradient id="paint2_linear" x1="43.5069" y1="9.10907" x2="52.1192" y2="17.7213" gradientUnits="userSpaceOnUse">
<stop stop-color="#FFD35A"/>
<stop offset="0.1449" stop-color="#F3BB4C"/>
<stop offset="0.3385" stop-color="#E7A23D"/>
<stop offset="0.5405" stop-color="#DF9032"/>
<stop offset="0.7544" stop-color="#DA852C"/>
<stop offset="1" stop-color="#D8822A"/>
</linearGradient>
<linearGradient id="paint3_linear" x1="43.9493" y1="9.72109" x2="51.6767" y2="17.4486" gradientUnits="userSpaceOnUse">
<stop stop-color="#FFD35A"/>
<stop offset="0.3487" stop-color="#FED159"/>
<stop offset="0.5418" stop-color="#FAC954"/>
<stop offset="0.6969" stop-color="#F3BB4C"/>
<stop offset="0.8317" stop-color="#EAA740"/>
<stop offset="0.9522" stop-color="#DE8E31"/>
<stop offset="1" stop-color="#D8822A"/>
</linearGradient>
</defs>
</svg>
