<svg width="155" height="155" viewBox="0 0 100 100" fill="none" xmlns="http://www.w3.org/2000/svg">
<path d="M23.26 78.46L28.32 63.62L40.45 57.41V52.41C33.45 48.41 28.96 40.25 28.96 31.41C28.924 28.6323 29.4428 25.8754 30.4862 23.3008C31.5295 20.7263 33.0764 18.3859 35.036 16.417C36.9956 14.4481 39.3286 12.8902 41.8982 11.8346C44.4677 10.7791 47.2222 10.2471 50 10.27C55.5646 10.3686 60.8715 12.6332 64.7929 16.5826C68.7142 20.532 70.941 25.8548 71 31.42C71 40.25 66.51 48.42 59.51 52.42V57.42L73 63.85L78.21 80L23.26 78.46Z" fill="#F28705"/>
<path d="M50 11.37C55.2847 11.443 60.3308 13.5823 64.0577 17.3298C67.7846 21.0772 69.8961 26.135 69.94 31.42C69.94 40.42 65.23 48.18 58.45 51.76V58.08L72.1 64.64L76.69 78.84L24.78 77.4L29.21 64.4L41.55 58.09V51.76C34.77 48.18 30.06 40.43 30.06 31.42C30.0362 28.7896 30.5348 26.1807 31.5271 23.7445C32.5194 21.3084 33.9855 19.0935 35.8404 17.2284C37.6953 15.3632 39.9021 13.885 42.3327 12.8793C44.7634 11.8736 47.3695 11.3606 50 11.37ZM50 9.18C47.0789 9.16124 44.1832 9.72442 41.4821 10.8367C38.7809 11.949 36.3283 13.588 34.2673 15.6583C32.2064 17.7285 30.5784 20.1885 29.4783 22.8947C28.3782 25.6008 27.8281 28.499 27.86 31.42C27.86 40.42 32.33 48.73 39.35 53.04V56.74L28.21 62.44L27.42 62.84L27.13 63.69L22.7 76.69L21.7 79.51L24.7 79.59L76.63 81L79.74 81.08L78.74 78.08L74.2 64L73.91 63.1L73.06 62.69L60.65 56.69V53C67.65 48.69 72.14 40.36 72.14 31.38C72.0652 25.5258 69.7105 19.9315 65.5762 15.786C61.4419 11.6405 55.854 9.27064 50 9.18Z" fill="#593B02"/>
<path d="M50 96.46C39.0142 96.4568 28.2191 93.5891 18.68 88.14C18.3051 87.9236 17.9945 87.6113 17.7801 87.2353C17.5657 86.8592 17.4552 86.4329 17.46 86V72.57C17.4646 69.027 18.8577 65.627 21.3404 63.0994C23.8231 60.5718 27.1977 59.118 30.74 59.05L35.94 56.74L41.27 61.22C43.7236 63.2827 46.8215 64.4219 50.0269 64.4401C53.2323 64.4584 56.343 63.3546 58.82 61.32L64.43 56.72L69.29 59.24C72.8262 59.3132 76.1931 60.7682 78.6697 63.2934C81.1462 65.8185 82.5355 69.2131 82.54 72.75V87.42L82 87.74C72.3036 93.4527 61.254 96.4637 50 96.46Z" fill="#E3C2A1"/>
<path d="M64.56 58L69 60.33C72.2942 60.3353 75.4523 61.6449 77.7835 63.9723C80.1147 66.2998 81.4294 69.4558 81.44 72.75V86.75C72.0234 92.2885 61.3105 95.2406 50.3861 95.3074C39.4617 95.3741 28.7135 92.5531 19.23 87.13C19.0307 87.015 18.8644 86.8507 18.747 86.6527C18.6297 86.4548 18.5653 86.23 18.56 86V72.57C18.5706 69.2758 19.8852 66.1198 22.2165 63.7923C24.5477 61.4649 27.7058 60.1553 31 60.15L35.76 58L40.56 62C43.2132 64.2396 46.5681 65.4773 50.0401 65.4974C53.5121 65.5175 56.8811 64.3187 59.56 62.11L64.56 57.97V58ZM64.29 55.35L63.17 56.27L58.17 60.41C55.8959 62.2952 53.0334 63.3244 50.0796 63.3189C47.1257 63.3134 44.267 62.2736 42 60.38L37.19 56.38L36.14 55.5L34.86 56L30.49 58C26.7075 58.1293 23.1224 59.7194 20.4876 62.4363C17.8527 65.1531 16.3733 68.7854 16.36 72.57V86C16.3602 86.6231 16.525 87.2351 16.8375 87.7742C17.1501 88.3132 17.5993 88.7602 18.14 89.07C27.9584 94.6871 39.0874 97.6086 50.3988 97.5384C61.7103 97.4681 72.8021 94.4086 82.55 88.67L83.64 88.03V72.75C83.6351 68.9718 82.1688 65.3421 79.548 62.6206C76.9272 59.8992 73.3553 58.2972 69.58 58.15L65.58 56.07L64.3 55.41L64.29 55.35Z" fill="#593B02"/>
<path d="M68.11 31.68H54.8C54.0757 31.6295 53.3556 31.8252 52.7566 32.2355C52.1575 32.6458 51.7147 33.2464 51.5 33.94H48C47.7837 33.2474 47.3406 32.6478 46.7419 32.2378C46.1432 31.8278 45.424 31.6313 44.7 31.68H31.35C29.13 31.68 27.52 33.4 28.12 35.13L30.2 41.13C30.4679 41.7547 30.9216 42.2817 31.4995 42.6395C32.0774 42.9974 32.7514 43.1686 33.43 43.13H42.21C42.8657 43.1606 43.5161 43.0002 44.0824 42.6682C44.6487 42.3363 45.1064 41.8471 45.4 41.26L47.84 35.26H51.6L53.6 41.26C53.8679 41.8847 54.3216 42.4117 54.8995 42.7695C55.4774 43.1274 56.1514 43.2986 56.83 43.26H65.61C66.2659 43.2919 66.9169 43.132 67.4834 42.7999C68.0499 42.4678 68.5074 41.9779 68.8 41.39L71.24 35.39C72 33.49 70.39 31.68 68.11 31.68Z" fill="#282523"/>
<path d="M61.24 31.68L53.16 39.76L53.65 41.17C53.7959 41.5374 54.016 41.8709 54.2964 42.1496C54.5768 42.4283 54.9117 42.6463 55.28 42.79L66.39 31.68H61.24Z" fill="white"/>
<path d="M44.66 31.68H40.27L30.41 41.54C30.7239 42.0495 31.1664 42.4675 31.693 42.7519C32.2196 43.0362 32.8118 43.177 33.41 43.16H33.92L45.35 31.75C45.1226 31.7059 44.8916 31.6825 44.66 31.68Z" fill="white"/>
<path d="M68.11 33.36C68.4037 33.3427 68.6974 33.3953 68.9668 33.5135C69.2363 33.6317 69.4738 33.8121 69.66 34.04C69.7227 34.1214 69.763 34.2177 69.777 34.3194C69.7911 34.4211 69.7783 34.5247 69.74 34.62L67.29 40.62C67.12 40.8934 66.8779 41.1146 66.5903 41.2592C66.3027 41.4039 65.9808 41.4665 65.66 41.44H56.88C56.5538 41.4715 56.2254 41.408 55.9345 41.2572C55.6435 41.1064 55.4023 40.8747 55.24 40.59L53.46 35.41L53.11 34.41V34.26C53.2545 33.9507 53.4924 33.6945 53.7902 33.5276C54.0881 33.3608 54.4308 33.2917 54.77 33.33H68.11V33.36ZM44.66 33.33C44.999 33.2932 45.3411 33.363 45.6387 33.5296C45.9362 33.6963 46.1744 33.9516 46.32 34.26V34.42L46.25 34.59L43.81 40.59C43.64 40.8634 43.3979 41.0846 43.1103 41.2292C42.8227 41.3739 42.5008 41.4365 42.18 41.41H33.43C33.1038 41.4415 32.7754 41.378 32.4845 41.2272C32.1935 41.0764 31.9523 40.8447 31.79 40.56L29.71 34.51C29.6762 34.4161 29.6676 34.3149 29.6851 34.2166C29.7027 34.1184 29.7458 34.0264 29.81 33.95C29.9997 33.7302 30.2369 33.5565 30.5038 33.4421C30.7706 33.3278 31.06 33.2757 31.35 33.29H44.66V33.33ZM68.11 31.61H54.8C54.0757 31.5595 53.3556 31.7552 52.7566 32.1655C52.1575 32.5758 51.7147 33.1764 51.5 33.87H48C47.7837 33.1774 47.3406 32.5778 46.7419 32.1678C46.1432 31.7578 45.424 31.5613 44.7 31.61H31.35C29.13 31.61 27.52 33.33 28.12 35.06L30.2 41.06C30.4679 41.6847 30.9216 42.2117 31.4995 42.5695C32.0774 42.9274 32.7514 43.0986 33.43 43.06H42.21C42.8657 43.0906 43.5161 42.9302 44.0824 42.5982C44.6487 42.2663 45.1064 41.7771 45.4 41.19L47.84 35.19L47.63 35.86L51.87 35.94L53.65 41.12C53.9179 41.7447 54.3716 42.2717 54.9495 42.6295C55.5274 42.9874 56.2014 43.1586 56.88 43.12H65.66C66.3159 43.1519 66.9669 42.992 67.5334 42.6599C68.0999 42.3278 68.5574 41.8379 68.85 41.25L71.29 35.25C72 33.49 70.39 31.68 68.11 31.68V31.61Z" fill="#282523"/>
<path d="M30.16 29.31C29.9985 29.3238 29.8359 29.3041 29.6824 29.2522C29.5288 29.2004 29.3876 29.1175 29.2675 29.0086C29.1474 28.8998 29.051 28.7674 28.9844 28.6197C28.9177 28.4719 28.8822 28.3121 28.88 28.15V23.15C28.88 13.7 36.88 6.02 46.79 6.02H52.66C62.54 6.02 70.57 13.7 70.57 23.15V28.15C70.5698 28.3919 70.492 28.6275 70.348 28.8219C70.204 29.0163 70.0014 29.1593 69.77 29.23C69.6305 29.2716 69.4855 29.2919 69.34 29.29C68.3897 29.1977 67.4473 29.0373 66.52 28.81C61.0935 27.586 55.5608 26.8928 50 26.74C44.3497 26.8801 38.7265 27.57 33.21 28.8C32.2068 29.0427 31.1876 29.2131 30.16 29.31Z" fill="#DDB249"/>
<path d="M52.66 7.16C61.91 7.16 69.47 14.37 69.47 23.16V28.16C69.47 28.16 69.47 28.16 69.34 28.16C68.1 28.16 58.88 25.61 49.99 25.61C40.74 25.61 31.56 28.18 30.16 28.18C30.04 28.18 29.98 28.16 29.98 28.12V23.12C29.98 14.31 37.55 7.12 46.79 7.12H52.66V7.16ZM52.66 4.92H46.79C36.31 4.92 27.79 13.1 27.79 23.14V28.14C27.7924 28.4463 27.8565 28.749 27.9785 29.03C28.1005 29.3111 28.2778 29.5646 28.5 29.7755C28.7221 29.9865 28.9845 30.1505 29.2714 30.2578C29.5583 30.3651 29.864 30.4134 30.17 30.4C31.2689 30.3095 32.359 30.1323 33.43 29.87C38.8751 28.6655 44.4247 27.9956 50 27.87C55.4862 28.011 60.9454 28.6875 66.3 29.89C67.2846 30.1386 68.288 30.3058 69.3 30.39C69.601 30.3993 69.9007 30.3484 70.1817 30.2403C70.4628 30.1322 70.7193 29.969 70.9364 29.7603C71.1534 29.5516 71.3266 29.3017 71.4457 29.0252C71.5648 28.7486 71.6275 28.4511 71.63 28.15V23.15C71.63 13.15 63.11 4.93 52.63 4.93L52.66 4.92Z" fill="#593B02"/>
<path d="M35.47 29.31C35.3117 29.3181 35.1535 29.2942 35.0046 29.2398C34.8558 29.1854 34.7195 29.1015 34.6037 28.9933C34.488 28.885 34.3953 28.7545 34.3311 28.6097C34.2669 28.4648 34.2325 28.3085 34.23 28.15V23.15C34.23 13.7 40.23 6.02 47.59 6.02H51.87C59.23 6.02 65.22 13.7 65.22 23.15V28.83L64.53 29.15L64.32 29.24H64C63.2538 29.1549 62.5193 28.9872 61.81 28.74C57.9465 27.5399 53.9425 26.8507 49.9 26.69C45.7968 26.8266 41.729 27.4989 37.8 28.69C37.0486 28.9819 36.2672 29.1898 35.47 29.31Z" fill="white"/>
<path d="M51.87 7.16C58.61 7.16 64.12 14.37 64.12 23.16V28.16C64.12 28.16 64.12 28.16 64.02 28.16C63.12 28.16 56.4 25.61 49.92 25.61C43.17 25.61 36.48 28.18 35.47 28.18C35.38 28.18 35.33 28.18 35.33 28.12V23.12C35.33 14.31 40.85 7.12 47.59 7.12H51.87V7.16ZM51.87 4.92H47.59C39.59 4.92 33.13 13.1 33.13 23.14V28.14C33.1326 28.4428 33.1954 28.7421 33.3149 29.0204C33.4344 29.2987 33.6082 29.5504 33.826 29.7608C34.0438 29.9712 34.3014 30.1361 34.5837 30.2458C34.866 30.3556 35.1673 30.408 35.47 30.4C36.3697 30.317 37.2562 30.1256 38.11 29.83C41.9427 28.6514 45.913 27.9791 49.92 27.83C53.8607 27.9872 57.7639 28.6596 61.53 29.83C62.3352 30.1096 63.1713 30.2909 64.02 30.37C64.3192 30.378 64.6169 30.326 64.8956 30.217C65.1744 30.108 65.4285 29.9443 65.6429 29.7355C65.8573 29.5267 66.0276 29.2771 66.1439 29.0013C66.2602 28.7255 66.3201 28.4293 66.32 28.13V23.13C66.32 13.14 59.84 5 51.87 5V4.92Z" fill="#593B02"/>
<path d="M28.64 33.85C28.3967 33.8564 28.1559 33.7989 27.9418 33.6831C27.7277 33.5672 27.5477 33.3972 27.42 33.19C26.84 32.26 27.42 30.93 28.66 28.34L28.99 27.67C29.17 27.34 32.9 21.12 49.99 21.12C67.08 21.12 70.62 27 70.76 27.29C73.38 31.86 72.86 32.76 72.63 33.15C72.5124 33.3558 72.3419 33.5264 72.1362 33.6442C71.9305 33.762 71.697 33.8227 71.46 33.82C71.2298 33.8159 71.0025 33.7684 70.79 33.68C63.17 30.68 56.18 29.2 50 29.2C41.09 29.2 32.91 32.34 29.42 33.68C29.1728 33.7846 28.9083 33.8423 28.64 33.85Z" fill="#DDB249"/>
<path d="M50 22.21C66.65 22.21 69.8 27.82 69.8 27.82C69.8 27.82 72.61 32.72 71.46 32.72C71.367 32.7171 71.2754 32.6968 71.19 32.66C67.4 31.18 58.93 28.1 50 28.1C41.07 28.1 32.87 31.18 29 32.66C28.8761 32.7122 28.7442 32.7426 28.61 32.75C27.55 32.75 29.18 29.75 29.95 28.15C29.95 28.15 33.31 22.21 49.95 22.21H50ZM50 20C32.57 20 28.48 26.32 28.07 27.05V27.11V27.18L27.75 27.83C26.54 30.27 25.59 32.2 26.56 33.75C26.772 34.1178 27.0743 34.4256 27.4382 34.6443C27.8021 34.863 28.2157 34.9854 28.64 35C29.0417 34.9946 29.4387 34.9132 29.81 34.76C33.25 33.39 41.29 30.3 50 30.3C56 30.3 62.9 31.78 70.39 34.71C70.7309 34.8448 71.0935 34.9159 71.46 34.92C71.8899 34.9233 72.3129 34.812 72.6855 34.5976C73.0581 34.3831 73.3669 34.0733 73.58 33.7C74.01 32.97 74.65 31.86 71.71 26.7C71.33 26.06 67.43 20 50 20Z" fill="#593B02"/>
<path d="M49.73 7.93999C47.44 7.93999 45.9 7.05999 45.9 5.73999C45.9 4.41999 47.44 3.53999 49.73 3.53999C52.02 3.53999 53.55 4.41999 53.55 5.73999C53.55 7.05999 52 7.93999 49.73 7.93999Z" fill="#DDB249"/>
<path d="M49.73 4.64C51.23 4.64 52.45 5.13 52.45 5.74C52.45 6.35 51.23 6.84 49.73 6.84C48.23 6.84 47 6.35 47 5.74C47 5.13 48.22 4.64 49.73 4.64ZM49.73 2.44C46.78 2.44 44.8 3.77 44.8 5.74C44.8 7.71 46.8 9.04 49.73 9.04C52.66 9.04 54.65 7.71 54.65 5.74C54.65 3.77 52.65 2.44 49.73 2.44Z" fill="#593B02"/>
</svg>
