<svg width="93" height="61" viewBox="0 0 93 61" fill="none" xmlns="http://www.w3.org/2000/svg">
<g clip-path="url(#clip0)">
<path d="M90.1 60.7H2C0.9 60.7 0 59.8 0 58.7V3.70001C0 2.60001 0.9 1.70001 2 1.70001H90.1C91.2 1.70001 92.1 2.60001 92.1 3.70001V58.7C92.1 59.8 91.2 60.7 90.1 60.7Z" fill="#431714"/>
<path d="M90.1 58.9H2C0.9 58.9 0 58 0 56.9V2C0 0.9 0.9 0 2 0H90.1C91.2 0 92.1 0.9 92.1 2V57C92.1 58 91.2 58.9 90.1 58.9Z" fill="#7F4E2D"/>
<path d="M81.7 53.9H10.4C6.90001 53.9 4.10001 51.1 4.10001 47.6V8.59999C4.10001 5.09999 6.90001 2.29999 10.4 2.29999H81.6C85.1 2.29999 87.9 5.09999 87.9 8.59999V47.6C87.9 51.1 85.1 53.9 81.7 53.9Z" fill="#431714"/>
<path d="M81.7 55H10.4C7 55 4.2 52.2 4.2 48.8V10.2C4.2 6.8 7 4 10.4 4H81.7C85.1 4 87.9 6.8 87.9 10.2V48.8C87.9 52.2 85.1 55 81.7 55Z" fill="#F8D46F"/>
<path d="M9.7 22.5H82.4" stroke="#7F4E2D" stroke-width="0.6246" stroke-miterlimit="10"/>
<path d="M9.7 27.7H82.4" stroke="#7F4E2D" stroke-width="0.6246" stroke-miterlimit="10"/>
<path d="M9.7 32.8H82.4" stroke="#7F4E2D" stroke-width="0.6246" stroke-miterlimit="10"/>
<path d="M9.7 43.3H34" stroke="#7F4E2D" stroke-width="0.6246" stroke-miterlimit="10"/>
<path d="M72.9 36.1C68.9 37.4 66.8 41.7 68.1 45.7C69.4 49.7 73.7 51.8 77.7 50.5C81.7 49.2 83.8 44.9 82.5 40.9C81.1 37 76.8 34.8 72.9 36.1ZM74.9 38.8C75 38.8 75 38.7 75.1 38.7C75.1 38.1 74.6 37.2 74.6 37.2C75.3 37.6 75.6 38.3 75.7 38.7C76.1 38.8 76.4 39.1 76.6 39.5C77 40.3 76.8 41.2 76.2 41.5C75.6 41.8 74.9 41.5 74.5 40.7C74.1 40 74.3 39.1 74.9 38.8ZM72 40C71.8 39.6 71.7 38.9 72 38.2C72 38.2 72.1 39.1 72.5 39.6C73 39.4 73.7 39.8 74 40.4C74.4 41.1 74.2 42 73.6 42.3C73 42.6 72.3 42.3 71.9 41.6C71.6 41.1 71.7 40.4 72 40ZM70.3 44.7C70.1 44.3 70.1 43.8 70.2 43.4C70 43 69.8 42.3 70.2 41.6C70.2 41.6 70.3 42.5 70.6 43C71.2 42.7 71.9 42.9 72.3 43.6C72.7 44.3 72.5 45.1 71.9 45.4C71.3 45.7 70.7 45.4 70.3 44.7ZM79.5 45.8C79.1 46.6 78.6 46.3 78.1 46.5C77.7 46.6 77.3 47.3 76.6 47.6C75.8 47.9 75.2 47.5 74.7 47.7C74.3 47.8 74.1 48.3 73.3 47.8C72.4 47.3 72.5 45.5 73.3 44.1C73.7 43.4 76.6 42.6 77.3 42.9C78.8 43.6 79.9 45 79.5 45.8ZM80.1 41.4C80.2 42.1 79.8 42.8 79.2 42.9C78.5 43 77.9 42.5 77.8 41.7C77.7 41 78.1 40.3 78.7 40.2C78.7 40.2 78.7 40.2 78.8 40.2C78.8 39.6 78.3 38.9 78.3 38.9C79 39.3 79.3 39.9 79.4 40.3C79.7 40.6 80 40.9 80.1 41.4Z" fill="#730202"/>
<path d="M34.6 14.7C34.6 14.7 32.1 15.7 27.5 16.4C22.9 17.1 20.1 16.9 20.1 16.9C21.1 15.7 21.7 15.1 22.8 13.8C21.2 13.1 20.4 12.7 18.7 12C18.7 12 23.4 11.9 26.5 11.5C29.6 11 34 9.70001 34 9.70001C34.2 11.7 34.3 12.7 34.6 14.7Z" fill="#730202"/>
<path d="M58.1 9.70001C58.1 9.70001 61.8 10.8 65.6 11.4C69.4 12 73.4 11.9 73.4 11.9C71.7 12.6 70.9 12.9 69.3 13.7C70.4 14.9 71 15.5 72 16.8C72 16.8 69.1 17 64.6 16.3C60.2 15.6 57.5 14.6 57.5 14.6C57.8 12.7 57.9 11.7 58.1 9.70001Z" fill="#730202"/>
<path d="M62.9 14C62.9 14 55.5 11.7 46.2 11.7C36.9 11.7 29.5 14 29.5 14C29.2 12 29 11 28.6 9.00001C28.6 9.00001 34.9 6.70001 46.2 6.70001C57.4 6.70001 63.7 9.10001 63.7 9.10001C63.4 11 63.2 12 62.9 14Z" fill="#730202"/>
<path d="M53.8 41.6C54.6 42.3 56.8 44.2 60.1 44.7C62.4 45 64.3 44.5 65.3 44.2C64 44.2 61.6 44.3 59.4 43.8C58.7 43.6 57.1 43.3 55.3 42.4C54.7 42.2 54.2 41.9 53.8 41.6Z" fill="#730202"/>
<path d="M57.4 38.8C57.8 38.8 61 39 62.6 39.6C62.8 39.7 62.8 39.8 62.8 40C62.1 41.7 59.8 47.7 57.2 49.2C57.1 49.2 57 49.1 57.1 49.1C59.5 47 60.3 41.3 60 40.4C59.8 39.9 58.8 39.5 57.5 39.1C57.2 39.1 57.2 38.8 57.4 38.8Z" fill="#730202"/>
</g>
<defs>
<clipPath id="clip0">
<rect width="92.1" height="60.7" fill="white"/>
</clipPath>
</defs>
</svg>
