<svg width="94" height="62" viewBox="0 0 94 62" fill="none" xmlns="http://www.w3.org/2000/svg">
<path d="M91.07 2.42999H2.93C1.83647 2.42999 0.949997 3.31647 0.949997 4.40999V59.37C0.949997 60.4635 1.83647 61.35 2.93 61.35H91.07C92.1635 61.35 93.05 60.4635 93.05 59.37V4.40999C93.05 3.31647 92.1635 2.42999 91.07 2.42999Z" fill="#232628" fill-opacity="0.47"/>
<path d="M91.07 0.649994H2.93C1.83647 0.649994 0.949997 1.53647 0.949997 2.62999V57.59C0.949997 58.6835 1.83647 59.57 2.93 59.57H91.07C92.1635 59.57 93.05 58.6835 93.05 57.59V2.62999C93.05 1.53647 92.1635 0.649994 91.07 0.649994Z" fill="#AAA9A9" fill-opacity="0.88"/>
<path d="M82.61 3.01001H11.39C7.92717 3.01001 5.12 5.81718 5.12 9.28001V48.29C5.12 51.7528 7.92717 54.56 11.39 54.56H82.61C86.0728 54.56 88.88 51.7528 88.88 48.29V9.28001C88.88 5.81718 86.0728 3.01001 82.61 3.01001Z" fill="#020202" fill-opacity="0.4"/>
<path d="M82.64 4.57999H11.36C7.91374 4.57999 5.12 7.37373 5.12 10.82V49.42C5.12 52.8662 7.91374 55.66 11.36 55.66H82.64C86.0863 55.66 88.88 52.8662 88.88 49.42V10.82C88.88 7.37373 86.0863 4.57999 82.64 4.57999Z" fill="white"/>
<path d="M10.66 23.18H83.34" stroke="black" stroke-opacity="0.3" stroke-width="0.62" stroke-miterlimit="10"/>
<path d="M10.66 28.31H83.34" stroke="black" stroke-opacity="0.3" stroke-width="0.62" stroke-miterlimit="10"/>
<path d="M10.66 33.45H83.34" stroke="black" stroke-opacity="0.3" stroke-width="0.62" stroke-miterlimit="10"/>
<path d="M10.66 43.98H34.92" stroke="black" stroke-opacity="0.3" stroke-width="0.62" stroke-miterlimit="10"/>
<path d="M73.82 36.79C72.3979 37.2647 71.1486 38.1504 70.2299 39.3351C69.3112 40.5198 68.7645 41.9504 68.6588 43.4458C68.5532 44.9413 68.8934 46.4345 69.6363 47.7366C70.3793 49.0387 71.4917 50.0913 72.8329 50.7612C74.1741 51.4311 75.6838 51.6882 77.1712 51.5001C78.6585 51.312 80.0567 50.687 81.1888 49.7043C82.321 48.7215 83.1363 47.4252 83.5316 45.979C83.927 44.5329 83.8847 43.0021 83.41 41.58C83.096 40.635 82.5986 39.7613 81.9463 39.0089C81.294 38.2564 80.4997 37.6401 79.6089 37.1951C78.718 36.7502 77.7482 36.4854 76.7548 36.4158C75.7614 36.3463 74.7641 36.4735 73.82 36.79ZM75.82 39.47L76 39.4C75.9664 38.882 75.8049 38.3803 75.53 37.94C75.8099 38.0881 76.0532 38.297 76.2418 38.5513C76.4304 38.8057 76.5596 39.0991 76.62 39.41C76.8183 39.4832 77.0001 39.5951 77.1546 39.7394C77.3091 39.8836 77.4333 40.0572 77.52 40.25C77.7087 40.5731 77.7742 40.9535 77.7044 41.3211C77.6345 41.6887 77.4341 42.0187 77.14 42.25C76.9772 42.3179 76.8021 42.3511 76.6258 42.3476C76.4495 42.3441 76.2759 42.3039 76.1159 42.2296C75.956 42.1553 75.8133 42.0485 75.6969 41.916C75.5806 41.7835 75.4931 41.6282 75.44 41.46C75.253 41.1373 75.1895 40.7577 75.2612 40.3918C75.3329 40.0258 75.5351 39.6982 75.83 39.47H75.82ZM73 40.65C72.8735 40.3756 72.808 40.0771 72.808 39.775C72.808 39.4729 72.8735 39.1744 73 38.9C73.0455 39.3955 73.2028 39.8741 73.46 40.3C73.768 40.235 74.0892 40.2832 74.3646 40.4356C74.6401 40.588 74.8514 40.8345 74.96 41.13C75.142 41.4447 75.2018 41.8153 75.128 42.1713C75.0542 42.5272 74.8521 42.8436 74.56 43.06C74.4012 43.1285 74.23 43.1633 74.0571 43.1622C73.8841 43.1611 73.7133 43.1241 73.5554 43.0536C73.3975 42.9831 73.256 42.8806 73.1397 42.7526C73.0235 42.6247 72.935 42.4739 72.88 42.31C72.7511 42.0475 72.6943 41.7554 72.7154 41.4638C72.7365 41.1721 72.8347 40.8912 73 40.65ZM71.32 45.39C71.2109 45.1945 71.1478 44.9767 71.1357 44.7531C71.1236 44.5295 71.1627 44.3062 71.25 44.1C71.1089 43.8138 71.0355 43.4991 71.0355 43.18C71.0355 42.8609 71.1089 42.5462 71.25 42.26C71.2877 42.7343 71.4276 43.1948 71.66 43.61C71.8077 43.5341 71.9692 43.4888 72.1349 43.477C72.3006 43.4652 72.4669 43.487 72.6239 43.5412C72.7809 43.5954 72.9252 43.6808 73.0483 43.7923C73.1714 43.9038 73.2706 44.0391 73.34 44.19C73.5183 44.4819 73.5783 44.8309 73.5077 45.1655C73.437 45.5002 73.2411 45.7951 72.96 45.99C72.8109 46.0685 72.6472 46.1152 72.4791 46.1273C72.3111 46.1393 72.1424 46.1165 71.9836 46.0601C71.8248 46.0037 71.6795 45.9151 71.5566 45.7998C71.4338 45.6844 71.3362 45.5449 71.27 45.39H71.32ZM80.51 46.5C80.16 47.26 79.65 47.04 79.15 47.19C78.65 47.34 78.39 48.02 77.65 48.27C76.91 48.52 76.2 48.2 75.79 48.34C75.38 48.48 75.14 48.91 74.41 48.47C73.68 48.03 73.61 46.14 74.41 44.79C74.79 44.12 77.67 43.24 78.41 43.61C79.77 44.28 80.86 45.64 80.46 46.5H80.51ZM81.12 42.06C81.1615 42.2203 81.1701 42.3874 81.1455 42.5511C81.1208 42.7149 81.0633 42.872 80.9765 43.013C80.8896 43.154 80.7752 43.276 80.6401 43.3717C80.5049 43.4675 80.3518 43.5349 80.19 43.57C79.8496 43.5912 79.5137 43.4837 79.2488 43.2688C78.984 43.054 78.8095 42.7474 78.76 42.41C78.7171 42.2496 78.7073 42.0822 78.7313 41.9179C78.7553 41.7536 78.8126 41.596 78.8997 41.4547C78.9868 41.3133 79.1017 41.1912 79.2376 41.0958C79.3735 41.0004 79.5275 40.9338 79.69 40.9H79.75C79.6863 40.4307 79.5226 39.9806 79.27 39.58C79.5362 39.7268 79.7671 39.9299 79.9468 40.1752C80.1264 40.4204 80.2503 40.7019 80.31 41C80.5088 41.1075 80.6805 41.2588 80.8121 41.4424C80.9438 41.6261 81.032 41.8373 81.07 42.06H81.12Z" fill="#4F4F4F" fill-opacity="0.35"/>
<path d="M35.54 15.31C33.2275 16.1163 30.8383 16.6826 28.41 17C25.9724 17.408 23.5002 17.5722 21.03 17.49C22.03 16.25 22.62 15.64 23.74 14.43C22.15 13.7 21.34 13.35 19.74 12.67C22.331 12.6181 24.9176 12.4345 27.49 12.12C30.0177 11.6874 32.5211 11.1233 34.99 10.43L35.54 15.31Z" fill="#4F4F4F" fill-opacity="0.35"/>
<path d="M59.06 10.39C61.5193 11.1206 64.025 11.6852 66.56 12.08C69.1287 12.4306 71.7175 12.6143 74.31 12.63C72.66 13.31 71.85 13.63 70.31 14.39C71.43 15.6 71.97 16.21 73.02 17.45C70.5347 17.5322 68.0472 17.3815 65.59 17C63.166 16.6796 60.7783 16.127 58.46 15.35L59.06 10.39Z" fill="#4F4F4F" fill-opacity="0.35"/>
<path d="M63.84 14.63C52.9151 11.5834 41.3649 11.5834 30.44 14.63L29.6 9.73001C29.6 9.73001 35.93 7.40001 47.15 7.41001C58.37 7.42001 64.7 9.74001 64.7 9.74001C64.36 11.69 64.18 12.67 63.84 14.63Z" fill="#4F4F4F" fill-opacity="0.35"/>
<path d="M54.72 42.3C56.4632 43.968 58.6826 45.0515 61.07 45.4C62.8292 45.6407 64.6204 45.466 66.3 44.89C64.3356 44.9564 62.3694 44.8291 60.43 44.51C59.0211 44.1981 57.6499 43.7354 56.34 43.13C55.7863 42.8809 55.2456 42.6039 54.72 42.3Z" fill="#4F4F4F" fill-opacity="0.35"/>
<path d="M58.36 39.45C60.1023 39.5117 61.8311 39.7802 63.51 40.25C63.5502 40.2631 63.5872 40.2845 63.6185 40.3129C63.6499 40.3413 63.6749 40.376 63.6918 40.4147C63.7088 40.4534 63.7175 40.4953 63.7171 40.5375C63.7168 40.5798 63.7076 40.6216 63.69 40.66C62.95 42.35 60.69 48.37 58.05 49.86C57.97 49.86 57.89 49.8 57.96 49.75C60.31 47.63 61.15 41.97 60.87 41.08C60.71 40.6 59.68 40.15 58.32 39.78C58.2832 39.7673 58.2519 39.7424 58.2313 39.7095C58.2107 39.6765 58.202 39.6375 58.2067 39.5989C58.2114 39.5602 58.2291 39.5244 58.257 39.4973C58.2849 39.4702 58.3213 39.4535 58.36 39.45Z" fill="#4F4F4F" fill-opacity="0.35"/>
</svg>
