<svg width="63" height="44" viewBox="0 0 63 44" fill="none" xmlns="http://www.w3.org/2000/svg">
<g clip-path="url(#clip0)">
<path d="M61.0463 29.3517L51.5356 10.5324L45.7444 10.2128L34.2205 27.8712L36.8072 33.0216L57.8419 34.1825L61.0463 29.3517Z" fill="#F2CB05"/>
<path d="M56.8707 27.5856L50.0652 14.1903L45.9381 13.9625L37.6999 26.5276L39.565 30.236L54.6088 31.0663L56.8707 27.5856Z" fill="#F23D7F"/>
<path d="M56.8707 27.5856L61.0463 29.3517L57.8419 34.1825L54.6087 31.0663L56.8707 27.5856Z" fill="#73102A"/>
<path d="M39.5649 30.236L36.8072 33.0216L34.2204 27.8712L37.6998 26.5276L39.5649 30.236Z" fill="#4F140A"/>
<path d="M45.938 13.9625L45.7444 10.2128L51.5356 10.5324L50.0651 14.1902L45.938 13.9625Z" fill="#8C3E5B"/>
<path d="M61.0462 29.3517L56.8705 27.5856L50.065 14.1902L51.5355 10.5324L61.0462 29.3517Z" fill="#E09096"/>
<path d="M36.8071 33.0216L39.5648 30.236L54.6086 31.0662L57.8418 34.1825L36.8071 33.0216Z" fill="#8C3E5B"/>
<path d="M45.938 13.9625L37.6998 26.5276L34.2205 27.8712L45.7444 10.2128L45.938 13.9625Z" fill="#73102A"/>
<path d="M50.4998 19.6224L48.7315 17.7888L45.2076 18.7294L48.0691 16.4837L47.6096 13.9211L49.3779 15.7547L52.9683 14.8178L50.0366 17.1264L50.4998 19.6224Z" fill="white"/>
<path d="M44.3508 31.8355L43.2743 30.7745L41.1667 31.4594L42.7822 30.0129L42.4636 28.5264L43.5401 29.5874L45.6478 28.9025L44.0323 30.349L44.3508 31.8355Z" fill="white"/>
<path d="M35.1242 1.81483L17.4304 15.1267L18.1685 21.1098L38.5217 29.7779L43.3278 26.1706L40.6683 4.19062L35.1242 1.81483Z" fill="#F2CB05"/>
<path d="M34.0681 6.43032L21.4577 15.9499L21.9548 20.2505L36.505 26.3949L39.9839 23.8494L38.0478 8.11885L34.0681 6.43032Z" fill="#FFDB61"/>
<path d="M34.0683 6.43033L35.1242 1.81484L40.6684 4.19063L38.0479 8.11886L34.0683 6.43033Z" fill="#F2CB05"/>
<path d="M39.984 23.8495L43.3279 26.1706L38.5218 29.7779L36.5051 26.395L39.984 23.8495Z" fill="#593B02"/>
<path d="M21.9549 20.2505L18.1685 21.1098L17.4304 15.1267L21.4578 15.9499L21.9549 20.2505Z" fill="#F2CB05"/>
<path d="M35.1242 1.81483L34.0682 6.43032L21.4578 15.9499L17.4304 15.1267L35.1242 1.81483Z" fill="#FFF2B1"/>
<path d="M43.3278 26.1706L39.984 23.8494L38.0479 8.11884L40.6683 4.1906L43.3278 26.1706Z" fill="#593B02"/>
<path d="M21.955 20.2505L36.5051 26.3949L38.5218 29.7779L18.1685 21.1098L21.955 20.2505Z" fill="#BF7E04"/>
<path d="M33.1355 13.6565L51.7704 25.635L51.4361 31.6924L31.7812 41.8247L26.6878 38.5391L27.7744 16.432L33.1355 13.6565Z" fill="#F2CB05"/>
<path d="M34.4906 18.138L47.7696 26.7495L47.5973 31.08L33.5143 38.2481L29.9042 35.9123L30.6417 20.129L34.4906 18.138Z" fill="#730202"/>
<path d="M34.4906 18.138L33.1355 13.6565L27.7744 16.432L30.6417 20.129L34.4906 18.138Z" fill="#F24405"/>
<path d="M29.904 35.9123L26.6877 38.539L31.7811 41.8247L33.5142 38.2481L29.904 35.9123Z" fill="#593B02"/>
<path d="M47.5973 31.0799L51.4361 31.6924L51.7704 25.635L47.7695 26.7495L47.5973 31.0799Z" fill="#F24405"/>
<path d="M33.1355 13.6566L34.4906 18.138L47.7696 26.7495L51.7704 25.635L33.1355 13.6566Z" fill="#F28705"/>
<path d="M26.6879 38.5391L29.9042 35.9123L30.6417 20.129L27.7744 16.432L26.6879 38.5391Z" fill="#593B02"/>
<path d="M47.5973 31.08L33.5142 38.2481L31.7812 41.8247L51.4361 31.6924L47.5973 31.08Z" fill="#BF7E04"/>
<path d="M7.22856 7.61977L0.624446 29.2888L3.73273 34.6682L21.6747 32.5871L23.4734 26.6105L12.1356 7.0226L7.22856 7.61977Z" fill="#F2CB05"/>
<path d="M7.51176 13.3774L7.22861 7.61974L12.1356 7.02257L11.0062 12.9694L7.51176 13.3774Z" fill="#F28705"/>
<path d="M19.1135 26.9707L23.4733 26.6104L21.6746 32.5871L17.8097 31.2387L19.1135 26.9707Z" fill="#593B02"/>
<path d="M5.04109 32.7374L3.7327 34.6682L0.624419 29.2887L2.7839 28.8738L5.04109 32.7374Z" fill="#F24405"/>
<path d="M7.22847 7.61977L7.51162 13.3775L2.78383 28.8738L0.624352 29.2888L7.22847 7.61977Z" fill="#F28705"/>
<path d="M23.4733 26.6105L19.1135 26.9708L11.006 12.9694L12.1355 7.0226L23.4733 26.6105Z" fill="#F24405"/>
<path d="M5.04106 32.7374L17.8097 31.2387L21.6746 32.5871L3.73267 34.6682L5.04106 32.7374Z" fill="#730202"/>
<path d="M7.51157 13.3775L2.78378 28.8738L5.04098 32.7374L17.8096 31.2388L19.1135 26.9708L11.006 12.9694L7.51157 13.3775Z" fill="#D96704"/>
<path d="M23.4733 26.6105L22.453 17.2734L12.1355 7.02258L23.4733 26.6105Z" fill="#BF7E04"/>
<path d="M22.453 17.2734L16.5833 14.7461L12.1355 7.02258L22.453 17.2734Z" fill="#D96704"/>
<path d="M22.4529 17.2734L16.5833 14.7461L20.1837 20.8872L22.4529 17.2734Z" fill="#730202"/>
<path d="M36.7518 23.1369L27.1745 4.31387L21.4499 3.99794L9.85938 21.6527L12.5127 26.8068L33.5474 27.9677L36.7518 23.1369Z" fill="#F2CB05"/>
<path d="M32.5724 21.4374L25.7705 7.97542L21.6435 7.74765L13.4015 20.3793L15.2704 24.0212L30.3141 24.8514L32.5724 21.4374Z" fill="#F23D7F"/>
<path d="M32.5723 21.4374L36.7517 23.1369L33.5473 27.9677L30.3141 24.8515L32.5723 21.4374Z" fill="#73102A"/>
<path d="M15.2704 24.0212L12.5127 26.8068L9.85936 21.6527L13.4016 20.3793L15.2704 24.0212Z" fill="#4F140A"/>
<path d="M21.6436 7.74763L21.45 3.99792L27.1746 4.31386L25.7707 7.9754L21.6436 7.74763Z" fill="#8C3E5B"/>
<path d="M36.7518 23.1369L32.5724 21.4373L25.7706 7.9754L27.1745 4.31387L36.7518 23.1369Z" fill="#E09096"/>
<path d="M12.5127 26.8067L15.2704 24.0211L30.3141 24.8514L33.5473 27.9676L12.5127 26.8067Z" fill="#8C3E5B"/>
<path d="M21.6435 7.74764L13.4016 20.3793L9.85938 21.6527L21.4499 3.99794L21.6435 7.74764Z" fill="#73102A"/>
<path d="M26.2053 13.4076L24.437 11.574L20.8429 12.5775L23.7746 10.2689L23.3151 7.70631L25.0797 9.60644L28.6072 8.5993L25.7421 10.9116L26.2053 13.4076Z" fill="white"/>
<path d="M19.9896 25.617L18.9094 24.6226L16.872 25.2446L18.4839 23.8647L18.1653 22.3782L19.2455 23.3726L21.2829 22.7505L19.671 24.1305L19.9896 25.617Z" fill="white"/>
<path d="M31.2573 15.0218L8.98952 19.2679L5.62995 24.4907L15.8234 39.4084L21.8951 38.2746L34.036 19.1145L31.2573 15.0218Z" fill="#F2CB05"/>
<path d="M26.2219 17.9488L31.2575 15.0218L34.0362 19.1145L28.1977 20.8621L26.2219 17.9488Z" fill="#BF7E04"/>
<path d="M19.5639 34.5404L21.895 38.2745L15.8233 39.4084L15.2449 35.3703L19.5639 34.5404Z" fill="#BF7E04"/>
<path d="M7.95236 24.7524L5.62992 24.4907L8.9895 19.2679L10.3621 21.0128L7.95236 24.7524Z" fill="#FFF2B1"/>
<path d="M31.2573 15.0218L26.2217 17.9488L10.3621 21.0128L8.98953 19.2679L31.2573 15.0218Z" fill="#F2CB05"/>
<path d="M21.8952 38.2746L19.5641 34.5404L28.1976 20.8621L34.0361 19.1145L21.8952 38.2746Z" fill="#593B02"/>
<path d="M7.95232 24.7524L15.245 35.3704L15.8233 39.4084L5.62988 24.4907L7.95232 24.7524Z" fill="#F2CB05"/>
<path d="M26.2216 17.9488L10.362 21.0128L7.95226 24.7524L15.2449 35.3704L19.5639 34.5404L28.1974 20.8621L26.2216 17.9488Z" fill="#FFDB61"/>
<path d="M21.895 38.2746L29.7292 33.0316L34.0359 19.1145L21.895 38.2746Z" fill="#BF7E04"/>
<path d="M29.7294 33.0316L29.213 26.6602L34.0361 19.1145L29.7294 33.0316Z" fill="#F28705"/>
<path d="M29.7292 33.0316L29.2129 26.6601L25.4098 32.6597L29.7292 33.0316Z" fill="#FFDB61"/>
<path d="M35.279 30.4669L22.7499 39.7239L26.36 42.0597L51.9055 41.333L55.3178 38.7838L42.2978 30.3201L35.279 30.4669Z" fill="#F2CB05"/>
<path d="M21.488 37.1838L29.291 27.666L31.5359 28.1237L25.2905 39.6638L21.488 37.1838Z" fill="#FFF2B1"/>
<path d="M29.2909 27.666L38.3311 23.5579L31.5358 28.1237L29.2909 27.666Z" fill="#FFDB61"/>
<path d="M38.3311 23.5579L47.7397 26.0802L45.4512 27.6231L38.3311 23.5579Z" fill="#BF7E04"/>
<path d="M45.4511 27.6231L52.6405 38.9031L56.3264 36.2355L47.7396 26.0802L45.4511 27.6231Z" fill="#593B02"/>
<path d="M38.331 23.5579L31.5358 28.1237L38.9617 29.0677L45.4512 27.6231L38.331 23.5579Z" fill="#F2CB05"/>
<path d="M45.4512 27.6231L38.9618 29.0677L31.5359 28.1237L25.2904 39.6638L39.4648 39.311L52.6406 38.9031L45.4512 27.6231Z" fill="#FFDB61"/>
<path d="M21.488 37.1838L22.75 39.7238L26.3601 42.0597L25.2905 39.6637L21.488 37.1838Z" fill="#F2CB05"/>
<path d="M52.6405 38.9031L51.9055 41.3329L26.36 42.0596L25.2904 39.6637L52.6405 38.9031Z" fill="#BF7E04"/>
<path d="M56.3265 36.2355L55.3179 38.7838L51.9056 41.3329L52.6406 38.9031L56.3265 36.2355Z" fill="#FFDB61"/>
<path d="M10.256 14.4637L8.68051 13.9761L6.98375 15.6852L7.84088 13.4624L6.77539 12.2018L8.35092 12.6893L10.0477 10.9802L9.19055 13.203L10.256 14.4637Z" fill="white"/>
<path d="M12.0047 22.7058L10.4255 22.2849L8.79894 23.9311L9.65239 21.7748L8.59058 20.4476L10.1661 20.9352L11.8629 19.2261L11.0057 21.4489L12.0047 22.7058Z" fill="white"/>
<path d="M35.8106 7.52795L34.2314 7.10696L32.5346 8.81606L33.4583 6.59692L32.3928 5.33629L33.972 5.75728L35.6651 4.11475L34.7451 6.26733L35.8106 7.52795Z" fill="white"/>
<path d="M35.7151 20.1419L34.1396 19.6543L32.5094 21.3671L33.3665 19.1443L32.301 17.8837L33.8766 18.3712L35.5733 16.6621L34.7162 18.8849L35.7151 20.1419Z" fill="white"/>
</g>
<defs>
<clipPath id="clip0">
<rect width="60.3333" height="40.6667" fill="white" transform="translate(2.24097) rotate(3.1589)"/>
</clipPath>
</defs>
</svg>
