<svg width="99" height="99" viewBox="0 0 99 99" fill="none" xmlns="http://www.w3.org/2000/svg">
<path d="M24.9 49.44L2.7 2.34L49.8 24.55L96.9 2.34L74.7 49.44L96.9 96.55L49.8 74.34L2.7 96.55L24.9 49.44Z" fill="#F9BF4B"/>
<path d="M95.13 4.12001L73.76 49.44L95.13 94.77L49.8 73.4L4.47 94.77L25.84 49.44L4.47 4.12001L49.8 25.48L95.13 4.12001ZM98.67 0.570007L94.4 2.57001L49.8 23.57L5.19 2.58001L0.919998 0.580007L2.92 4.85001L23.92 49.45L2.92 94.06L0.919998 98.33L5.19 96.33L49.8 75.33L94.4 96.33L98.67 98.33L96.67 94.06L75.67 49.45L96.67 4.85001L98.67 0.580007V0.570007Z" fill="#3F271B"/>
<path d="M4.47 94.77L49.8 49.45L95.13 94.77L50.08 74.1L4.47 94.77Z" fill="#BF7E04"/>
<path d="M95.13 4.12L49.8 49.45L4.47 4.12L49.52 24.79L95.13 4.12Z" fill="#FFF2B1"/>
<path d="M49.8028 5.28655L4.1873 50.902L49.8028 96.5175L95.4182 50.902L49.8028 5.28655Z" fill="url(#paint0_linear)"/>
<path d="M49.8 6.49L94.21 50.9L49.8 95.31L5.39 50.9L49.8 6.49ZM49.8 4.09L48.6 5.29L4.19 49.7L3 50.9L4.21 52.1L48.6 96.52L49.8 97.72L51 96.52L95.41 52.1L96.62 50.9L95.41 49.7L51 5.29L49.8 4.09Z" fill="#301905"/>
<path d="M72.44 33.18C66.96 27.18 59.71 28.33 52.76 27.29C47.67 26.53 42.26 22.65 37.08 22.18L25.08 34.18C24.6985 35.8975 24.4577 37.6433 24.36 39.4L27 65.28H73.6C73.6 65.28 77.92 39.2 72.44 33.18Z" fill="#301905"/>
<path d="M86.42 46.08L85.42 45.08C78.0286 48.2832 71.8204 53.7119 67.66 60.61C62.6 62.75 57.7 65.78 55 70C54.0418 68.1323 52.7428 66.4603 51.17 65.07C51.7465 63.7549 52.611 62.586 53.6997 61.6496C54.7884 60.7133 56.0734 60.0333 57.46 59.66C54.4421 60.3846 51.5774 61.6409 49 63.37C46.5852 61.7567 43.9236 60.5475 41.12 59.79C35.75 48.68 26.12 42.67 19.6 39.71L18.8 40.51C22.96 43.84 25.55 48.64 27.14 53.66C24.135 49.5183 20.4089 45.9514 16.14 43.13L13.27 46C15.8017 50.5297 17.4413 55.5028 18.1 60.65L32.81 75.35L41.81 72.85C41.6348 73.4711 41.4979 74.1022 41.4 74.74L47.84 75.56C47.84 75.74 47.84 75.84 47.84 75.84L49 75.7L50.13 75.84C50.13 75.84 50.13 75.74 50.13 75.56L56.57 74.74V74.57L62.81 75.29C62.81 75.47 62.75 75.63 62.73 75.81L65.89 76.38L78.89 63.38C79.0627 61.3763 79.3972 59.3898 79.89 57.44C81.6046 56.7534 83.3882 56.2539 85.21 55.95C85.21 55.95 83.13 56.21 80.03 56.88C81.0095 52.7129 83.239 48.9446 86.42 46.08ZM44 68.22C43.3589 65.3335 42.3928 62.5289 41.12 59.86C42.3737 60.2868 43.5251 60.9693 44.5012 61.8645C45.4772 62.7596 46.2566 63.8478 46.79 65.06C45.7379 65.9989 44.8013 67.0597 44 68.22Z" fill="#F28705"/>
<path d="M85.32 49.72C85.32 49.72 69.47 53.67 62.88 69L55.56 69.08C55.86 64.43 57.44 58.57 63.15 56.66C63.15 56.66 52.74 59.12 48.62 68.66C44.7 59.56 35.13 56.88 34.17 56.66C28.6205 51.1441 21.7585 47.1315 14.23 45L14.02 45.21C23.9 49.6 27.27 60.59 28.32 69.38H28L27.38 69.91L36.51 79.05L36.92 78.91H62.38L63.05 79.06L74.56 67.58C75.15 60.29 77.66 52.43 85.32 49.72ZM34.19 56.72C39.51 58.57 41.19 63.86 41.62 68.35C39.9501 64.0104 37.4232 60.0517 34.19 56.71V56.72Z" fill="#843C0B"/>
<path d="M62.66 76.85C62.6547 75.9057 62.2766 75.0018 61.6079 74.335C60.9393 73.6682 60.0343 73.2926 59.09 73.29H53.8C52.8566 73.2926 51.9527 73.6686 51.2856 74.3356C50.6186 75.0027 50.2426 75.9066 50.24 76.85L48.63 79.41C48.6273 80.3578 49.0006 81.2679 49.6679 81.9409C50.3353 82.6138 51.2423 82.9947 52.19 83H59.19L63.63 78.55L62.66 76.85Z" fill="#301905"/>
<path d="M63.17 48.56C63.17 48.56 59.56 57.84 58.25 60.07C57.48 61.39 54.82 67.61 52.77 72.5C51.54 75.42 54.23 78.37 57.89 78.12C58.7132 78.0829 59.5171 77.8593 60.2412 77.4661C60.9654 77.0728 61.5907 76.5202 62.07 75.85L71.6 63.45L75.19 51" fill="#301905"/>
<path d="M58.73 59.07C59.42 57.76 60.08 56.42 60.73 55.07C61.04 54.39 61.26 53.68 61.62 53.07C61.9624 52.4011 62.3605 51.7622 62.81 51.16H62.89C62.8365 51.9243 62.668 52.6761 62.39 53.39C62.1011 54.0889 61.7462 54.7586 61.33 55.39C60.5723 56.6824 59.7374 57.928 58.83 59.12L58.73 59.07Z" fill="#F9BF4B"/>
<path d="M52.06 77.65C51.9221 78.1625 51.8449 78.6895 51.83 79.22C51.8169 79.7272 51.8335 80.2348 51.88 80.74C51.88 81.25 51.99 81.74 52.04 82.29C52.1275 82.8266 52.1876 83.3673 52.22 83.91C51.8705 83.4703 51.5936 82.9774 51.4 82.45C51.1971 81.9227 51.0627 81.3715 51 80.81C50.9545 80.239 51.0052 79.6643 51.15 79.11C51.2926 78.5399 51.611 78.0291 52.06 77.65Z" fill="#F9BF4B"/>
<path d="M56.59 77.65C56.8094 78.1476 56.9445 78.6782 56.99 79.22C57.0534 79.7441 57.0768 80.2723 57.06 80.8C57.0331 81.8655 56.8199 82.9181 56.43 83.91C56.2191 82.8776 56.1451 81.8218 56.21 80.77C56.244 79.7208 56.3712 78.6767 56.59 77.65Z" fill="#F9BF4B"/>
<path d="M62.22 79.92C62.2456 79.1183 62.0296 78.3274 61.6 77.65L61.53 80.65L62.22 79.92Z" fill="#F9BF4B"/>
<path d="M44.25 57.61L46.19 59.32C47.0414 60.1078 48.1525 60.5552 49.3122 60.5773C50.4718 60.5995 51.5992 60.1947 52.48 59.44L54.71 57.61" stroke="#F9BF4B" stroke-width="0.85" stroke-miterlimit="10"/>
<path d="M49.28 56.46V51.73" stroke="#F9BF4B" stroke-width="0.85" stroke-miterlimit="10"/>
<path d="M46.84 49H51.78C51.8935 49.0051 52.0033 49.0422 52.0965 49.1072C52.1897 49.1722 52.2625 49.2623 52.3065 49.3671C52.3505 49.4718 52.3639 49.5869 52.345 49.699C52.3261 49.811 52.2759 49.9154 52.2 50L50 52.18C49.8498 52.3213 49.6513 52.4 49.445 52.4C49.2387 52.4 49.0402 52.3213 48.89 52.18L46.45 50.03C46.3703 49.9468 46.3157 49.8427 46.2927 49.7298C46.2697 49.6168 46.2791 49.4997 46.3199 49.3919C46.3607 49.2841 46.4312 49.1901 46.5233 49.1207C46.6153 49.0514 46.7251 49.0095 46.84 49Z" fill="#F9BF4B"/>
<path d="M54.9 42.61L54.76 44.87C54.755 45.0842 54.8089 45.2956 54.9158 45.4813C55.0227 45.6669 55.1785 45.8196 55.3663 45.9228C55.554 46.026 55.7665 46.0756 55.9805 46.0663C56.1945 46.057 56.4019 45.9891 56.58 45.87C57.3568 45.3332 57.9918 44.6161 58.4307 43.7801C58.8696 42.9441 59.0993 42.0142 59.1 41.07L54.9 42.61Z" fill="white"/>
<path d="M43.57 42.25L43.68 44.25C43.6859 44.4947 43.6209 44.7359 43.4929 44.9446C43.3649 45.1533 43.1793 45.3205 42.9585 45.4261C42.7377 45.5318 42.491 45.5714 42.2482 45.5401C42.0055 45.5089 41.7769 45.4081 41.59 45.25L40.69 44.47C39.7698 43.6733 39.193 42.5519 39.08 41.34L43.57 42.25Z" fill="white"/>
<path d="M65.62 40.41L64.52 38.75L64.94 38.52C65.5167 38.2004 65.9904 37.7231 66.3057 37.144C66.6209 36.5648 66.7646 35.9079 66.72 35.25L66.47 30.48C66.4713 30.2537 66.4126 30.0311 66.2998 29.8349C66.1871 29.6387 66.0243 29.4759 65.8282 29.3631C65.632 29.2503 65.4094 29.1915 65.1832 29.1927C64.9569 29.1939 64.7349 29.2551 64.54 29.37L59.54 32.61C58.49 31.5 53.9 30.23 53.9 30.23L58.48 40.12C58.5326 40.2318 58.5618 40.3531 58.566 40.4766C58.5702 40.6001 58.5492 40.7231 58.5043 40.8382C58.4594 40.9532 58.3915 41.058 58.3048 41.146C58.2181 41.234 58.1144 41.3034 58 41.35L54.9 42.61L54.34 51.88L55.43 50.88C55.5875 50.7509 55.7806 50.673 55.9836 50.6566C56.1866 50.6402 56.3897 50.6862 56.5659 50.7884C56.742 50.8906 56.8827 51.0442 56.9692 51.2285C57.0558 51.4129 57.0839 51.6192 57.05 51.82L56.43 54.82C56.3106 55.4023 56.0397 55.9429 55.6446 56.3871C55.2496 56.8313 54.7444 57.1634 54.18 57.35L54.35 57.42C54.9193 57.6269 55.5369 57.6614 56.1256 57.5191C56.7143 57.3768 57.2481 57.0641 57.66 56.62L65.91 47.73C66.5253 46.5968 66.8231 45.3185 66.7721 44.0301C66.721 42.7417 66.323 41.491 65.62 40.41V40.41Z" stroke="#F9BF4B" stroke-width="0.85" stroke-miterlimit="10"/>
<path d="M42.29 55.8L41.48 51.8C41.4468 51.5941 41.4787 51.383 41.5714 51.1962C41.6641 51.0094 41.8129 50.8562 41.9969 50.7581C42.1809 50.6601 42.391 50.622 42.5978 50.6492C42.8046 50.6764 42.9976 50.7676 43.15 50.91L44.15 51.91L43.59 42.28L40.35 41.28C40.2193 41.2434 40.0985 41.1781 39.9963 41.0887C39.8942 40.9994 39.8133 40.8884 39.7596 40.7637C39.7059 40.6391 39.6808 40.504 39.686 40.3684C39.6913 40.2328 39.7268 40.1001 39.79 39.98L44.89 30.21C44.89 30.21 39.65 30.86 38.74 31.61L38.38 32.15L33.47 29.32C33.3015 29.2329 33.1131 29.1913 32.9236 29.1993C32.734 29.2073 32.5498 29.2646 32.3892 29.3656C32.2286 29.4667 32.0972 29.6078 32.0079 29.7752C31.9186 29.9426 31.8745 30.1304 31.88 30.32V35.53C31.8632 36.1264 32.0184 36.715 32.3269 37.2257C32.6354 37.7363 33.0843 38.1474 33.62 38.41L34.11 38.64L33.11 40.22C32.3684 41.3477 31.9592 42.6613 31.9291 44.0106C31.899 45.3599 32.2494 46.6905 32.94 47.85L41.47 56.77C41.7872 57.1 42.1787 57.3493 42.6119 57.4972C43.045 57.645 43.5073 57.6871 43.96 57.62C43.5512 57.4813 43.1839 57.2419 42.892 56.9238C42.6001 56.6057 42.3931 56.2192 42.29 55.8Z" stroke="#F9BF4B" stroke-width="0.85" stroke-miterlimit="10"/>
<path d="M44.49 57.51C44.2836 57.5878 44.0688 57.6415 43.85 57.67C44.4399 57.9256 45.1049 57.947 45.71 57.73L49.28 56.46L51.97 57.46C52.6855 57.71 53.4645 57.71 54.18 57.46L49.28 55.66L44.49 57.51Z" stroke="#F9BF4B" stroke-width="0.85" stroke-miterlimit="10"/>
<path d="M49.32 29.46H48.09C47.9158 29.4706 47.7473 29.5266 47.6014 29.6224C47.4555 29.7183 47.3373 29.8506 47.2584 30.0063C47.1795 30.1621 47.1428 30.3357 47.1518 30.5101C47.1609 30.6844 47.2154 30.8533 47.31 31L48.62 32.78C48.7136 32.8986 48.8329 32.9945 48.9688 33.0604C49.1048 33.1263 49.2539 33.1605 49.405 33.1605C49.5561 33.1605 49.7052 33.1263 49.8412 33.0604C49.9771 32.9945 50.0964 32.8986 50.19 32.78L51.38 31C51.4634 30.8524 51.5079 30.6859 51.5093 30.5163C51.5107 30.3467 51.4689 30.1796 51.3879 30.0306C51.3069 29.8816 51.1893 29.7556 51.0462 29.6646C50.9032 29.5735 50.7393 29.5203 50.57 29.51L49.32 29.46Z" fill="#F9BF4B"/>
<path d="M45.38 34.33L44.75 35.85C44.6874 36.0019 44.6701 36.1687 44.7002 36.3302C44.7304 36.4917 44.8067 36.641 44.92 36.76L45.92 37.76C46.0139 37.8547 46.1293 37.9255 46.2563 37.9661C46.3834 38.0068 46.5184 38.0163 46.6498 37.9937C46.7813 37.9711 46.9054 37.9172 47.0116 37.8365C47.1179 37.7558 47.203 37.6506 47.26 37.53L47.86 36.26C47.923 36.1211 47.947 35.9676 47.9293 35.8161C47.9117 35.6646 47.8532 35.5208 47.76 35.4L46.76 34.12C46.6668 34.0182 46.55 33.9409 46.4199 33.895C46.2898 33.8491 46.1504 33.8359 46.0139 33.8567C45.8775 33.8774 45.7483 33.9315 45.6378 34.014C45.5272 34.0966 45.4387 34.2051 45.38 34.33Z" fill="#F9BF4B"/>
<path d="M53.49 34.25L54.12 35.77C54.184 35.9224 54.2011 36.0904 54.169 36.2525C54.1369 36.4146 54.0572 36.5635 53.94 36.68L52.94 37.68C52.8454 37.7744 52.7294 37.8446 52.6018 37.8845C52.4743 37.9245 52.339 37.9331 52.2074 37.9095C52.0758 37.8859 51.9519 37.8309 51.8462 37.7492C51.7404 37.6675 51.656 37.5614 51.6 37.44L51 36.21C50.9361 36.0696 50.9117 35.9144 50.9293 35.7612C50.947 35.6079 51.0059 35.4623 51.1 35.34L52.1 34.07C52.1894 33.9626 52.3046 33.8795 52.4347 33.8284C52.5649 33.7773 52.7058 33.76 52.8445 33.7779C52.9831 33.7959 53.115 33.8486 53.2278 33.9311C53.3407 34.0136 53.4309 34.1233 53.49 34.25Z" fill="#F9BF4B"/>
<path d="M38.57 48.6L37.88 45.85C37.8506 45.7404 37.7833 45.6447 37.69 45.58L36.69 44.87C36.6196 44.8166 36.5359 44.7837 36.448 44.7748C36.3602 44.7659 36.2716 44.7815 36.1919 44.8197C36.1123 44.858 36.0448 44.9175 35.9968 44.9916C35.9489 45.0658 35.9223 45.1517 35.92 45.24L35.84 46.91C35.8358 46.9766 35.8462 47.0432 35.8704 47.1054C35.8946 47.1676 35.932 47.2237 35.98 47.27L37.74 49.06C37.8147 49.1389 37.9136 49.1907 38.0209 49.2072C38.1283 49.2238 38.2382 49.2042 38.3332 49.1515C38.4282 49.0989 38.5031 49.0161 38.5459 48.9163C38.5888 48.8164 38.5973 48.7052 38.57 48.6Z" fill="#F9BF4B"/>
<path d="M60.31 48.59L60.78 46.36C60.7904 46.3013 60.8126 46.2454 60.8452 46.1955C60.8779 46.1457 60.9203 46.103 60.97 46.07L61.76 45.49C61.8312 45.4401 61.9145 45.4101 62.0012 45.4031C62.0878 45.396 62.1748 45.4121 62.2532 45.4498C62.3316 45.4874 62.3986 45.5453 62.4472 45.6174C62.4959 45.6895 62.5244 45.7732 62.53 45.86L62.6 47.31C62.6044 47.3773 62.5951 47.4447 62.5728 47.5083C62.5504 47.5719 62.5155 47.6303 62.47 47.68L61.13 49C61.0591 49.0739 60.9664 49.1232 60.8654 49.1406C60.7645 49.1581 60.6606 49.1428 60.569 49.097C60.4774 49.0512 60.4028 48.9773 60.3562 48.886C60.3096 48.7948 60.2934 48.6911 60.31 48.59Z" fill="#F9BF4B"/>
<defs>
<linearGradient id="paint0_linear" x1="49.8083" y1="5.2833" x2="49.8083" y2="96.5133" gradientUnits="userSpaceOnUse">
<stop offset="0.11" stop-color="#FFF2B1"/>
<stop offset="0.15" stop-color="#FDE79C"/>
<stop offset="0.22" stop-color="#FBD87E"/>
<stop offset="0.29" stop-color="#F9CB66"/>
<stop offset="0.36" stop-color="#F7C355"/>
<stop offset="0.44" stop-color="#F6BE4B"/>
<stop offset="0.54" stop-color="#F6BC48"/>
<stop offset="0.55" stop-color="#F4BA46"/>
<stop offset="0.66" stop-color="#DDA029"/>
<stop offset="0.78" stop-color="#CC8D14"/>
<stop offset="0.89" stop-color="#C28208"/>
<stop offset="1" stop-color="#BF7E04"/>
</linearGradient>
</defs>
</svg>
