<svg width="110" height="87" viewBox="0 0 110 87" fill="none" xmlns="http://www.w3.org/2000/svg">
<path d="M55 64.3372L2.8116 82.8624L27.4848 43.4456L2.8116 4.04041L55 22.5656L107.188 4.04041L82.5152 43.4456L107.188 82.8624L55 64.3372Z" fill="#F9BF4B"/>
<path d="M104.961 5.82683L81.4132 43.4456L104.961 81.076L55 63.3396L5.0388 81.076L28.5868 43.4456L5.0388 5.82683L55 23.5632L104.961 5.82683ZM109.416 2.24243L104.335 4.05203L55 21.568L5.6652 4.05203L0.584396 2.24243L3.4496 6.82443L26.3712 43.4456L3.4496 80.0784L0.584396 84.6488L5.6652 82.8508L55 65.3348L104.335 82.8508L109.416 84.6488L106.55 80.0784L83.6288 43.4456L106.55 6.82443L109.416 2.24243Z" fill="#3F271B"/>
<path d="M5.0388 81.076L55 43.4456L104.961 81.076L55 63.3396L5.0388 81.076Z" fill="#BF7E04"/>
<path d="M104.961 5.82678L55 43.4456L5.0388 5.82678L55 23.5632L104.961 5.82678Z" fill="#FFF2B1"/>
<path d="M30.872 85.2404L6.74399 43.4456L30.872 1.66241H79.128L103.256 43.4456L79.128 85.2404H30.872Z" fill="url(#paint0_linear)"/>
<path d="M78.5828 2.60201L102.166 43.4456L78.5828 84.3008H31.4172L7.8344 43.4456L31.4172 2.60201H78.5828ZM79.6732 0.711212H30.3268L29.7816 1.66241L6.19879 42.506L5.65359 43.4456L6.19879 44.3968L29.7816 85.2404L30.3268 86.18H79.6732L80.2184 85.2404L103.801 44.3968L104.346 43.4456L103.801 42.506L80.2184 1.66241L79.6732 0.711212Z" fill="#301905"/>
<path d="M89.9624 47.2388L68.3632 46.8444L43.8292 66.2048L35.7208 63.4672L30.3152 69.8008L27.8096 53.9436L19.1908 44.9652L10.8156 48.6192L31.4172 84.3008H78.5828L88.8836 66.46L96.2844 53.0272L89.9624 47.2388Z" fill="#F28705"/>
<path d="M24.9908 45.9512L22.9028 34.85L21.998 31.3816L23.8888 21.8464L23.9816 19.2712L27.6356 18.2504L30.4776 16.4292L37.1592 14.9676L45.1748 18.9116L46.4276 22.7744L49.2116 27.2868L50.9284 35.3952L48.9912 34.7224L48.6896 43.086L45.546 43.26L42.4024 51.8788L35.9992 48.9672L35.3032 53.7812L29.422 49.1876L27.8096 53.9436L24.9908 45.9512Z" fill="#301905"/>
<path d="M57.6216 48.1436L50.1744 37.866L49.896 45.2436L46.416 45.4408L45.72 49.7212C45.2328 53.7232 44.4788 61.6576 44.4788 61.6576L41.2772 78.8488L44.8848 77.7932C44.8848 77.7932 49.7568 67.7824 49.4204 68.8496L55 72.4456L69.5 76.842L70.9384 57.644L57.6216 48.1436Z" fill="#301905"/>
<path d="M41.7992 64.372C42.3328 61.878 42.704 59.3492 43.1912 56.8436C43.4116 55.6836 43.6204 54.5236 43.8292 53.3636L43.6088 53.9668L43.3768 54.6164L42.7852 54.3496L36.9156 51.67L36.3472 55.6024L36.1848 56.7624L35.3612 56.1128L31.0344 52.7256C31.0344 52.7256 31.6144 57.5628 32.8672 58.9896C34.12 60.4164 41.7528 64.6852 41.7528 64.6852C41.7598 64.5797 41.7754 64.475 41.7992 64.372Z" fill="#301905"/>
<path d="M22.52 27.368C22.52 27.368 25.8608 32.994 25.7332 33.9104C25.407 36.1812 24.787 38.3999 23.8888 40.5108C23.8888 40.5108 24.028 42.506 27.0556 41.8332C28.5203 41.603 29.922 41.0739 31.1736 40.2788L34.9204 32.1588L30.0716 26.6024L22.52 27.368Z" fill="#F9BF4B"/>
<path d="M32.2988 25.9296L35.6744 25.4308L35.7672 27.5188L32.2756 26.4052L32.2988 25.9296Z" fill="#F9BF4B"/>
<path d="M32.1944 26.5676L33.888 27.1824L35.3496 29.5024" fill="#301905"/>
<path d="M32.3568 26.1268L33.9808 26.9504L34.0736 27.0084L34.0968 27.0548L35.3496 29.5024L33.6908 27.31L33.8068 27.4028L32.0436 27.0084L32.3568 26.1268Z" fill="#F9BF4B"/>
<path d="M30.64 24.3636C30.0484 23.7372 26.986 23.6908 24.7356 23.8996C23.23 24.19 21.7758 24.7021 20.4204 25.4192C20.084 25.6744 20.954 30.1172 20.954 30.1172C21.5634 29.1831 22.2971 28.3362 23.1348 27.6L26.4524 27.368L27.7168 30.1984L29.7236 27.8784C29.7236 27.8784 33.2036 32.0892 33.2036 33.2376C32.5308 34.8732 29.6424 40.6152 29.6424 40.6152L27.8908 38.04L28.088 40.9632L24.608 40.6152C23.7572 40.0934 23.0418 39.3779 22.52 38.5272C22.6798 40.0483 22.9473 41.5562 23.3204 43.0396L29.0392 44.2692L36.2428 33.0172C36.2428 33.0172 31.5796 25.28 30.64 24.3636Z" fill="#301905"/>
<path d="M27.6588 23.2848L29.9788 21.8928H30.06H36.44L36.5676 22.0088L40.4304 25.28L40.5232 25.3612V25.4656C41.279 27.4954 41.9295 29.563 42.472 31.66C42.6075 32.1987 42.7121 32.7448 42.7852 33.2956C42.8153 33.5964 42.8153 33.8995 42.7852 34.2004C42.773 34.3942 42.7217 34.5836 42.6344 34.7572C42.5627 34.8906 42.4813 35.0185 42.3908 35.14C41.7081 36.0426 40.8811 36.8265 39.9432 37.46H39.8736L35.8948 38.7592L36.0572 38.6664C34.236 40.2556 32.4148 41.8216 30.4776 43.3064C30.234 43.492 29.9788 43.666 29.712 43.84C29.4206 44.0493 29.0888 44.1955 28.7376 44.2692C28.0921 44.373 27.4343 44.373 26.7888 44.2692C25.5625 44.1118 24.3543 43.836 23.1812 43.4456L22.9724 43.376L22.8912 43.1672C22.6225 42.4094 22.4055 41.6343 22.2416 40.8472C22.0484 40.0426 21.9896 39.2117 22.0676 38.388L22.2416 36.5436L22.9492 38.2372C23.1442 38.6922 23.3893 39.1241 23.68 39.5248C23.7912 39.7088 23.9375 39.869 24.1107 39.9964C24.2839 40.1238 24.4804 40.2158 24.6892 40.2672V40.65C24.3891 40.6815 24.0871 40.6121 23.8308 40.4528C23.5894 40.321 23.3669 40.1571 23.1696 39.9656C22.7767 39.5992 22.43 39.1863 22.1372 38.736L23.0188 38.5852C22.9647 39.3007 23.0195 40.0204 23.1812 40.7196C23.3384 41.4515 23.5438 42.1723 23.796 42.8772L23.506 42.5988C24.6154 42.9685 25.7573 43.2327 26.9164 43.3876C27.462 43.4753 28.018 43.4753 28.5636 43.3876C28.8041 43.3387 29.0302 43.2355 29.2248 43.086C29.4684 42.9352 29.7004 42.7612 29.944 42.5872C31.8 41.1256 33.6444 39.548 35.454 38.04L35.5352 37.9704H35.6164L39.6068 36.6712H39.4792C40.3272 36.0921 41.0755 35.3791 41.6948 34.56C41.7648 34.4687 41.8269 34.3717 41.8804 34.27C41.8934 34.1971 41.8934 34.1225 41.8804 34.0496C41.9027 33.8142 41.9027 33.5773 41.8804 33.342C41.8067 32.8305 41.7061 32.3232 41.5788 31.8224C41.0607 29.763 40.4295 27.7338 39.688 25.744L39.8272 25.9296L36.0224 22.67L36.3124 22.786L30.1064 22.5308H30.2804L27.9024 23.7604L27.6588 23.2848Z" fill="#F9BF4B"/>
<path d="M24.9444 23.8184L29.7468 24.2708L31.4404 26.846C31.9508 28.006 32.728 29.8388 33.1224 30.6972L32.8904 31.3352L30.176 27.716L29.3292 26.556L28.61 27.7856L28.0184 28.7948L27.4036 27.1708L27.16 26.5792H25.6868L25.768 24.6768L23.8888 24.5956L23.796 26.8228L22.9028 27.1128C22.3107 27.4489 21.7873 27.8936 21.36 28.4236C21.2672 27.5884 21.186 26.6604 21.1396 25.8832L24.9908 23.8184H24.9444ZM24.7936 22.844L20.1536 25.338C20.239 27.1399 20.4444 28.9342 20.7684 30.7088C21.4476 29.6824 22.281 28.7668 23.2392 27.9944L24.7588 27.4956L24.8748 24.6188L24.7588 27.4956H26.5684L27.8792 30.9756L29.48 28.2728L33.2268 33.2956L34.12 30.6392C33.9228 30.326 32.2408 26.4052 32.2408 26.4052L30.2456 23.3776L24.7124 22.844H24.7936Z" fill="#F9BF4B"/>
<path d="M40.384 26.9852C41.4752 26.365 42.7651 26.1944 43.98 26.5096C44.5368 26.6604 44.0496 28.2148 43.5276 29.4096C43.3668 29.7958 43.1268 30.144 42.8231 30.4317C42.5194 30.7194 42.1587 30.9403 41.7644 31.08" stroke="#F9BF4B" stroke-width="0.81" stroke-miterlimit="10"/>
<path d="M23.4712 23.8416C23.4712 23.8416 24.0164 25.3032 24.6312 25.4076C25.246 25.512 26.7076 23.2848 26.7076 23.2848L24.7472 23.1224L23.4712 23.8416Z" fill="#F9BF4B"/>
<path d="M29.8512 21.1272L31.8 23.7952L38.0524 21.5564" fill="#301905"/>
<path d="M29.8512 21.1272C30.6783 21.8862 31.4534 22.7 32.1712 23.5632L31.7072 23.424C32.7255 22.981 33.7672 22.5937 34.8276 22.264C35.8937 21.9273 36.9888 21.6904 38.0988 21.5564C37.1533 22.1557 36.1555 22.6681 35.1176 23.0876C34.0949 23.5097 33.0493 23.8738 31.9856 24.178L31.6724 24.2592L31.5216 24.0388C30.9015 23.106 30.3435 22.1333 29.8512 21.1272Z" fill="#F9BF4B"/>
<path d="M31.5912 59.1288C30.7197 57.2238 30.0622 55.228 29.6308 53.178L28.2156 62.226L25.188 75.0788L31.2316 78.9068L35.3728 65.2072L35.9064 62.5392C35.9064 62.5392 32.612 60.9268 31.5912 59.1288Z" fill="#301905"/>
<path d="M53.7356 38.62L54.594 34.4556L56.914 37.1352C58.6192 39.6408 57.7608 40.418 57.03 40.6152C58.8976 42.6684 64.57 41.636 67.3424 43.5732C70.6136 45.8932 69.8248 53.816 69.8248 53.816L69.0476 55.5212C69.0476 55.5212 68.5488 46.6124 67.1452 45.0812C65.0108 42.7612 59.7212 43.2484 57.5636 42.7612C56.5704 42.437 55.7397 41.7434 55.2436 40.824C53.84 40.6384 53.7356 38.62 53.7356 38.62Z" fill="#301905"/>
<path d="M95.6 54.5816C94.9274 54.0153 94.2225 53.4885 93.4888 53.004C92.7976 52.5758 92.1489 52.0825 91.5516 51.5308C90.7759 50.6522 90.3615 49.5125 90.3916 48.3408C89.2316 47.0532 90.2756 45.1276 90.322 45.0464L94.0224 41.0792L94.8344 45.7192C95.0532 46.8653 94.8159 48.0515 94.1732 49.0252C93.9386 49.2792 93.6227 49.4433 93.28 49.4892C94.0555 50.5969 95.036 51.5459 96.1684 52.2848L97.166 53.0736L96.0756 54.9644L95.6 54.5816Z" fill="url(#paint1_linear)"/>
<path d="M93.7092 42.0884L94.3588 45.8004C94.5328 48.4568 93.7324 49.0368 93.0016 49.0368C92.8629 49.0537 92.7227 49.0537 92.584 49.0368C92.9088 50.5912 94.8112 51.8788 96.5396 53.2476L95.948 54.2916C94.5676 53.062 92.8392 52.1804 91.9112 51.2524C91.189 50.4032 90.8086 49.3158 90.844 48.2016C89.684 47.1576 90.728 45.3364 90.728 45.3364L93.7092 42.1464V42.0884ZM94.3124 40.128L93.0132 41.5084L90.0436 44.6868L89.9624 44.768V44.8724C89.6121 45.4281 89.4261 46.0715 89.4261 46.7284C89.4261 47.3853 89.6121 48.0288 89.9624 48.5844C89.9826 49.8239 90.4573 51.0127 91.2964 51.9252C91.914 52.4724 92.5777 52.9653 93.28 53.3984C93.9975 53.8682 94.6869 54.3795 95.3448 54.9296L96.2032 55.6952L96.7832 54.6976L97.3864 53.6652L97.7924 52.9576L97.1544 52.4588L96.4584 51.9136C95.5635 51.2849 94.7459 50.5529 94.0224 49.7328C94.2109 49.6322 94.3798 49.4987 94.5212 49.3384C94.888 48.8206 95.1477 48.2348 95.2851 47.6153C95.4226 46.9958 95.435 46.3551 95.3216 45.7308V45.638L94.672 41.926L94.3472 40.07L94.3124 40.128Z" fill="#301905"/>
<path d="M59.292 71.4596L64.3612 53.9088L66.5304 50.974L66.2056 56.6116L69.906 60.9848L62.4356 78.0252L59.292 71.4596Z" fill="url(#paint2_linear)"/>
<path d="M65.9736 52.5284L65.73 56.774L69.3608 61.066L62.4008 76.9L59.7908 71.4132L64.7788 54.1176L65.9388 52.5284H65.9736ZM67.0988 49.4196L65.208 51.96L64.048 53.5608L63.9436 53.7V53.8624L58.9556 71.158L58.8512 71.4944L59.002 71.8192L61.6236 77.306L62.5052 79.162L63.3404 77.2712L70.3004 61.4372L70.544 60.9036L70.08 60.4512L66.6928 56.4492L66.9132 52.5748L67.0988 49.4196Z" fill="#301905"/>
<path d="M63.7928 81.656L69.2912 64.1632V64.0008C68.978 64.0008 68.8736 63.8732 63.874 57.4816L63.7812 57.354V57.1916C63.7812 56.9944 63.7812 52.2384 64.4076 50.452C64.9412 49.0252 65.8924 47.0996 66.2288 46.4268L63.12 41.1604L74.9288 35.3604L77.7244 39.084C79.5606 39.9319 81.2031 41.148 82.55 42.6568C84.174 44.7332 86.3664 54.1176 86.5984 55.1732L91.5052 62.9452L82.5384 78.4892L79.708 78.292L74.5808 71.9352L69.4072 82.12L63.7928 81.656Z" fill="url(#paint3_linear)"/>
<path d="M74.778 35.9172L77.4112 39.3972C79.2109 40.2316 80.8274 41.4144 82.1672 42.8772C83.8144 44.9652 86.146 55.2776 86.146 55.2776L90.96 62.8988L82.2832 77.9788L79.9632 77.8628L75.068 71.7844C75.5668 70.7288 82.7008 56.4724 82.7008 56.4724C82.7008 56.4724 81.9352 47.1112 81.7612 45.2668L82.028 56.31L69.1172 81.598L64.4772 81.2268L69.79 64.314C69.79 64.314 71.8548 58.3052 72.9568 54.222L73.9196 52.0876L72.98 52.4124C72.6427 53.0726 72.3407 53.7502 72.0752 54.4424C71.2052 56.9712 70.312 61.008 69.3956 63.5136C69.268 63.56 64.28 57.1916 64.28 57.1916C64.28 57.1916 64.28 52.3428 64.8832 50.626C65.4864 48.9092 66.8088 46.4036 66.8088 46.4036L63.816 41.3576L74.778 35.9172ZM75.068 34.6876L74.3488 35.0472L63.3752 40.4876L62.4356 40.9632L62.9808 41.8564L65.73 46.4964C65.324 47.32 64.5004 49.0368 64.0132 50.336C63.3172 52.1688 63.3404 56.7392 63.352 57.296V57.6324L63.5492 57.8876C67.0292 62.342 68.1892 63.8384 68.7576 64.3372L63.5144 80.96L63.12 82.12L64.28 82.2128L68.92 82.5956H69.5696L69.8712 82.0156L74.72 72.84L79.2324 78.4428L79.5108 78.7792H79.94L82.26 78.8836H82.8516L83.1532 78.3732L91.8184 63.2932L92.12 62.7828L91.7604 62.4L87.1204 54.9412C86.7376 53.294 84.6496 44.42 82.9792 42.3088C81.6182 40.7748 79.961 39.5319 78.1072 38.6548L75.6132 35.3372L75.126 34.6992L75.068 34.6876Z" fill="#301905"/>
<path d="M73.9428 26.2196L70.7644 25.28L64.6628 26.44L61.38 30.384C61.38 30.384 59.64 36.88 60.4984 38.04C61.3568 39.2 63.4216 41.6476 63.4216 41.6476L67.5396 42.216C67.5396 42.216 72.342 44.6636 74.0356 45.29C75.7292 45.9164 79.766 43.6892 79.766 43.6892C80.107 42.1652 80.1503 40.5896 79.8936 39.0492C79.8936 39.0492 78.9076 41.7056 77.8404 41.8332L74.14 35.72L73.9428 26.2196Z" fill="#F9BF4B"/>
<path d="M78.6292 29.108C78.6292 29.108 75.9728 35.2792 76.228 36.126C76.6794 37.987 77.4149 39.7672 78.4088 41.404C78.4088 41.404 78.5596 43.2948 75.6132 43.1788C74.2138 43.2095 72.8232 42.9488 71.53 42.4132L67.586 36.358L71.3792 30.3028L75.0564 28.1568L78.6292 29.108Z" fill="#301905"/>
<path d="M68.688 29.7344L66.0548 29.8156L66.2172 31.428L68.7692 30.094L68.688 29.7344Z" fill="#301905"/>
<path d="M69.964 30.8016C69.6202 30.7731 69.2741 30.8085 68.9432 30.906C68.5664 31.0013 68.2037 31.1456 67.8644 31.3352C67.2306 31.847 66.8157 32.5813 66.7044 33.3884C66.5457 32.4575 66.7536 31.5013 67.2844 30.7204C67.5978 30.339 67.9518 29.9928 68.34 29.688C68.7609 29.3576 69.2358 29.1025 69.7436 28.934L69.964 30.8016Z" fill="#301905"/>
<path d="M71.0428 26.788C72.6996 26.0465 74.4096 25.43 76.1584 24.9436C77.3184 24.8508 80.3112 26.4864 80.7984 26.7184C81.2856 26.9504 81.3204 30.964 81.3204 30.964C80.6942 30.2158 79.899 29.6273 79.0004 29.2472C78.2756 29.0396 77.5112 29.0117 76.7732 29.166L74.8592 29.514L73.7804 31.2656L72.4 30.7436C72.4 30.7436 69.2564 35.6272 69.4188 36.7524C70.3352 38.2488 73.2932 42.4364 73.2932 42.4364L74.372 40.7892L74.836 42.4828L78.2 41.52C78.2 41.52 79.8124 40.5804 80.056 39.4784C80.0754 40.8741 79.9979 42.2695 79.824 43.6544L77.1096 44.8144L74.2908 45.2668L66.3332 36.9728C66.6236 36.9265 66.8947 36.7982 67.1146 36.603C67.3345 36.4077 67.494 36.1537 67.5744 35.8708C68.5952 33.0752 70.37 27.4492 71.0428 26.788Z" fill="#F9BF4B"/>
<path d="M61.3336 31.8108C60.1519 31.3928 58.8539 31.4511 57.7144 31.9732C57.1808 32.2284 57.7956 34.386 58.4916 35.4532C59.1876 36.5204 59.8952 35.9172 60.568 36.0912" fill="#F9BF4B"/>
<path d="M61.3336 31.8108C60.1519 31.3928 58.8539 31.4511 57.7144 31.9732C57.1808 32.2284 57.7956 34.386 58.4916 35.4532C59.1876 36.5204 59.8952 35.9172 60.568 36.0912" stroke="#301905" stroke-width="0.81" stroke-miterlimit="10"/>
<path d="M64.454 42.3784C63.5417 41.6829 62.6703 40.9354 61.844 40.1396C61.4264 39.7452 61.0088 39.3508 60.6144 38.9216L60.3244 38.5852L60.1736 38.4112C60.1082 38.3171 60.0537 38.216 60.0112 38.1096C59.9038 37.7842 59.8528 37.4429 59.8604 37.1004C59.903 35.9289 60.0544 34.7638 60.3128 33.6204C60.5448 32.4604 60.8348 31.3816 61.148 30.268V30.1984C61.5707 29.2902 62.1088 28.4402 62.7488 27.6696C63.3957 26.848 64.248 26.2118 65.2196 25.8252C66.1511 25.4865 67.1152 25.2455 68.0964 25.106C69.0532 24.9571 70.0175 24.8603 70.9848 24.816H71.1356L73.2816 25.6628L73.1772 26.034L70.8572 25.7324H70.9964C69.1444 25.8103 67.3127 26.1501 65.556 26.7416C64.7502 27.0816 64.0467 27.6253 63.5144 28.3192C62.9355 29.0285 62.4483 29.808 62.0644 30.6392V30.5696C61.7512 31.6484 61.4844 32.7504 61.2292 33.8408C60.9693 34.9136 60.8139 36.0092 60.7652 37.112C60.748 37.3386 60.7716 37.5665 60.8348 37.7848C60.8348 37.7848 60.8348 37.7848 60.8348 37.8544L60.9508 38.0168L61.206 38.3416L62.25 39.6756C63.12 40.534 63.7812 41.4504 64.454 42.3784Z" fill="#301905"/>
<path d="M77.678 41.1372C78.1135 40.9338 78.507 40.6505 78.838 40.302C79.2151 39.9391 79.5677 39.5515 79.8936 39.142L80.462 38.4808L80.7056 39.316C80.9074 40.0717 80.9664 40.8585 80.8796 41.636C80.8244 42.3797 80.704 43.1172 80.52 43.84V44.072L80.2532 44.1648C79.0035 44.6217 77.7294 45.009 76.4368 45.3248C75.7828 45.4813 75.1205 45.6013 74.4532 45.6844C73.7273 45.8088 72.9831 45.7731 72.2724 45.58C70.9755 44.8563 69.801 43.9324 68.7924 42.8424C70.2007 43.2697 71.5349 43.9114 72.748 44.7448H72.6552C73.2189 44.8485 73.7967 44.8485 74.3604 44.7448C74.9868 44.6404 75.6132 44.5244 76.2396 44.3736C77.4808 44.072 78.7452 43.7124 79.9632 43.3296L79.6384 43.6776C80.0471 42.4204 80.1426 41.0825 79.9168 39.78L80.7288 39.954C80.3528 40.3791 79.9372 40.7676 79.4876 41.114C79.2558 41.2891 79.0071 41.4406 78.7452 41.5664C78.4624 41.7042 78.1546 41.7832 77.8404 41.7984L77.678 41.1372Z" fill="#301905"/>
<path d="M69.3608 36.7524C69.8248 35.5924 70.3004 34.502 70.776 33.3768C71.2193 32.2411 71.7227 31.1298 72.284 30.0476L72.632 29.4444L73.0612 29.9664L74.2212 31.2772H73.4672L74.6968 29.3052L74.8012 29.1312H74.9984L76.7036 28.8064L76.3324 29.3284L76.0308 27.1244L76.9588 26.9968L77.2604 29.2008L76.8312 28.7948L78.8148 28.934H78.9076C79.3867 29.0785 79.8494 29.2729 80.288 29.514C80.7172 29.7344 81.1232 29.9664 81.5408 30.21L80.8216 30.5464C80.8662 29.8911 80.8311 29.2328 80.7172 28.586C80.6244 27.9016 80.5084 27.2172 80.3692 26.5444L80.6476 26.8808L76.112 25.0364H76.4368L71.124 26.7532L71.4024 26.5096C71.1472 27.0316 70.9616 27.5884 70.66 28.0872L69.8016 29.63C69.21 31.3352 68.6416 33.11 67.992 34.7224C68.2124 33.8524 68.3864 32.9708 68.5952 32.1008L69.1984 29.4676L69.79 27.8088C69.9756 27.252 70.2656 26.7416 70.4976 26.208L70.5788 26.0224L70.7876 25.9528L76.1004 24.236L76.2628 24.178L76.4252 24.2476L80.9608 26.092L81.1928 26.1848V26.4284C81.3436 27.1244 81.4712 27.8204 81.564 28.5396C81.6884 29.2594 81.7273 29.9914 81.68 30.7204V31.428L80.984 31.08C80.6012 30.848 80.1952 30.616 79.824 30.4072C79.454 30.2045 79.0656 30.0375 78.664 29.9084H78.7452L76.75 29.7692H76.3672V29.3864L76.0656 27.1824L76.9936 27.0548L77.2952 29.2588L77.3648 29.6996L76.924 29.7924L75.2188 30.1172L75.532 29.8968L74.3024 31.8688L73.9544 32.414L73.5368 31.9152L72.3768 30.6044L73.154 30.5232C72.5694 31.5951 71.9306 32.6366 71.24 33.6436C70.66 34.6876 70.08 35.72 69.3608 36.7524Z" fill="#301905"/>
<path d="M77.8404 25.5468C77.8404 25.5468 77.272 27.2404 76.6804 27.4492C76.0888 27.658 74.256 25.5932 74.256 25.5932L76.2976 24.9436L77.8404 25.5468Z" fill="#301905"/>
<path d="M83.2344 76.2388L53.7472 68.0492L47.2628 70.7172L36.8808 70.578L29.8512 74.406L21.4876 67.1096L31.4172 84.3008H78.5828L83.2344 76.2388Z" fill="#7F3705"/>
<defs>
<linearGradient id="paint0_linear" x1="55" y1="1.66241" x2="55" y2="85.2404" gradientUnits="userSpaceOnUse">
<stop offset="0.11" stop-color="#FFF2B1"/>
<stop offset="0.18" stop-color="#FEEEAA"/>
<stop offset="0.28" stop-color="#FDE495"/>
<stop offset="0.41" stop-color="#FAD273"/>
<stop offset="0.54" stop-color="#F6BC48"/>
<stop offset="0.64" stop-color="#F2B843"/>
<stop offset="0.76" stop-color="#E7AB35"/>
<stop offset="0.89" stop-color="#D4951E"/>
<stop offset="1" stop-color="#BF7E04"/>
</linearGradient>
<linearGradient id="paint1_linear" x1="93.5004" y1="41.0792" x2="93.5004" y2="54.9644" gradientUnits="userSpaceOnUse">
<stop stop-color="#F6BC48"/>
<stop offset="0.16" stop-color="#E8AD37"/>
<stop offset="0.46" stop-color="#C5840B"/>
<stop offset="0.51" stop-color="#BF7E04"/>
</linearGradient>
<linearGradient id="paint2_linear" x1="64.6048" y1="50.974" x2="64.6048" y2="78.0252" gradientUnits="userSpaceOnUse">
<stop offset="0.02" stop-color="#F6BC48"/>
<stop offset="0.05" stop-color="#EFB43F"/>
<stop offset="0.13" stop-color="#DDA029"/>
<stop offset="0.23" stop-color="#D09118"/>
<stop offset="0.35" stop-color="#C6860D"/>
<stop offset="0.52" stop-color="#C18006"/>
<stop offset="1" stop-color="#BF7E04"/>
</linearGradient>
<linearGradient id="paint3_linear" x1="77.3184" y1="35.3024" x2="77.3184" y2="82.1084" gradientUnits="userSpaceOnUse">
<stop offset="0.15" stop-color="#F6BC48"/>
<stop offset="0.29" stop-color="#EDB23D"/>
<stop offset="0.52" stop-color="#D69720"/>
<stop offset="0.71" stop-color="#BF7E04"/>
</linearGradient>
</defs>
</svg>
