<svg width="68" height="68" viewBox="0 0 68 96" fill="none" xmlns="http://www.w3.org/2000/svg">
<path d="M56.32 26.68C55.6591 24.4881 54.6786 22.4057 53.41 20.5C55.41 19.61 56.01 16.9 56.1 15.45C56.19 14 54.77 12.7 53.27 12.22C51.27 11.57 47.88 11.54 46.01 13.22C41.9736 10.589 37.1851 9.3559 32.38 9.70999C28.9598 10.0032 25.6587 11.107 22.75 12.93C20.93 11.11 17.37 11.11 15.29 11.78C13.79 12.27 12.38 13.59 12.47 15.02C12.56 16.45 13.2 19.37 15.38 20.15C12.2785 24.7609 10.846 30.2933 11.32 35.83C12.55 49 25 59.38 37.73 57.54C51.69 55.52 60.14 39.65 56.32 26.68Z" fill="#301905"/>
<path d="M21.35 24.05C22.92 22.68 29.09 25.74 28.91 28.25C28.8 29.83 26.14 31.57 23.91 30.98C20.68 30.15 20.09 25.16 21.35 24.05Z" fill="white"/>
<path d="M45.58 24.05C44 22.68 37.84 25.74 38 28.25C38.11 29.83 40.77 31.57 43 30.98C46.25 30.15 46.85 25.16 45.58 24.05Z" fill="white"/>
<path d="M60.53 35.93C60.9864 33.3345 61.7034 30.7916 62.67 28.34C62.2635 26.1081 61.5921 23.9327 60.67 21.86C52.67 26.95 43.85 35.29 39.82 48.48C38.581 45.9992 36.9118 43.7578 34.89 41.86C35.5498 40.2941 36.5346 38.8862 37.7793 37.7295C39.0239 36.5727 40.5001 35.6935 42.11 35.15C38.6441 36.1152 35.3862 37.712 32.5 39.86C29.6168 37.713 26.3624 36.1163 22.9 35.15C24.5081 35.6947 25.9823 36.5745 27.2251 37.7312C28.468 38.8879 29.4513 40.2951 30.11 41.86C28.8007 43.1073 27.6336 44.4958 26.63 46C23.0748 36.0012 16.3141 27.458 7.4 21.7C6.51395 23.6201 5.84319 25.6323 5.4 27.7C6.90867 30.8455 8.06244 34.1492 8.84 37.55C7.65333 35.5607 6.31609 33.6651 4.84 31.88C4.84 32.47 4.78 33.06 4.78 33.66C4.77932 38.6595 6.06496 43.5752 8.5133 47.9342C10.9616 52.2932 14.4903 55.949 18.76 58.55L26.02 56.55L31.75 57.39C31.75 57.53 31.75 57.61 31.75 57.61L32.54 57.5L33.33 57.61C33.33 57.61 33.33 57.53 33.33 57.39L38.25 56.66L48.56 59C53.009 56.4396 56.7029 52.7498 59.2684 48.3038C61.8338 43.8577 63.1797 38.8131 63.17 33.68C63.17 33.53 63.17 33.38 63.17 33.23C62.27 34.07 61.39 35 60.53 35.93Z" fill="#F28705"/>
<path d="M60.3 46.31C60.6697 42.2685 61.6299 38.303 63.15 34.54C63.15 34.25 63.15 33.97 63.15 33.68C63.1535 31.6259 62.9355 29.5774 62.5 27.57C57.6741 30.4098 53.3216 33.9863 49.6 38.17C47.19 38.87 37.02 42.38 32.67 52.49C27.72 41 15.22 38 15.22 38C21.96 40.26 23.9 47.09 24.32 52.63H23.65C19.7672 43.6478 13.2681 36.044 5.00002 30.81C4.91002 31.75 4.86002 32.71 4.86002 33.68C4.87125 40.2818 7.12157 46.6845 11.2432 51.8416C15.3647 56.9987 21.1138 60.6052 27.5507 62.0716C33.9875 63.538 40.7314 62.7776 46.6801 59.9146C52.6288 57.0516 57.4304 52.2555 60.3 46.31ZM41.05 52.37C41.5 47.06 43.39 40.67 49.51 38.26C45.8616 42.4143 42.9954 47.1947 41.05 52.37Z" fill="#843C0B"/>
<path d="M34 62.59C26.3326 62.59 18.9792 59.5441 13.5576 54.1225C8.13587 48.7008 5.09001 41.3474 5.09001 33.68C5.09001 26.0126 8.13587 18.6592 13.5576 13.2375C18.9792 7.81587 26.3326 4.77 34 4.77V0.389999C29.6263 0.389999 25.2955 1.25146 21.2547 2.92519C17.214 4.59892 13.5425 7.05215 10.4498 10.1448C7.35716 13.2375 4.90393 16.909 3.2302 20.9497C1.55647 24.9905 0.695007 29.3213 0.695007 33.695C0.695007 38.0687 1.55647 42.3995 3.2302 46.4403C4.90393 50.481 7.35716 54.1525 10.4498 57.2452C13.5425 60.3378 17.214 62.7911 21.2547 64.4648C25.2955 66.1385 29.6263 67 34 67V62.59Z" fill="#843C0B"/>
<path d="M34 4.77C41.6674 4.77 49.0208 7.81587 54.4425 13.2375C59.8641 18.6592 62.91 26.0126 62.91 33.68C62.91 41.3474 59.8641 48.7008 54.4425 54.1225C49.0208 59.5441 41.6674 62.59 34 62.59V67C38.3737 67 42.7045 66.1385 46.7453 64.4648C50.786 62.7911 54.4575 60.3378 57.5502 57.2452C60.6428 54.1525 63.0961 50.481 64.7698 46.4403C66.4435 42.3995 67.305 38.0687 67.305 33.695C67.305 29.3213 66.4435 24.9905 64.7698 20.9497C63.0961 16.909 60.6428 13.2375 57.5502 10.1448C54.4575 7.05215 50.786 4.59892 46.7453 2.92519C42.7045 1.25146 38.3737 0.389999 34 0.389999V4.77Z" fill="#301905"/>
<path d="M34 70.8C28.9928 70.8051 24.0367 69.7938 19.4318 67.8274C14.8269 65.861 10.669 62.9804 7.21002 59.36C17.91 77.4 34 95.61 34 95.61C34 95.61 50.09 77.4 60.79 59.36C57.331 62.9804 53.1731 65.861 48.5682 67.8274C43.9633 69.7938 39.0072 70.8051 34 70.8Z" fill="#301905"/>
<path d="M34 70.8C28.9928 70.8051 24.0367 69.7938 19.4318 67.8274C14.8269 65.861 10.669 62.9804 7.21002 59.36C17.91 77.4 34 95.61 34 95.61V70.8Z" fill="#843C0B"/>
</svg>
