<svg width="130" height="130" viewBox="0 0 100 100" fill="none" xmlns="http://www.w3.org/2000/svg">
<path d="M50 65.52C66.7563 65.52 80.34 51.9363 80.34 35.18C80.34 18.4237 66.7563 4.84001 50 4.84001C33.2437 4.84001 19.66 18.4237 19.66 35.18C19.66 51.9363 33.2437 65.52 50 65.52Z" fill="#1E1A1A"/>
<path d="M43.72 61.56C42.4007 61.5559 41.114 61.1499 40.0313 60.3959C38.9487 59.642 38.1215 58.576 37.66 57.34L27.45 29.76C27.076 28.7506 26.9606 27.6636 27.1143 26.5981C27.268 25.5326 27.686 24.5226 28.33 23.66L37.47 11.4C38.0724 10.5943 38.854 9.93987 39.7531 9.48859C40.6522 9.03731 41.644 8.80155 42.65 8.8H57.35C58.356 8.80155 59.3478 9.03731 60.2469 9.48859C61.146 9.93987 61.9277 10.5943 62.53 11.4L71.67 23.66C72.3141 24.5226 72.732 25.5326 72.8857 26.5981C73.0395 27.6636 72.924 28.7506 72.55 29.76L62.34 57.34C61.8786 58.576 61.0514 59.642 59.9687 60.3959C58.8861 61.1499 57.5993 61.5559 56.28 61.56H43.72Z" fill="#56647A"/>
<path d="M57.35 9.76C58.209 9.76309 59.0552 9.9673 59.821 10.3563C60.5868 10.7453 61.2509 11.3082 61.76 12L70.9 24.23C71.4506 24.9646 71.8078 25.8257 71.9388 26.7343C72.0699 27.6428 71.9706 28.5698 71.65 29.43L61.44 57C61.0497 58.0539 60.346 58.963 59.4234 59.6048C58.5009 60.2466 57.4039 60.5905 56.28 60.59H43.72C42.5962 60.5905 41.4991 60.2466 40.5766 59.6048C39.6541 58.963 38.9503 58.0539 38.56 57L28.35 29.43C28.0295 28.5698 27.9302 27.6428 28.0612 26.7343C28.1923 25.8257 28.5495 24.9646 29.1 24.23L38.24 12C38.7523 11.3137 39.4177 10.7566 40.1834 10.3729C40.949 9.9892 41.7936 9.78961 42.65 9.79H57.35V9.76ZM57.35 7.87H42.65C41.4937 7.87543 40.3545 8.14921 39.322 8.6698C38.2895 9.19038 37.3919 9.94355 36.7 10.87L27.56 23.09C26.8216 24.0802 26.3431 25.2398 26.1685 26.4626C25.9938 27.6855 26.1284 28.9326 26.56 30.09L36.76 57.67C37.2914 59.0969 38.2472 60.3266 39.4987 61.1938C40.7503 62.0609 42.2374 62.5238 43.76 62.52H56.28C57.8026 62.5238 59.2898 62.0609 60.5413 61.1938C61.7929 60.3266 62.7486 59.0969 63.28 57.67L73.45 30.09C73.8816 28.9326 74.0163 27.6855 73.8416 26.4626C73.6669 25.2398 73.1884 24.0802 72.45 23.09L63.3 10.83C62.6081 9.90355 61.7106 9.15038 60.6781 8.6298C59.6456 8.10921 58.5063 7.83543 57.35 7.83V7.87Z" fill="#1E1A1A"/>
<path d="M50 27.45V60.6H56.28C57.405 60.5997 58.5029 60.2544 59.4256 59.6107C60.3483 58.967 61.0513 58.0558 61.44 57L71.65 29.43C71.8887 28.7908 72.004 28.1122 71.99 27.43L50 27.45Z" fill="#2C3A4F"/>
<path d="M72 27.45C71.9886 26.288 71.6067 25.16 70.91 24.23L61.76 12C61.2477 11.3137 60.5823 10.7566 59.8167 10.3729C59.051 9.98921 58.2064 9.78962 57.35 9.79001H42.65C41.7936 9.78962 40.949 9.98921 40.1833 10.3729C39.4177 10.7566 38.7523 11.3137 38.24 12L29.1 24.23C28.3997 25.1588 28.0143 26.2869 28 27.45H72Z" fill="#8B9DB7"/>
<path d="M57.35 9.76C58.209 9.76309 59.0552 9.9673 59.821 10.3563C60.5868 10.7453 61.2509 11.3082 61.76 12L70.9 24.23C71.4506 24.9646 71.8078 25.8257 71.9388 26.7343C72.0699 27.6428 71.9706 28.5698 71.65 29.43L61.44 57C61.0497 58.0539 60.346 58.963 59.4234 59.6048C58.5009 60.2466 57.4039 60.5905 56.28 60.59H43.72C42.5962 60.5905 41.4991 60.2466 40.5766 59.6048C39.6541 58.963 38.9503 58.0539 38.56 57L28.35 29.43C28.0295 28.5698 27.9302 27.6428 28.0612 26.7343C28.1923 25.8257 28.5495 24.9646 29.1 24.23L38.24 12C38.7523 11.3137 39.4177 10.7566 40.1834 10.3729C40.949 9.9892 41.7936 9.78961 42.65 9.79H57.35V9.76ZM57.35 7.87H42.65C41.4937 7.87543 40.3545 8.14921 39.322 8.6698C38.2895 9.19038 37.3919 9.94355 36.7 10.87L27.56 23.09C26.8216 24.0802 26.3431 25.2398 26.1685 26.4626C25.9938 27.6855 26.1284 28.9326 26.56 30.09L36.76 57.67C37.2914 59.0969 38.2472 60.3266 39.4987 61.1938C40.7503 62.0609 42.2374 62.5238 43.76 62.52H56.28C57.8026 62.5238 59.2898 62.0609 60.5413 61.1938C61.7929 60.3266 62.7486 59.0969 63.28 57.67L73.45 30.09C73.8816 28.9326 74.0163 27.6855 73.8416 26.4626C73.6669 25.2398 73.1884 24.0802 72.45 23.09L63.3 10.83C62.6081 9.90355 61.7106 9.15038 60.6781 8.6298C59.6456 8.10921 58.5063 7.83543 57.35 7.83V7.87Z" fill="#1E1A1A"/>
<path d="M68.25 24.81L60.66 14.63C60.1312 13.9191 59.4434 13.3417 58.6517 12.9441C57.8599 12.5465 56.9861 12.3396 56.1 12.34H43.9C43.014 12.3396 42.1402 12.5465 41.3484 12.9441C40.5566 13.3417 39.8688 13.9191 39.34 14.63L31.75 24.81C31.1873 25.5697 30.8239 26.4583 30.6929 27.3945C30.5618 28.3308 30.6675 29.285 31 30.17L39.69 53.66C40.1849 54.9487 41.1299 56.0144 42.35 56.66L50 50.11L57.37 56.84C58.0545 56.533 58.6717 56.0941 59.1864 55.5485C59.7012 55.0028 60.1034 54.3611 60.37 53.66L69 30.17C69.3326 29.285 69.4382 28.3308 69.3072 27.3945C69.1762 26.4583 68.8127 25.5697 68.25 24.81Z" fill="#1E1A1A"/>
<path d="M45.17 42.66C44.82 42.4 36.57 36.06 34.17 26.74L34.11 26.5L39.47 18.64L39.61 20.13C39.61 20.26 40.89 33.24 45.97 41.96L47.33 44.3L45.17 42.66Z" fill="white"/>
<path d="M39.06 20.18C39.06 20.18 40.29 33.3 45.49 42.18C45.49 42.18 37.07 35.8 34.69 26.55L39.06 20.13V20.18ZM39.86 17.04L38.17 19.52L33.79 26L33.52 26.41L33.64 26.88C36.09 36.38 44.48 42.88 44.84 43.11L49.15 46.38L46.43 41.7C41.43 33.08 40.15 20.22 40.14 20.09L39.86 17.09V17.04Z" fill="#1E1A1A"/>
<path d="M53.45 42C58.53 33.28 59.45 20.31 59.51 20.19L59.61 18.71L65.31 26.53L65.25 26.78C62.84 36.1 54.59 42.44 54.25 42.7L52.09 44.3L53.45 42Z" fill="white"/>
<path d="M60.05 20.18L64.72 26.6C62.34 35.85 53.92 42.23 53.92 42.23C59.12 33.3 60.05 20.23 60.05 20.23V20.18ZM59.18 17.23L58.97 20.23C58.97 20.36 57.97 33.23 52.97 41.81L50.25 46.49L54.56 43.22C54.92 42.95 63.31 36.49 65.76 26.99L65.89 26.5L65.6 26L60.92 19.58L59.18 17.18V17.23Z" fill="#1E1A1A"/>
<path d="M50 65.1C42.0647 65.1 34.4545 61.9477 28.8434 56.3366C23.2323 50.7256 20.08 43.1153 20.08 35.18C20.08 27.2447 23.2323 19.6345 28.8434 14.0234C34.4545 8.41228 42.0647 5.26001 50 5.26001V0.740005C40.8659 0.740005 32.106 4.3685 25.6472 10.8272C19.1885 17.286 15.56 26.0459 15.56 35.18C15.56 44.3141 19.1885 53.074 25.6472 59.5328C32.106 65.9915 40.8659 69.62 50 69.62V65.1Z" fill="#56647A"/>
<path d="M50 5.26001C53.9292 5.26001 57.8198 6.03391 61.4499 7.53753C65.08 9.04115 68.3783 11.245 71.1566 14.0234C73.935 16.8017 76.1389 20.1001 77.6425 23.7301C79.1461 27.3602 79.92 31.2509 79.92 35.18C79.92 39.1092 79.1461 42.9998 77.6425 46.6299C76.1389 50.26 73.935 53.5583 71.1566 56.3366C68.3783 59.115 65.08 61.3189 61.4499 62.8225C57.8198 64.3261 53.9292 65.1 50 65.1V69.62C59.1341 69.62 67.894 65.9915 74.3528 59.5328C80.8115 53.074 84.44 44.3141 84.44 35.18C84.44 26.0459 80.8115 17.286 74.3528 10.8272C67.894 4.3685 59.1341 0.740005 50 0.740005V5.26001Z" fill="#2C3A4F"/>
<path d="M50 73.59C44.8188 73.5946 39.6906 72.5476 34.9259 70.5125C30.1611 68.4773 25.859 65.4963 22.28 61.75C33.35 80.42 50 99.26 50 99.26C50 99.26 66.65 80.42 77.72 61.75C74.1409 65.4963 69.8388 68.4773 65.0741 70.5125C60.3093 72.5476 55.1811 73.5946 50 73.59Z" fill="#2C3A4F"/>
<path d="M50 73.59C44.8188 73.5946 39.6906 72.5476 34.9259 70.5125C30.1611 68.4773 25.859 65.4963 22.28 61.75C33.35 80.42 50 99.26 50 99.26V73.59Z" fill="#56647A"/>
</svg>
