<svg width="24" height="41" viewBox="0 0 24 41" fill="none" xmlns="http://www.w3.org/2000/svg">
<path d="M16.2982 35.9929C16.2982 38.2818 14.4665 40.1395 12.1966 40.1395C9.93484 40.1395 8.09492 38.2818 8.09492 35.9929C8.09492 33.704 9.93484 31.8464 12.1966 31.8464C14.4665 31.8464 16.2982 33.7024 16.2982 35.9929ZM12.3262 0.332764C5.71336 0.332764 0.738525 4.79941 0.738525 13.6017H7.22994C7.22994 9.78022 8.71698 6.65373 12.1933 6.65373C14.24 6.65373 16.4115 8.02707 16.5986 10.6526C16.8005 13.4159 15.3397 14.8174 13.4932 16.5938C8.694 21.2047 8.87126 23.3095 8.87126 28.5292H15.343C15.343 26.1209 15.0853 24.3694 18.3597 20.8017C20.5443 18.4199 23.2607 15.4576 23.3182 10.9446C23.3953 4.37148 18.8029 0.332764 12.3262 0.332764V0.332764Z" fill="#8EBA30"/>
</svg>
