<svg width="70" height="98" viewBox="0 0 70 98" fill="none" xmlns="http://www.w3.org/2000/svg">
<path d="M1.63 29.8L11 58.61C11.9526 59.533 12.9541 60.4043 14 61.22L62.66 53.3L66.3 28.61L58.81 32.44L45.56 37.72L37 36.72L20 22L1.63 29.8Z" fill="#301905"/>
<path d="M52.17 47.78L35.72 53.78L22.94 50.78L12.2 53.83L21.45 65.66C25.7501 67.5186 30.3866 68.4729 35.0711 68.4636C39.7557 68.4542 44.3883 67.4814 48.6809 65.6057C52.9736 63.7299 56.8346 60.9913 60.0239 57.56C63.2132 54.1287 65.6626 50.0781 67.22 45.66L52.17 47.78Z" fill="#7F4E2D"/>
<path d="M40.66 60.17L45.89 56.62L54.79 56.37L46.31 58.27L40.66 60.17Z" fill="#301905"/>
<path d="M17.92 53.42L23.26 56.39L33.28 57.98L21.88 58.29L17.92 53.42Z" fill="#301905"/>
<path d="M34.89 16.33C34.89 16.33 38.8 22.88 35.47 28.14C35.47 28.14 35.59 34.84 31.19 36.14C28.19 37.04 19.99 45.37 13.85 45.68C10.97 45.83 7.10004 38.2 7.10004 38.2C7.10004 38.2 7.97004 25.2 11.47 21.2C11.47 21.2 17.39 9.88 28.13 12.92C30 13.4 32.23 12.18 34.89 16.33Z" fill="#301905"/>
<path d="M33.1 13.84C33.1 13.84 37.01 20.39 33.68 25.65C33.68 25.65 33.8 32.35 29.4 33.65C26.4 34.54 18.2 42.88 12.06 43.19C9.18 43.33 5.31 35.7 5.31 35.7C5.31 35.7 6.18 22.7 9.69 18.7C9.69 18.7 15.6 7.38 26.34 10.42C28.17 10.91 30.44 9.69 33.1 13.84Z" fill="#7F4E2D"/>
<path d="M33.27 13.74C33.7699 14.66 34.1753 15.6283 34.48 16.63C34.8057 17.6254 35.0334 18.6503 35.16 19.69C35.2816 20.7382 35.258 21.7982 35.09 22.84C34.903 23.8912 34.5449 24.9046 34.03 25.84L34.09 25.62C34.1784 27.3749 33.9132 29.1296 33.31 30.78C32.9674 31.6533 32.4579 32.4516 31.81 33.13C31.63 33.29 31.47 33.47 31.27 33.62L30.66 34.03C30.4435 34.1475 30.2197 34.251 29.99 34.34L29.65 34.49L29.43 34.59C28.7474 34.9403 28.098 35.352 27.49 35.82C26.83 36.3 26.17 36.82 25.49 37.31C24.16 38.31 22.83 39.31 21.49 40.31C20.0636 41.3427 18.5629 42.2685 17 43.08C16.194 43.4857 15.3542 43.8203 14.49 44.08C14.0431 44.2296 13.585 44.3433 13.12 44.42L12.39 44.53C12.2572 44.5473 12.1228 44.5473 11.99 44.53C11.8068 44.5399 11.6232 44.5399 11.44 44.53C10.3391 44.2897 9.33373 43.7296 8.55 42.92C7.88307 42.3047 7.26768 41.6358 6.71 40.92C5.63987 39.5214 4.67712 38.0439 3.83001 36.5L3.63 36.15V35.65C3.71 34.1 3.84001 32.65 3.99001 31.1C4.14001 29.55 4.36001 28.1 4.62001 26.56C4.89821 25.0144 5.28585 23.4906 5.78001 22C6.26894 20.3224 7.0808 18.7564 8.17001 17.39L7.91001 17.77C8.56509 16.6379 9.3251 15.5699 10.18 14.58C11.0363 13.6025 11.9802 12.7054 13 11.9C15.0663 10.275 17.5332 9.23853 20.14 8.89999C21.4105 8.76406 22.6941 8.81459 23.95 9.05C25.16 9.24 26.44 9.79999 27.38 9.95999C27.93 10.05 28.55 10.07 29.17 10.23C29.7894 10.3722 30.3763 10.6301 30.9 10.99C31.8722 11.7324 32.6792 12.6689 33.27 13.74ZM32.94 13.94C32.3357 12.9771 31.5179 12.1662 30.55 11.57C29.5247 11.1131 28.3934 10.9471 27.28 11.09C26.9452 11.0967 26.6106 11.0733 26.28 11.02L25.42 10.92C24.8722 10.824 24.3157 10.7871 23.76 10.81C22.6796 10.8193 21.6071 10.9947 20.58 11.33C18.5824 12.0113 16.7688 13.144 15.28 14.64C14.5136 15.365 13.8111 16.1546 13.18 17C12.5333 17.8102 11.961 18.677 11.47 19.59L11.36 19.8L11.21 19.98C10.4837 20.9739 9.92929 22.0826 9.57001 23.26C9.11455 24.5724 8.72737 25.9075 8.41001 27.26C8.07001 28.65 7.78001 30.07 7.54001 31.5C7.30001 32.93 7.10001 34.38 6.95001 35.79L6.77001 35C7.46105 36.4256 8.26004 37.7962 9.16001 39.1C9.58313 39.7255 10.0581 40.3142 10.58 40.86C10.9411 41.274 11.3928 41.5991 11.9 41.81C11.926 41.8016 11.954 41.8016 11.98 41.81C11.98 41.81 12.13 41.81 12.19 41.81L12.71 41.75C13.0723 41.7126 13.4305 41.6423 13.78 41.54C14.5194 41.3414 15.2417 41.084 15.94 40.77C17.4056 40.1026 18.8195 39.3272 20.17 38.45C21.56 37.57 22.91 36.62 24.29 35.67C24.98 35.19 25.67 34.67 26.39 34.24C27.1408 33.7437 27.9419 33.328 28.78 33C31.78 32.38 33.03 28.85 33.27 25.7V25.56V25.47C33.8323 24.6488 34.2453 23.7348 34.49 22.77C34.7163 21.7871 34.7939 20.7759 34.72 19.77C34.5538 17.7211 33.9466 15.7323 32.94 13.94Z" fill="#301905"/>
<path d="M7.69002 26.4C7.69002 26.4 15 17.89 21.08 15.71C24.4 14.52 27.08 17.34 28.74 20.34C28.74 20.34 31.74 24.54 30.11 29.34C29.8776 30.0987 29.8047 30.8972 29.8959 31.6854C29.9871 32.4737 30.2404 33.2345 30.64 33.92C31.489 35.0952 32.2767 36.3135 33 37.57C34 39.75 29.93 46.1 24.4 45.35C22.4 45.03 21.08 44.59 19.59 45.15C17.94 38.88 15.48 38.15 12.95 37.91C11.85 37.81 5.71002 45.06 4.23002 43.58C3.39002 42.74 2.02002 35.06 2.75002 30.58C3.35002 26.58 7.69002 26.4 7.69002 26.4Z" fill="#301905"/>
<path d="M25.46 44.31H24.92C24.5 44.26 24.13 44.19 23.77 44.13C23.0874 43.9987 22.395 43.9251 21.7 43.91C21.1261 43.9155 20.5538 43.9724 19.99 44.08L19.4 44.19L19.25 43.61C17.63 37.4 15.8 37.23 13.69 37C12.7956 37.5742 11.9464 38.2161 11.15 38.92C8.55002 41.03 6.60002 42.52 5.25002 42.52C4.8775 42.521 4.51907 42.3777 4.25002 42.12C3.12002 40.98 2.45002 32.51 3.15002 28.17C3.32317 27.004 3.92814 25.9456 4.845 25.2047C5.76186 24.4638 6.92365 24.0945 8.10002 24.17H8.29002C9.56002 22.72 16.04 15.56 21.74 13.53C22.3056 13.3304 22.9003 13.2256 23.5 13.22C25.94 13.22 28.31 15.08 30.19 18.47C31.1123 19.8568 31.7146 21.4313 31.9533 23.0796C32.192 24.7279 32.0611 26.4086 31.57 28C31.3735 28.6634 31.313 29.3596 31.3921 30.0469C31.4711 30.7342 31.6881 31.3985 32.03 32V32.06V32.12C32.29 32.83 33.57 36.42 33.54 37.52C33.55 39.36 29.46 44.31 25.46 44.31Z" fill="#F28705"/>
<path d="M23.4701 13.9C26.0801 13.9 28.1901 16.29 29.5901 18.81C29.5901 18.81 32.5901 23 30.9601 27.81C30.7254 28.5667 30.6513 29.364 30.7426 30.1509C30.8338 30.9379 31.0884 31.6971 31.4901 32.38C31.4901 32.38 33.0001 36.53 33.0001 37.57C33.0001 38.86 29.3001 43.66 25.5101 43.66H25.0301C23.9472 43.4517 22.8513 43.3181 21.7501 43.26C21.1358 43.2637 20.5232 43.3239 19.9201 43.44C18.2801 37.17 16.3301 36.64 13.8001 36.44C12.7301 36.44 7.43006 41.95 5.32006 41.95C5.21571 41.9561 5.11124 41.9405 5.01316 41.9044C4.91509 41.8683 4.82552 41.8123 4.75006 41.74C3.92006 40.91 3.09006 32.88 3.83006 28.36C3.9652 27.3395 4.4886 26.4103 5.29136 25.7659C6.09413 25.1214 7.11445 24.8113 8.14006 24.9C8.43006 24.9 8.61006 24.9 8.61006 24.9C8.61006 24.9 15.8701 16.39 21.9901 14.21C22.4874 14.0316 23.0117 13.9403 23.5401 13.94L23.4701 13.9ZM23.5401 12.64C22.8573 12.6405 22.1801 12.7624 21.5401 13C15.9001 15 9.64006 21.68 8.00006 23.55C6.68446 23.4894 5.39342 23.9207 4.37851 24.76C3.36359 25.5993 2.69751 26.7864 2.51006 28.09C1.87006 32.04 2.32006 41.09 3.80006 42.6C3.99604 42.7899 4.22779 42.9389 4.48186 43.0385C4.73593 43.1381 5.00725 43.1862 5.28006 43.18C6.85006 43.18 8.79006 41.7 11.5801 39.44C12.3189 38.8167 13.09 38.2325 13.8901 37.69C15.7301 37.87 17.2101 38.23 18.6501 43.75L18.9601 44.91L20.1401 44.69C20.6637 44.5858 21.1961 44.5322 21.7301 44.53C22.4015 44.5427 23.0706 44.613 23.7301 44.74C24.1001 44.8 24.4801 44.87 24.8901 44.92H25.5301C30.0401 44.92 34.2601 39.63 34.3101 37.57C34.3101 36.42 33.2501 33.25 32.7701 31.93L32.7201 31.8L32.6501 31.68C32.3549 31.1577 32.1675 30.5815 32.0988 29.9855C32.0301 29.3895 32.0815 28.7858 32.2501 28.21C32.7627 26.5176 32.895 24.7328 32.6374 22.9833C32.3798 21.2338 31.7387 19.5628 30.7601 18.09C28.7601 14.53 26.2101 12.57 23.5401 12.57V12.64Z" fill="#301905"/>
<path d="M21.7201 26.49C21.7201 26.49 21.2901 28.06 22.1201 28.81C22.9501 29.56 24.4001 29 24.4001 29C24.3976 28.6606 24.3263 28.3251 24.1905 28.014C24.0548 27.7029 23.8573 27.4226 23.6101 27.19C23.0878 26.7318 22.4148 26.4825 21.7201 26.49Z" fill="white"/>
<path d="M29 29.56C29.2879 29.8251 29.6287 30.0262 30 30.15C30.31 30.15 30.76 28.79 30.76 28.79C30.76 28.79 30.34 28.09 29.76 28.31C29.18 28.53 29 29.56 29 29.56Z" fill="white"/>
<path d="M26.33 11.57C26.33 11.57 31.58 16.41 31.73 17.7C31.84 18.64 31.78 24.7 29.26 24.7C27.61 24.7 26.46 20.77 23.66 21.04C21.42 21.25 18.19 25.04 17.81 25.88C15.81 30.31 16.15 31.71 16.21 33.68C16.21 34.75 16.43 36.89 16.95 40.86C17.76 46.94 12.33 47.73 12.33 47.73C12.33 47.73 6.49003 48.24 5.83003 46.66C5.40003 45.66 3.20003 49.06 1.56003 39.61C-0.0799661 30.16 15.93 3.79 26.33 11.57Z" fill="#301905"/>
<path d="M24.62 9.11C16.71 3.19 7.45002 17.25 3.28002 28.38C2.79987 30.3214 2.50191 32.3033 2.39001 34.3C2.39001 37.42 3.54001 39.06 4.32001 41.93C6.06001 44.28 5.67002 44.87 5.67002 44.87C6.52002 44.65 6.93002 43.87 7.36002 44.87C8.02002 46.46 12.46 45.66 12.46 45.66C12.46 45.66 16.84 44.3 15.25 38.38C14.6885 36.1765 14.3535 33.9215 14.25 31.65C14.1262 28.7891 14.7609 25.9464 16.09 23.41C16.47 22.58 19.7 18.78 21.94 18.56C24.74 18.29 26.84 22.23 28.5 22.2C31 22.18 30.83 16 30.72 15.1C30.57 13.8 24.62 9.11 24.62 9.11Z" fill="#7F4E2D"/>
<path d="M24.5 9.26C23.4635 8.4328 22.1943 7.9503 20.87 7.88C19.5434 7.86987 18.2382 8.21516 17.09 8.88C14.8295 10.3133 12.8973 12.208 11.42 14.44C9.89957 16.6333 8.56174 18.9478 7.42003 21.36C6.23824 23.7508 5.19648 26.2083 4.30003 28.72L4.35003 28.54C3.95003 30.9 3.41003 33.06 3.66003 35.13C3.78749 36.1771 4.05313 37.2027 4.45003 38.18C4.85003 39.18 5.31003 40.35 5.66003 41.54L5.45004 41.09C5.81382 41.576 6.14777 42.0836 6.45004 42.61C6.62901 42.9101 6.78287 43.2245 6.91003 43.55C6.9897 43.7573 7.04996 43.9716 7.09003 44.19C7.10815 44.3395 7.10815 44.4905 7.09003 44.64C7.09858 44.7465 7.09858 44.8535 7.09003 44.96C7.07973 45.0346 7.063 45.1082 7.04004 45.18C7.04004 45.18 7.04004 45.25 7.04004 45.33C7.00156 45.4354 6.95124 45.536 6.89003 45.63L5.30003 43.47C5.49947 43.3823 5.69319 43.2821 5.88003 43.17L6.08003 43.07C6.1803 43.0278 6.28402 42.9944 6.39003 42.97C6.7358 42.8666 7.10427 42.8666 7.45004 42.97C7.63183 43.0286 7.8013 43.1202 7.95004 43.24C8.07157 43.3189 8.17962 43.4168 8.27003 43.53C8.3983 43.673 8.50908 43.8308 8.60003 44L8.69003 44.18V44.27C8.67551 44.2389 8.6588 44.2088 8.64003 44.18C8.64003 44.18 8.58003 44.12 8.64003 44.18C8.76919 44.2304 8.90325 44.2673 9.04004 44.29C9.53841 44.3471 10.0417 44.3471 10.54 44.29C11.0875 44.2571 11.6321 44.1869 12.17 44.08H11.98C11.98 44.08 12.26 43.94 12.4 43.85C12.562 43.7378 12.7157 43.6141 12.86 43.48C13.1343 43.2162 13.358 42.9044 13.52 42.56C13.8497 41.7843 13.9436 40.9287 13.79 40.1C13.7117 39.6124 13.5981 39.1311 13.45 38.66C13.27 38.04 13.12 37.43 12.99 36.83C12.73 35.62 12.54 34.42 12.4 33.19L12.3 32.25C12.3 31.94 12.3 31.44 12.3 31.25C12.3 30.69 12.3 30.05 12.3 29.38C12.3933 28.0471 12.6623 26.7324 13.1 25.47C13.3 24.85 13.53 24.26 13.77 23.69L14.15 22.84C14.2367 22.6451 14.3335 22.4548 14.44 22.27C14.5426 22.0844 14.6597 21.9072 14.79 21.74C15.5849 20.683 16.5011 19.7231 17.52 18.88C18.0402 18.439 18.5954 18.0411 19.18 17.69C19.8786 17.252 20.6569 16.9564 21.47 16.82C22.3763 16.7072 23.2959 16.8565 24.12 17.25C24.7773 17.5703 25.3865 17.9809 25.93 18.47C26.43 18.92 26.85 19.37 27.25 19.78C27.5831 20.1378 27.9406 20.4719 28.32 20.78C28.45 20.89 28.52 20.91 28.48 20.93C28.44 20.95 28.56 20.93 28.64 20.93C28.9497 20.7138 29.184 20.4061 29.31 20.05C29.709 19.0758 29.9617 18.0481 30.06 17C30.1229 16.4388 30.1563 15.8747 30.16 15.31C30.24 15.06 29.84 14.52 29.51 14.1C27.9858 12.3423 26.3092 10.7227 24.5 9.26ZM24.74 8.96C26.6352 10.37 28.4575 11.8752 30.2 13.47C30.41 13.69 30.62 13.91 30.83 14.16C30.9393 14.3002 31.0395 14.4471 31.13 14.6C31.2244 14.7916 31.2853 14.9979 31.31 15.21C31.4 15.83 31.44 16.42 31.47 17.03C31.5525 18.2903 31.4583 19.5559 31.19 20.79C31.0214 21.5853 30.6048 22.3066 30 22.85C29.5871 23.1946 29.0764 23.4009 28.54 23.44C28.0186 23.4628 27.5007 23.3453 27.04 23.1C26.4496 22.7873 25.8904 22.419 25.37 22C24.89 21.63 24.45 21.29 24.03 21C23.6647 20.7552 23.272 20.5539 22.86 20.4C22.6035 20.3153 22.3266 20.3153 22.07 20.4C21.745 20.5238 21.4388 20.692 21.16 20.9C20.765 21.183 20.3908 21.4937 20.04 21.83C19.3062 22.5392 18.6369 23.3123 18.04 24.14C17.9926 24.2039 17.9492 24.2707 17.91 24.34C17.91 24.25 17.91 24.45 17.82 24.56L17.51 25.32C17.3 25.83 17.12 26.32 16.95 26.83C16.6359 27.7842 16.428 28.7702 16.33 29.77C16.33 30.27 16.33 30.77 16.27 31.4C16.27 31.78 16.27 31.86 16.27 32.14L16.32 32.94C16.4 34.04 16.53 35.17 16.7 36.25C16.78 36.8 16.88 37.34 17 37.85C17.1649 38.5069 17.2786 39.1755 17.34 39.85C17.5034 41.3567 17.2255 42.8784 16.54 44.23C16.1398 44.9096 15.6177 45.5096 15 46C14.7025 46.2523 14.3848 46.4797 14.05 46.68C13.6846 46.8973 13.2954 47.0718 12.89 47.2H12.79H12.7C12.0082 47.3054 11.3098 47.3622 10.61 47.37C9.86228 47.395 9.11411 47.3346 8.38003 47.19C7.90333 47.0909 7.44687 46.9117 7.03004 46.66C6.75027 46.4802 6.50055 46.2575 6.29004 46C6.17599 45.8476 6.07875 45.6833 6.00003 45.51V45.45C6.00003 45.45 6.00003 45.6 6.52003 45.83C6.71651 45.8831 6.92356 45.8831 7.12004 45.83H7.20004C6.84164 46.0274 6.46271 46.185 6.07003 46.3L4.49003 44.12C4.43616 44.1974 4.39247 44.2814 4.36003 44.37V44.46V44.58C4.36003 44.66 4.36003 44.67 4.36003 44.7C4.36756 44.6469 4.36756 44.5931 4.36003 44.54C4.26169 44.3465 4.14085 44.1652 4.00003 44C3.76814 43.5686 3.51103 43.1512 3.23003 42.75L3.06003 42.51L3.00003 42.29C2.75003 41.29 2.38003 40.2 2.00003 39.06C1.58096 37.8627 1.32205 36.6152 1.23003 35.35C1.16726 34.097 1.25793 32.841 1.50003 31.61C1.72003 30.41 2.02003 29.29 2.24003 28.19V28.08V28.01C3.25192 25.4482 4.45186 22.9648 5.83003 20.58C7.20487 18.199 8.79127 15.9465 10.57 13.85C12.3113 11.7051 14.4377 9.90426 16.84 8.54C18.0659 7.87017 19.4431 7.52587 20.84 7.54C22.26 7.61014 23.6231 8.12039 24.74 9V8.96Z" fill="#301905"/>
<path d="M19 16.67C19 16.67 16.63 13.67 15.18 13.67C12.98 13.67 13.51 19.87 13.51 19.87C13.51 19.87 15.82 22.45 19 16.67Z" fill="#301905"/>
<path d="M19.42 16.32C19.42 16.32 17 13.7 15.69 13.63C14.38 13.56 14.62 19.12 14.62 19.12C14.62 19.12 16.5 21.71 19.42 16.32Z" fill="#F28705"/>
<path d="M32.71 38C32.71 38 28.87 38.33 26.82 37.31C26.82 37.31 27.4 39.8 28.82 40.25C30.24 40.7 32.71 38 32.71 38Z" fill="#301905"/>
<path d="M68.32 41.81L66.32 26.41L54.32 27.11L58.2 41.73C61.28 41.79 65.08 44.08 67.2 45.57C67.6414 44.338 68.0153 43.0828 68.32 41.81Z" fill="#301905"/>
<path d="M67.18 43.66C64.78 42.08 61.65 40.39 58.89 40.15L55.4 26.76L66 26.14L67.9 40.88C67.68 41.81 67.45 42.75 67.18 43.66Z" fill="#F28705"/>
<path d="M65.39 26.82L67.21 40.82C67.09 41.41 66.95 42.01 66.79 42.6C64.5617 41.0884 62.0518 40.041 59.41 39.52L56.22 27.35L65.39 26.82ZM66.52 25.46L54.52 26.16L58.34 40.77C61.47 40.84 65.34 43.2 67.5 44.69C67.9003 43.4453 68.2341 42.1802 68.5 40.9L66.5 25.46H66.52Z" fill="#301905"/>
<path d="M54.41 27.08C54.41 27.08 56.08 22.48 52.12 21.64C52.12 21.64 50.58 22.33 49.96 27.07C49.34 31.81 54.41 27.08 54.41 27.08Z" fill="#301905"/>
<path d="M50.21 29.53C50.0362 29.535 49.8632 29.5029 49.7028 29.4356C49.5424 29.3683 49.3983 29.2675 49.28 29.14C49.0569 28.8224 48.901 28.4625 48.8219 28.0825C48.7428 27.7025 48.7421 27.3103 48.82 26.93C49.18 22.18 51.24 21.61 51.47 21.56H51.73L51.95 21.7C54.85 23.51 54.34 26.06 53.66 27.16C53.18 27.71 51.54 29.5 50.27 29.5L50.21 29.53Z" fill="#F28705"/>
<path d="M51.61 22.2C54.73 24.14 53.11 26.77 53.11 26.77C53.11 26.77 51.28 28.89 50.21 28.89C49.7 28.89 49.36 28.41 49.47 26.98C49.8 22.58 51.61 22.2 51.61 22.2ZM51.85 20.83L51.34 20.93C50.88 21.03 48.57 21.77 48.18 26.93C48.1016 27.3955 48.116 27.872 48.2224 28.3319C48.3288 28.7919 48.5251 29.2262 48.8 29.61C48.9793 29.8047 49.1974 29.9596 49.4403 30.0647C49.6832 30.1698 49.9454 30.2227 50.21 30.22C51.71 30.22 53.42 28.42 54.09 27.65L54.15 27.57L54.21 27.49C54.85 26.49 55.75 23.3 52.29 21.14L51.85 20.87V20.83Z" fill="#301905"/>
<path d="M59.44 34.78C59.44 34.78 54.82 26.07 51.44 26.96C48.06 27.85 44.08 31.7 42.81 35.53C42.33 37 39.81 39.33 39.81 39.33C39.1348 40.5052 38.8494 41.8642 38.995 43.2118C39.1405 44.5593 39.7094 45.8261 40.62 46.83C40.62 46.83 42.36 51.24 49.35 49.66C49.35 49.66 51.87 45.86 54.35 45.28C63.49 43.09 61.2 37.66 61.2 37.66L59.44 34.78Z" fill="#301905"/>
<path d="M59 26.28C59 26.28 54.21 24.28 51 25.28C47.79 26.28 43.9 30.28 42.8 34.05C42.38 35.51 40 37.9 40 37.9C39.3818 39.0777 39.1561 40.4221 39.3558 41.7371C39.5554 43.0521 40.1701 44.2689 41.11 45.21C41.11 45.21 42.5 49.61 49.35 47.76C49.35 47.76 51.7 44.33 54.1 43.69C63.71 41.1 60.47 35.28 60.47 35.28" fill="#F28705"/>
<path d="M59 26.28C57.0132 25.5786 54.9166 25.2399 52.81 25.28C50.7632 25.5067 48.8583 26.4361 47.42 27.91C45.9053 29.2986 44.6816 30.9744 43.82 32.84C43.6172 33.302 43.4435 33.7763 43.3 34.26C43.1076 34.8199 42.8348 35.3487 42.49 35.83C41.8676 36.732 41.1683 37.5785 40.4 38.36L40.49 38.25C40.2365 38.7726 40.0709 39.3335 40 39.91C39.905 40.4928 39.905 41.0872 40 41.67C40.1022 42.2529 40.2945 42.8163 40.57 43.34C40.8445 43.8706 41.1801 44.3674 41.57 44.82L41.65 44.92V45.06C41.9041 45.6747 42.3143 46.2125 42.84 46.62C43.4009 47.0392 44.0455 47.3325 44.73 47.48C45.4424 47.6341 46.1728 47.6879 46.9 47.64L48.02 47.5L49.13 47.26L48.82 47.48C49.7557 46.1576 50.9167 45.0101 52.25 44.09C52.6001 43.858 52.9718 43.6604 53.36 43.5C53.78 43.35 54.16 43.25 54.51 43.15L55.61 42.82L56.61 42.41C58.0197 41.874 59.2381 40.9306 60.11 39.7C60.4936 39.041 60.7154 38.3003 60.7571 37.5389C60.7989 36.7775 60.6593 36.017 60.35 35.32C60.7443 36.0152 60.9607 36.7972 60.9799 37.5962C60.9991 38.3952 60.8205 39.1866 60.46 39.9C59.664 41.2856 58.454 42.3871 57 43.05L55.91 43.54L54.79 43.93C54.4 44.06 54.04 44.18 53.74 44.31C53.4128 44.4626 53.1013 44.6468 52.81 44.86C51.6465 45.7801 50.6342 46.8767 49.81 48.11L49.68 48.29L49.5 48.34L48.3 48.62C47.89 48.7 47.48 48.75 47.07 48.81C46.2214 48.8863 45.3664 48.8426 44.53 48.68C43.6628 48.5026 42.8463 48.1336 42.14 47.6C41.4048 47.0448 40.8372 46.2973 40.5 45.44L40.64 45.67C40.1598 45.1416 39.7497 44.5534 39.42 43.92C39.0823 43.2786 38.8526 42.586 38.74 41.87C38.6149 41.1521 38.6149 40.4179 38.74 39.7C38.8591 38.9705 39.1026 38.267 39.46 37.62L39.52 37.55C40.2432 36.8237 40.9117 36.0449 41.52 35.22C41.8017 34.8449 42.0337 34.4348 42.21 34C42.3743 33.4669 42.5747 32.9457 42.81 32.44C43.7874 30.4691 45.1711 28.7276 46.87 27.33C47.703 26.6185 48.6238 26.017 49.61 25.54C50.6062 25.0443 51.7076 24.7973 52.82 24.82C54.9562 24.8942 57.0565 25.3904 59 26.28Z" fill="#301905"/>
<path d="M61.86 32C61.86 32 63.25 26.39 60.21 25C60.21 25 57.54 24.14 56.67 29.09C56.39 30.67 59.16 32.09 60.38 32.5C60.91 32.65 61.86 32 61.86 32Z" fill="#301905"/>
<path d="M60.12 32.5C60.12 32.5 62.04 27.75 59.12 25.5C59.12 25.5 57.19 25.65 56.44 30C56.21 31.5 60.12 32.5 60.12 32.5Z" fill="#F28705"/>
<path d="M44.1 40.88C43.2567 40.9527 42.4079 40.9292 41.57 40.81C41.0173 40.7306 40.4846 40.5473 40 40.27C40 40.27 40.4 42.46 41.39 42.85C42.38 43.24 44.1 40.88 44.1 40.88Z" fill="#301905"/>
<path d="M48.69 36.35C49.0241 36.5277 49.3947 36.6255 49.773 36.6359C50.1512 36.6463 50.5267 36.569 50.87 36.41C51.1436 36.1596 51.3535 35.8475 51.4822 35.4996C51.611 35.1518 51.6548 34.7782 51.61 34.41C50.9802 34.2964 50.3309 34.4327 49.8 34.79C49.2576 35.1628 48.8644 35.7153 48.69 36.35Z" fill="white"/>
<path d="M43.33 33.9C43.33 33.9 43.09 34.83 43.22 35.02C43.35 35.21 44.22 35.28 44.22 35.28C44.3119 35.1077 44.36 34.9153 44.36 34.72C44.36 34.5247 44.3119 34.3323 44.22 34.16C44.1813 34.0819 44.1269 34.0127 44.0601 33.9567C43.9933 33.9007 43.9157 33.8592 43.832 33.8347C43.7484 33.8103 43.6606 33.8035 43.5742 33.8147C43.4878 33.826 43.4046 33.855 43.33 33.9Z" fill="white"/>
<path d="M49.33 43.93C48.8087 44.3241 48.2608 44.6817 47.69 45C47.0922 45.4016 46.4059 45.6521 45.69 45.73C45.0163 45.7032 44.3467 45.6128 43.69 45.46C43.04 45.32 42.41 45.15 41.77 44.97L41.49 44.89L41.37 44.52C41.2789 44.2703 41.2119 44.0125 41.17 43.75C41.1236 43.4823 41.0969 43.2116 41.09 42.94V42.22L41.64 42.28C41.7032 42.2743 41.7668 42.2743 41.83 42.28L42.3 42.39V42.68C42.3755 43.1772 42.3755 43.6828 42.3 44.18C42.2812 44.4766 42.177 44.7613 42 45C41.9423 45.0585 41.871 45.1019 41.7926 45.1263C41.7141 45.1508 41.6308 45.1555 41.55 45.14C41.4255 45.1159 41.3068 45.0684 41.2 45C41.45 45 41.67 45 41.68 44.84C41.7197 44.6521 41.7197 44.4579 41.68 44.27C41.5978 43.8389 41.4842 43.4145 41.34 43L41.84 43.4C41.7771 43.4104 41.7129 43.4104 41.65 43.4L42.19 42.74C42.2973 42.9883 42.381 43.2461 42.44 43.51C42.5003 43.7699 42.5404 44.034 42.56 44.3L42.16 43.85C42.75 44.07 43.37 44.26 43.97 44.46C44.5563 44.6537 45.1542 44.8107 45.76 44.93C46.3568 44.9235 46.9471 44.8047 47.5 44.58C48.1 44.38 48.72 44.16 49.33 43.93Z" fill="#301905"/>
<path d="M21.7001 37.88C21.8754 38.6032 22.1951 39.2835 22.6401 39.88C23.0398 40.4466 23.5629 40.915 24.1701 41.25C24.8156 41.4783 25.4877 41.6229 26.1701 41.68L28.4001 41.95L27.8401 42.32C28.0424 41.8822 28.2729 41.458 28.5301 41.05C28.7827 40.6211 29.0739 40.2161 29.4001 39.84C29.3863 40.3363 29.3362 40.831 29.2501 41.32C29.1567 41.8 29.0467 42.27 28.9201 42.73L28.8101 43.09H28.3501C27.5656 43.1193 26.78 43.0892 26.0001 43C25.1552 42.9112 24.3362 42.6563 23.5901 42.25C22.8814 41.7473 22.3301 41.0537 22.0001 40.25C21.661 39.509 21.5563 38.6821 21.7001 37.88Z" fill="#301905"/>
<path d="M35 64C27.1271 64 19.5766 60.8725 14.0096 55.3055C8.44254 49.7384 5.31503 42.188 5.31503 34.315C5.31503 26.442 8.44254 18.8916 14.0096 13.3245C19.5766 7.75752 27.1271 4.63 35 4.63V0.139999C25.9402 0.139999 17.2515 3.73899 10.8453 10.1452C4.43902 16.5515 0.840027 25.2402 0.840027 34.3C0.840027 43.3598 4.43902 52.0485 10.8453 58.4548C17.2515 64.861 25.9402 68.46 35 68.46V64Z" fill="#843C0B"/>
<path d="M35 4.63C42.873 4.63 50.4234 7.75752 55.9905 13.3245C61.5575 18.8916 64.685 26.442 64.685 34.315C64.685 42.188 61.5575 49.7384 55.9905 55.3055C50.4234 60.8725 42.873 64 35 64V68.49C44.0638 68.49 52.7563 64.8894 59.1654 58.4804C65.5744 52.0713 69.175 43.3788 69.175 34.315C69.175 25.2512 65.5744 16.5587 59.1654 10.1496C52.7563 3.74057 44.0638 0.139999 35 0.139999V4.63Z" fill="#301905"/>
<path d="M35 72.4C29.8622 72.4032 24.7771 71.3644 20.0522 69.3466C15.3272 67.3287 11.0605 64.3736 7.51001 60.66C18.49 79.17 35 97.86 35 97.86C35 97.86 51.51 79.17 62.49 60.66C58.9395 64.3736 54.6728 67.3287 49.9479 69.3466C45.2229 71.3644 40.1378 72.4032 35 72.4Z" fill="#301905"/>
<path d="M35 72.4C29.8622 72.4032 24.7771 71.3644 20.0522 69.3466C15.3272 67.3287 11.0605 64.3736 7.51001 60.66C18.49 79.17 35 97.86 35 97.86V72.4Z" fill="#843C0B"/>
</svg>
