<svg width="38" height="40" viewBox="0 0 48 49" fill="none" xmlns="http://www.w3.org/2000/svg">
<path d="M47.5251 0.41626H23.2328V38.3068H47.5251V0.41626Z" fill="#7F4E2D"/>
<path d="M23.2328 0.41626V38.3068H47.5251V0.41626H23.2328ZM44.0467 34.0835H26.655V4.63954H44.0467V34.0835Z" fill="#7F4E2D"/>
<path d="M34.7336 25.9347C34.7336 25.9347 35.7996 29.3847 39.2218 28.314C39.2218 28.314 39.2218 29.5037 38.6608 30.277C38.0998 30.9907 38.8852 32.2994 38.8852 32.2994C38.9974 32.4183 39.6706 31.6451 39.7267 31.5261C40.0073 31.1692 40.1756 30.6933 40.3439 30.2175C40.5122 29.6821 40.6805 28.9683 40.6805 28.3735C40.6805 27.8976 40.5122 27.3623 40.2317 27.0649C40.0634 26.9459 39.895 26.8864 39.7828 26.8269C39.2779 26.589 38.7169 26.4106 38.212 26.1726C37.8193 25.9942 37.3143 25.6968 37.0899 25.2804L34.7336 25.9347Z" fill="#F9BF4C"/>
<path d="M41.1855 15.525C41.1855 15.3465 41.41 15.3465 41.5783 14.6922C41.6905 14.6327 41.7466 14.6327 41.8588 14.5732C42.0271 14.6922 42.1393 14.9301 42.2515 15.1086C42.3637 15.3465 42.3637 15.4655 42.5881 15.525C42.7003 15.5845 42.8686 15.5845 42.9808 15.6439C43.4857 15.8224 44.0468 15.9413 44.5517 16.3577C44.9444 16.6551 45.2249 17.131 45.3371 17.6663C45.4493 18.3207 45.8981 18.975 46.2347 19.5698C46.347 19.7482 46.1786 19.9862 46.1225 20.1051C46.0103 20.3431 45.9542 20.581 45.842 20.8189C45.7859 20.8784 45.7859 20.9379 45.7298 20.9974C45.5615 21.1758 45.3932 21.4138 45.1688 21.5327C44.8883 21.7112 44.5517 21.7112 44.2712 21.5327C44.1029 21.4138 43.9346 21.1164 43.7662 21.1758C43.3735 21.2353 42.9808 21.1758 42.5881 20.9974C42.0271 20.7595 41.5222 20.1646 41.971 18.856C41.8588 18.4396 41.7466 17.9638 41.6905 17.5474C41.5783 16.9526 41.3539 16.3577 41.2977 15.7629C41.1855 15.5845 41.1855 15.525 41.1855 15.525Z" fill="#FFD45A"/>
<path d="M41.9147 22.4253C41.1293 22.2468 40.1755 22.5443 39.5584 23.1391C39.2218 23.4365 38.9974 23.8529 38.7169 24.2098C37.8192 25.5184 37.0338 26.8865 35.9679 27.9572C35.0141 28.9684 33.9482 29.8606 32.7139 30.3365C31.0309 30.9908 29.1795 30.7529 27.3842 30.515C26.6549 30.396 25.8695 30.277 25.1401 29.9796C24.3547 29.6822 23.7937 29.1468 23.1205 28.671C22.5594 28.2546 21.8862 28.1951 21.3252 28.3736C21.213 28.3736 20.9886 29.5037 20.9325 29.7417C20.7642 30.2175 20.5959 30.7529 20.3715 31.2287C19.9787 32.1805 19.586 33.1917 19.1933 34.1434C18.3518 35.9874 17.2858 37.7719 15.8833 39.021C14.3124 40.4486 12.461 41.0434 10.6658 41.8167C10.3853 41.9356 10.1047 42.0546 9.88033 42.2331C9.65592 42.471 9.43151 42.7684 9.31931 43.1253C8.75829 44.4339 8.64608 45.7425 8.58998 47.2296C8.25337 47.3486 7.91675 46.8727 7.74845 46.5753C7.58014 46.2184 7.46794 45.7426 7.41183 45.2667C7.13132 42.59 8.36557 39.8538 10.273 38.8425C11.0024 38.4856 11.7317 38.3072 12.461 37.9503C13.5831 37.296 14.4246 35.9279 14.7612 34.3813C15.21 32.4184 14.8734 30.396 14.2002 28.4925C13.2465 29.3848 12.1805 30.2175 11.1707 30.9908C10.4414 31.5262 9.65592 32.121 8.81439 32.4779C7.86065 32.8943 6.85081 33.1917 5.84097 33.3106C4.43842 33.4891 2.86755 33.3701 1.5772 32.5374C1.07228 32.24 0.455158 31.8236 0.342953 31.0503C0.230749 30.8718 0.230749 30.6339 0.286851 30.396C0.399055 30.1581 0.623464 30.0986 0.791771 30.0391C1.01618 29.9796 1.18449 30.0391 1.4089 30.1581C2.08212 30.6934 2.75535 31.0503 3.48468 31.2882C4.21401 31.4667 4.99944 31.5262 5.72877 31.4072C7.91675 31.1098 9.88033 29.7417 11.6195 28.1356C11.6756 28.0762 11.7317 28.0167 11.7878 27.9572C17.8468 22.2468 19.4738 22.6632 21.9984 22.2468C22.7838 22.1279 23.5693 21.9494 24.3547 21.8899C25.1962 21.8305 25.9817 21.7115 26.7671 21.5925C28.7307 21.2951 31.0309 20.9977 32.6578 19.3917C33.1067 18.9158 33.6116 18.4399 34.1726 18.321C35.1263 18.083 36.0801 18.5589 36.9777 18.2615C38.0436 17.9046 39.0535 16.8934 40.1755 17.0124" fill="#FFD45A"/>
<path d="M32.9381 21.5924L30.6379 24.2691C30.6379 24.2691 30.8062 27.4812 33.7797 29.3252L34.9578 30.3364C34.9578 30.3364 34.5651 30.8122 33.4992 30.5148C32.4332 30.2174 32.4893 31.8235 32.4893 31.8235C32.4893 31.8235 34.509 32.9536 36.0238 31.1097C36.2482 30.8122 36.3043 30.2769 36.136 29.92C35.6871 28.9088 34.7334 26.9459 34.1163 26.2915C34.1163 26.2915 34.9578 24.9829 35.2383 23.7933L32.9381 21.5924Z" fill="#FFD45A"/>
<path d="M32.9381 21.5924L30.6379 24.2691C30.6379 24.2691 30.8062 27.4812 33.7797 29.3252L34.9578 30.3364C34.9578 30.3364 34.5651 30.8122 33.4992 30.5148C32.4332 30.2174 32.4893 31.8235 32.4893 31.8235C32.4893 31.8235 34.509 32.9536 36.0238 31.1097C36.2482 30.8122 36.3043 30.2769 36.136 29.92C35.6871 28.9088 34.7334 26.9459 34.1163 26.2915C34.1163 26.2915 34.9578 24.9829 35.2383 23.7933L32.9381 21.5924Z" fill="#FFD45A"/>
<path d="M31.0309 10.2904V48.181L47.5249 38.3068V0.41626L31.0309 10.2904ZM44.1027 4.63954V34.0835V4.63954Z" fill="#C47037"/>
</svg>
