<svg width="74" height="77" viewBox="0 0 74 77" fill="none" xmlns="http://www.w3.org/2000/svg">
<g clip-path="url(#clip0)">
<path d="M37 75C31.5 72.7 27.1 70 23.4 67C4.10001 51.1 1.80001 25.9 1.70001 15.8V15.2L20.1 6.2C25.4 3.6 31.3 2.3 37.2 2.3C43.2 2.3 49.2 3.7 54.6 6.4L72.2 15.2V15.8C72.6 21.5 73.8 50.5 53.3 67.1C47.6 71.7 41.9 73.8 37.6 75.2L37.3 75.3L37 75Z" fill="#F9BF4B"/>
<path d="M37.2 3.3C43 3.3 48.8 4.6 54.2 7.3L71.3 15.9C71.6 20 73.5 49.6 52.8 66.3C47.5 70.6 42.3 72.7 37.4 74.2C33.2 72.4 28.3 69.9 24 66.3C3.70001 49.5 2.80001 22.4 2.70001 15.8L20.5 7.1C25.8 4.5 31.5 3.3 37.2 3.3ZM37.2 1.3V3.3V1.3C31.2 1.3 25.1 2.7 19.7 5.4L1.80001 14L0.700012 14.6V15.9C0.800012 26.1 3.10001 51.6 22.7 67.8C26.5 70.9 31 73.6 36.6 76L37.3 76.3L38 76C42.4 74.7 48.2 72.5 54 67.8C74.9 50.9 73.7 21.4 73.2 15.7L73.1 14.6L72.1 14.1L55 5.5C49.5 2.7 43.3 1.3 37.2 1.3Z" fill="#593B02"/>
<path d="M29.9 39.6C25.9 43.2 23.7 49.1 26 51.8C27.9 54 29.2 52.9 30.7 52.9C32.2 52.9 34 54.7 36.9 54.7C39.6 54.7 41.5 52.8 43 52.8C44.8 52.9 46.2 54.1 48.3 52C50.6 49.6 48.4 43.9 44.6 40.2C42.3 38.1 31.8 37.8 29.9 39.6Z" fill="#BF7E04"/>
<path d="M53.7 33.8C53.8 32.3 53.7 29.8 51.7 27.8C51.7 27.8 52.4 30.7 51.8 32.7C51.7 32.7 51.7 32.6 51.6 32.6C49.4 32.2 47.2 34 46.9 36.5C46.5 39.1 48.1 41.5 50.3 41.9C52.5 42.3 54.7 40.5 55 38C55.2 36.4 54.7 34.8 53.7 33.8Z" fill="#BF7E04"/>
<path d="M27.2 36.4C26.7 33.8 24.6 32.2 22.3 32.7C22.2 32.7 22.2 32.7 22.1 32.8C21.5 30.8 22.2 27.9 22.2 27.9C20.2 29.9 20.1 32.5 20.2 34C19.2 35.1 18.8 36.7 19 38.3C19.5 40.9 21.6 42.5 23.9 42C26.3 41.4 27.7 39 27.2 36.4Z" fill="#BF7E04"/>
<path d="M32.5 34.1C34.7 33.7 36.3 31 35.9 28.2C35.6 25.7 33.8 23.9 31.9 23.8C31.2 21.8 32 18.7 32 18.7C30.1 20.6 29.9 22.9 30 24.4C28.5 25.4 27.6 27.5 27.9 29.7C28.1 32.7 30.2 34.6 32.5 34.1Z" fill="#BF7E04"/>
<path d="M43.3 34.3C45.5 33.8 47.1 31.1 46.7 28.2C46.5 26.5 45.7 25.2 44.7 24.4C44.8 22.9 44.7 20.4 42.7 18.4C42.7 18.4 43.5 21.7 42.7 23.7C42.5 23.7 42.2 23.7 42 23.8C39.8 24.3 38.2 27 38.6 29.9C39 32.8 41.1 34.8 43.3 34.3Z" fill="#BF7E04"/>
<path d="M37.4 74.1C37.3 71.6 37.2 69.1 37.1 66.5C41.1 65.1 49.6 61.5 56.3 52.9C68.1 37.6 64 19.3 63.4 16.7L71.3 15.8C71.6 19.7 73.7 49.7 52.8 66.2C47.6 70.3 42.2 72.7 37.4 74.1Z" fill="#BF7E04"/>
<path d="M24 66.2C28.2 69.7 33 72.2 37.2 74C37.3 71.5 37 69 37.1 66.5C34.1 65.4 30 63.5 25.7 60.1C24.4 59.1 19 54.7 15 47.9C7.39999 34.8 9.79999 20.6 10.6 16.7C7.99999 16.4 5.39999 16.1 2.79999 15.8C2.79999 22.4 3.69999 49.5 24 66.2Z" fill="#FFDB61"/>
<path d="M47.3 11L63.3 16.7L71.2 15.8L54.1 7.3C43.6 2 31.2 1.9 20.5 7.1L2.70001 15.8L10.5 16.7L26.6 11C33.3 8.6 40.6 8.6 47.3 11Z" fill="#FFF2B1"/>
<path d="M23.2 17.5L14 18.9L9.3 31.6L8.6 18.1L0 14.1L9.3 12.7L14 0L14.7 13.5L23.2 17.5Z" fill="white"/>
<path d="M25.3 52.6L20.9 54L19.5 60.6L18.1 54L13.6 52.6L18.1 51.2L19.5 44.6L20.9 51.2L25.3 52.6Z" fill="white"/>
<path d="M67.5 31.3L64.8 31L62.6 34.4L63.3 30.5L61.1 28.8L63.9 29L66 25.7L65.4 29.6L67.5 31.3Z" fill="white"/>
</g>
<defs>
<clipPath id="clip0">
<rect width="73.4" height="76.2" fill="white"/>
</clipPath>
</defs>
</svg>
