<svg width="72" height="72" viewBox="0 0 72 72" fill="none" xmlns="http://www.w3.org/2000/svg">
<path d="M31.2002 65.2039L34.4002 62.1371L30.2669 63.6038L1.60022 17.8686L3.33355 18.2686C4.80022 18.6686 6.26689 18.802 7.73355 18.802C8.93355 18.802 10.1336 18.6686 11.3336 18.402C21.4669 16.4019 26.4002 6.53481 27.3336 4.53473L27.8669 3.46802L63.4669 48.8032L63.2002 49.2032C59.6002 55.4702 55.3336 60.6704 50.5336 64.4039C45.8669 68.004 40.8002 70.1374 35.4669 71.0708L34.9336 71.2041L31.2002 65.2039Z" fill="#F8D46F"/>
<path d="M27.8667 4.80134C39.3333 19.4686 50.9333 34.1359 62.4 48.8032C59.8667 53.3367 55.7333 59.2036 49.8667 63.7371C44.2667 68.0039 39.0667 69.604 35.0667 70.2707C34 68.6706 33.0667 66.9372 32 65.3372L37.0667 60.4036L30.4 62.6704C21.3333 48.1365 12.2667 33.4692 3.06667 18.9353C4.4 19.2019 6 19.4686 7.73333 19.4686C8.93333 19.4686 10.1333 19.3353 11.4667 19.0686C22.2667 17.0685 27.2 6.26806 27.8667 4.80134ZM27.4667 2.00122L26.5333 4.26798C25.7333 6.13472 20.9333 15.8685 11.0667 17.7352C10 18.0019 8.8 18.0019 7.6 18.0019C6.13333 18.0019 4.8 17.8685 3.33333 17.4685L0 16.8018L1.86667 19.7353L29.3333 63.4704L30 64.4038L31.0667 64.0038L31.6 63.8704L31.2 64.2705L30.4 65.0705L31.0667 66.0039L33.2 69.604L34 70.9374L34.5333 71.7374L35.4667 71.6041C40.9333 70.6707 46.1333 68.404 50.9333 64.8038C55.8667 61.0703 60.2667 55.8701 63.8667 49.4698L64.4 48.6698L63.7333 47.8698L29.2 3.86796L27.4667 2.00122Z" fill="#7F4E2D"/>
<path d="M25.7331 16.2686L25.3331 16.8019C23.8664 18.5353 21.4664 20.8021 17.5997 22.0021C13.8664 23.2022 10.5331 22.8022 8.39974 22.2688L7.06641 21.8688L32.6664 62.0038L33.7331 61.6038L9.46641 23.6022C11.5997 24.0022 14.6664 24.0022 17.8664 23.0688C21.5997 21.8688 23.9997 19.8687 25.5997 18.1353L53.0664 55.3368C51.7331 57.8703 49.8664 60.137 47.5997 61.8704C43.7331 65.0706 39.5997 66.1373 36.7997 66.5373L34.5331 62.9371L33.7331 63.7372L36.2664 67.7373H36.6664C39.7331 67.3373 44.2664 66.1373 48.3997 62.8038C50.7997 60.8037 52.7997 58.4036 54.2664 55.6035L54.3997 55.3368L25.7331 16.2686Z" fill="#9E7128"/>
<path d="M26.2667 38.269C26.4001 37.469 26.5334 36.5356 26.8001 35.8689" stroke="#7F4E2D" stroke-width="1.3129" stroke-miterlimit="10"/>
<path d="M28.9327 31.3352C30.9327 28.5351 33.5994 26.8016 36.3994 26.535C39.4661 26.2683 43.5994 27.8684 45.0661 31.2018C46.2661 33.8686 45.0661 36.5354 44.1327 38.8021" stroke="#7F4E2D" stroke-width="1.3129" stroke-miterlimit="10" stroke-dasharray="3.75 3.75"/>
<path d="M43.467 41.2024C43.3336 42.0024 43.3336 42.9358 43.7336 43.6025" stroke="#7F4E2D" stroke-width="1.3129" stroke-miterlimit="10"/>
<path d="M57.5996 66.004C53.7329 66.004 50.6662 64.4039 50.6662 64.4039L50.5329 64.2706L50.3996 64.0039C46.6662 54.6702 41.7329 45.7365 35.8662 37.6028C29.9996 29.4692 23.1996 22.0022 15.4662 15.4686L15.3329 15.3352V15.0686C14.9329 11.7351 15.7329 8.40162 17.7329 5.73484L17.9996 5.33483L20.9329 7.06823L19.1996 4.00144L19.5996 3.73476C20.1329 3.33475 20.6662 2.93473 21.1996 2.53471C23.0662 1.33466 25.3329 0.667969 27.7329 0.667969C31.3329 0.667969 34.7996 2.1347 37.4662 4.80147L37.5996 4.93481V5.06815C40.3996 13.2018 44.2662 20.8021 49.0662 27.8691C54.9329 36.2694 62.2662 43.6031 70.6662 49.6033L70.9329 49.7367V50.0033C71.8662 55.7369 69.3329 61.4705 64.5329 64.4039C62.3996 65.3373 60.1329 66.004 57.5996 66.004Z" fill="#F8D46F"/>
<path d="M27.5998 1.20127C30.9331 1.20127 34.2665 2.53466 36.7998 5.20143C38.9331 11.335 42.3998 19.602 48.3998 28.1357C55.8665 38.8028 64.1331 45.7364 70.1331 50.0033C71.0665 55.4702 68.5331 60.9371 63.9998 63.7372C61.7331 65.0706 59.4665 65.4706 57.4665 65.4706C53.7331 65.4706 50.9331 64.0039 50.7998 63.8705C47.8665 56.5369 43.3331 47.2032 36.2665 37.3361C29.1998 27.469 21.8665 20.2687 15.8665 15.0685C15.4665 11.735 16.3998 8.53491 18.1331 6.13481L22.5331 8.66824L19.9998 4.00139C20.5331 3.60137 20.9331 3.20135 21.4665 2.93467C23.3331 1.73463 25.4665 1.20127 27.5998 1.20127ZM27.5998 0.0012207C25.1998 0.0012207 22.7998 0.667915 20.7998 1.86796C20.2665 2.26798 19.5998 2.668 19.0665 3.06801L18.2665 3.73471L18.7998 4.53474L19.3331 5.33477L18.7998 5.0681L17.8665 4.53474L17.1998 5.33477C15.1998 8.13489 14.2665 11.6017 14.6665 15.2018V15.7352L15.0665 16.0019C22.6665 22.5355 29.4665 29.8691 35.3331 38.0028C41.1998 46.1365 45.9998 55.0702 49.7331 64.2705L49.8665 64.6705L50.2665 64.9372C50.3998 65.0706 53.4665 66.6706 57.5998 66.6706C60.1331 66.6706 62.5331 66.0039 64.6665 64.6705C69.5998 61.6038 72.3998 55.6035 71.3331 49.7366L71.1998 49.2032L70.7998 48.9366C62.3998 42.9363 55.1998 35.736 49.3331 27.3357C44.5331 20.4021 40.6665 12.8017 37.8665 4.66808L37.7331 4.4014L37.5998 4.26806C35.0665 1.60129 31.4665 0.0012207 27.5998 0.0012207Z" fill="#7F4E2D"/>
<path d="M57.4664 48.6698C60.1331 50.9366 62.6664 53.2033 65.3331 55.4701C64.3998 57.8702 62.3998 59.4703 59.9998 59.8703C59.7331 59.8703 56.3998 60.4036 54.5331 58.1369C53.3331 56.8035 53.3331 55.0701 53.3331 54.5367C53.4664 51.0699 57.0664 48.9365 57.4664 48.6698C59.7331 47.3364 61.9998 47.4698 62.7998 47.4698C63.3331 47.4698 67.9998 47.7364 69.9998 50.8032C72.3998 54.5367 69.1998 60.6703 65.0664 63.4704C58.6664 67.8706 50.7998 64.2705 50.3998 64.1371" fill="#9E7128"/>
<path d="M57.4664 48.6698C60.1331 50.9366 62.6664 53.2033 65.3331 55.4701C64.3998 57.8702 62.3998 59.4703 59.9998 59.8703C59.7331 59.8703 56.3998 60.4036 54.5331 58.1369C53.3331 56.8035 53.3331 55.0701 53.3331 54.5367C53.4664 51.0699 57.0664 48.9365 57.4664 48.6698ZM57.4664 48.6698C59.7331 47.3364 61.9998 47.4698 62.7998 47.4698C63.3331 47.4698 67.9998 47.7364 69.9998 50.8032C72.3998 54.5367 69.1998 60.6703 65.0664 63.4704C58.6664 67.8706 50.7998 64.2705 50.3998 64.1371" stroke="#7F4E2D" stroke-width="0.97" stroke-miterlimit="10"/>
</svg>
