<?xml version="1.0" encoding="utf-8"?>
<!-- Generator: Adobe Illustrator 25.2.1, SVG Export Plug-In . SVG Version: 6.00 Build 0)  -->
<svg version="1.1" id="Camada_1" xmlns="http://www.w3.org/2000/svg" xmlns:xlink="http://www.w3.org/1999/xlink" x="0px" y="0px"
	 viewBox="0 0 1000 1000" style="enable-background:new 0 0 1000 1000;" xml:space="preserve">
<style type="text/css">
	.st0{fill:#833C0B;}
	.st1{fill:#BE7E04;}
	.st2{fill:#FEDA61;}
	.st3{fill:#311905;}
	.st4{fill:#301905;}
	.st5{fill:#FEDC6A;}
	.st6{fill:#CF8C0E;}
	.st7{fill:#6F4906;}
	.st8{fill:#2C1704;}
	.st9{fill:#291703;}
	.st10{fill:#5E3E06;}
	.st11{fill:#CF8D0E;}
	.st12{fill:#F8BE4A;}
	.st13{fill:#F8BE4B;}
	.st14{fill:#F7BE4A;}
	.st15{fill:#BE7D04;}
	.st16{fill:#F7E566;}
	.st17{fill:#AA7B18;}
	.st18{fill:#FDF76E;}
	.st19{fill:#9E7012;}
	.st20{fill:#FEF26C;}
	.st21{fill:#FEF26B;}
	.st22{fill:#F0B546;}
	.st23{fill:#553407;}
	.st24{fill:#B87709;}
</style>
<g>
	<path class="st0" d="M129.78,496.22c2.47-18.53,1.1-37.18,1.46-55.75c0.9-46.11,0.81-92.24,1.03-138.36
		c0.34-70.29,0.6-140.58,0.92-210.87c0.11-24.72,0.52-49.45,0.32-74.17c-0.05-6.11,3.39-5.09,6.9-5.09
		c30.02,0,60.04,0.02,90.06,0.01c60.04-0.02,120.08-0.07,180.12-0.1c1.89,1.54,2.58,3.77,2.46,5.96c-0.47,8.53,4.42,9.84,11.58,9.82
		c48.3-0.16,96.6-0.08,144.9-0.09c11.78,0,11.78-0.03,14.26-11.37c0.36-1.65,0.88-3.21,2.28-4.31
		c91.19,0.03,182.37,0.17,273.56-0.08c7.39-0.02,8.88,1.62,8.89,9.07c0.12,71.14,0.82,142.27,1.29,213.41
		c0.53,80.85,0.95,161.7,1.56,242.56c0.05,6.28-1.1,12.77,1.82,18.81c1.54,4.66-2.08,5.05-4.96,5.72c-3.54,0.82-7.2,0.51-10.81,0.51
		c-237.25,0.01-474.5,0.01-711.75,0c-3.34,0-6.7,0.23-9.99-0.39C132.75,500.95,129.24,500.76,129.78,496.22z"/>
	<path class="st0" d="M981.43,646.03c-3.48,13.91-6.7,27.9-10.49,41.72c-6.01,21.89-12.57,43.63-18.61,65.51
		c-8.33,30.13-16.27,60.37-24.6,90.51c-9.43,34.14-19.11,68.22-28.67,102.33c-7.48,26.68-36.08,48.66-63.6,48.77
		c-19.46,0.07-38.92-0.04-58.38,0.09c-3.69,0.03-6.77,0.1-5.89-4.95c-1.83-4.18-0.31-8.23,0.69-12.21
		c8.73-35.01,16.81-70.17,25.46-105.2c17.96-72.75,34.89-145.75,52.92-218.48c0.87-3.49,1.42-7.09,3.12-10.34
		c1.35-2.13,3.26-1.71,5.22-1.17c0.96,0.33,1.92,0.63,2.91,0.85c36.01,0.56,72.02,0.04,108.02,0.27
		C973.6,643.74,977.94,642.87,981.43,646.03z"/>
	<path class="st1" d="M858.25,644.1c-1.24-0.4-2.48-0.8-3.71-1.21c-3.47,2.79-7.61,2.06-11.58,2.21c-1.54-0.05-3.07-0.05-4.61-0.06
		c-38.41,0.08-76.82-0.21-115.23,0.17c-1.99,0.46-3.97,0.19-5.94-0.08c-3.82-0.12-7.64-0.12-11.47-0.1c-1.5,0-3,0-4.5,0
		c-40.5,0.09-80.98-0.19-121.46,0.16c-1.95,0.38-3.89,0.28-5.83-0.06c-4.6-0.36-9.18-0.14-13.77,0.43c-1,0.02-1.97-0.09-2.93-0.31
		c-38.73-0.43-77.44-0.29-116.15-0.05c-1.93,0.4-3.85,0.22-5.76-0.08c-3.64-0.16-7.29-0.3-10.95-0.01c-2.41-0.04-4.81,0.67-7.24,0.1
		c-37.74-0.43-75.47-0.04-113.19-0.18c-1.49,0.01-2.98,0-4.46,0c-3.82,0.05-7.64-0.06-11.47,0.08c-1.99,0.24-3.97,0.56-5.96,0.11
		c-40.54-0.46-81.07-0.04-121.6-0.19c-1.48,0.01-2.97,0-4.45,0c-3.77,0.06-7.55-0.1-11.33,0.07c-1.92,0.17-3.84,0.54-5.77,0.15
		c-16.94,0.08-33.9-1.44-50.8,0.88c-20.41,1.25-40.84,0.18-61.25,0.62c-1.87,0.07-3.67,0.62-5.51,0.92
		c-4.14-13.77-5.99-28.13-10.93-41.7c-0.86-2.36-0.78-5.06,2.98-5.18c4.18-3.18,9.07-2.14,13.71-2.15
		c81.72-0.06,163.45-0.04,245.17-0.04c234.61,0,469.22-0.01,703.83,0.07c5.12,0,10.66-1.55,15.2,2.45
		c2.15,11.91-2.97,22.41-6.4,33.24c-0.91,7.65-4.83,10.29-12.82,10.17C934.13,643.95,896.19,644.69,858.25,644.1z"/>
	<path class="st0" d="M155.28,642.79c1.05-0.01,2.1-0.02,3.15-0.04c1.3,0.82,2.73,1.25,4.24,1.49c39.81,0.24,79.61,0.16,119.42,0.04
		c0.51-0.06,1.03-0.11,1.54-0.17c1.25-0.4,2.49-0.79,3.74-1.19c3.59,5.39,3.35,11.74,3.74,17.69c2.97,45.16,6.85,90.26,10.65,135.35
		c4.29,50.91,7.93,101.87,12.61,152.75c1.01,11.03,2.04,22.13,2.34,33.24c0.07,2.76,0.72,5.57-1.11,8.06
		c0.05,2.82,0.32,5.21-4.08,5.19c-29.55-0.2-59.1-0.15-88.65-0.06c-3.79,0.01-5.59-1.51-5.81-5.16c-2.55-2.84-3.18-6.39-3.8-9.97
		c-19.02-110.28-38.72-220.45-57.98-330.69C154.89,647.13,154.21,644.96,155.28,642.79z"/>
	<path class="st0" d="M839.93,642.75c1.05,0.03,2.11,0.05,3.16,0.08c1.14,2.5,0.22,4.91-0.36,7.32
		c-9.05,36.97-18.03,73.95-26.92,110.95c-14.92,62.12-30.24,124.14-45,186.3c-2.76,11.62-5.67,23.21-8.5,34.81
		c-0.73,3.01-1.37,5.99-4.34,7.7c0.23,3.46-0.34,5.33-4.86,5.29c-30.72-0.25-61.44-0.23-92.16-0.01c-4.31,0.03-5.29-1.58-4.94-5.22
		c-0.48-12.63,3.15-24.73,5.3-36.95c10.51-59.58,21-119.17,31.46-178.76c7.15-40.73,14.64-81.4,21.33-122.21
		c0.54-3.3,1.09-6.6,3.57-9.15c1.24,0.4,2.48,0.8,3.72,1.2c0.51,0.06,1.02,0.11,1.54,0.17c37.6,0.12,75.19,0.2,112.79-0.04
		C837.19,643.99,838.63,643.56,839.93,642.75z"/>
	<path class="st0" d="M140.09,644.12c1.25-0.38,2.51-0.77,3.76-1.15c3.58,4,3.74,9.2,4.58,14.04
		c11.88,68.35,23.96,136.67,35.98,204.99c6.92,39.36,13.72,78.73,20.73,118.07c0.58,3.28,1.31,6.55,0.35,9.88
		c-0.42,2.16,0.95,5.34-3.33,5.15c-18.54-0.82-37.39,2.51-55.62-1.61c-31.57-7.15-49.63-27.74-56.39-59.33
		c-5.55-25.95-12.39-51.63-18.6-77.45c-6.21-25.83-12.29-51.69-18.5-77.52c-5.88-24.49-11.87-48.95-17.78-73.43
		c-4.67-19.35-9.31-38.72-13.96-58.08c0.48-1.26,0.65-2.72,2.21-3.24c21.49,1.67,43.01,0.51,64.51,0.59
		c16.82-1.58,33.69-0.16,50.53-0.76C139.07,644.23,139.58,644.17,140.09,644.12z"/>
	<path class="st0" d="M418.82,644.11c1.75-0.45,3.5-0.9,5.25-1.35c0.96,1.77,1.06,3.7,1.05,5.65c-0.21,36.56,0.01,73.12-0.12,109.68
		c-0.01,2.49-0.08,4.99-0.84,7.38c-0.46,0.95-0.76,2.37-1.95,2.42c-7.66,0.33-20.59-9.56-22.69-17.09
		c-1.63-5.86-2.43-11.93-4.59-18.97c-1.14,9.77,1.28,18.03,2.03,26.4c0.36,4.02-0.11,7.56-1.8,11.24
		c-10.04,21.79-3.27,56.02,13.69,72.76c4.6,4.54,11.93,4.93,15.24,11.03c1.1,3.52,0.95,7.13,0.95,10.72
		c0.04,39.01-0.01,78.01,0.04,117.02c0,3.06-0.03,6.09-1.03,9.02c0.43,3.93-1.2,5.17-5.23,5.15c-28.36-0.17-56.73-0.2-85.09,0.02
		c-4.35,0.03-5.27-1.69-4.95-5.3c-2.94-1.79-3.75-4.65-3.95-7.82c-2.38-37.11-6.04-74.12-8.77-111.21
		c-1.65-22.4-3.73-44.8-5.64-67.19c-2.05-24.05-3.85-48.13-5.77-72.19c-2.05-25.72-3.82-51.47-6.34-77.16
		c-0.38-3.83-1.19-7.74,0.48-11.51c1.05-0.02,2.09-0.03,3.14-0.05c0.82,0.62,1.72,1.08,2.7,1.37c37.55,0.5,75.1,0.2,112.64,0.15
		C417.8,644.22,418.31,644.16,418.82,644.11z"/>
	<path class="st0" d="M574.15,642.85c1.24,0.4,2.48,0.8,3.72,1.2c0.51,0.07,1.02,0.14,1.54,0.21c40.33,0.09,80.66,0.36,120.99-0.14
		c0.99-0.29,1.9-0.74,2.73-1.35c1.03,0.02,2.06,0.04,3.09,0.06c1.77,5.66-0.64,11.01-1.57,16.36c-15.01,85.92-30,171.84-45.29,257.7
		c-3.8,21.32-7.66,42.63-11.08,64.02c-0.54,3.37-1.39,6.51-3.84,9.02c0.37,3.75-0.94,5.25-5.08,5.23
		c-29.55-0.17-59.1-0.21-88.65,0.05c-4.45,0.04-5.11-1.79-4.88-5.26c-2.15-7.53,0.56-14.89,0.72-22.34
		c0.84-40.3,6.66-80.22,9.17-120.33c2.03-32.43,5.97-64.66,8-97.07c1.32-21.02,2.9-42.1,5.33-63.06c1.35-11.59,0.88-23.31,2.6-34.87
		C572.14,649.02,571.66,645.56,574.15,642.85z"/>
	<path class="st2" d="M129.78,496.22c1.58,4.66,5.55,2.82,8.52,2.83c39.77,0.11,79.54,0.07,119.31,0.07
		c201.9,0,403.81,0.01,605.71-0.09c3.45,0,8.13,2.2,9.87-3.37c3.84,6.76,10.46,11.18,16.18,15.55c22.66,17.32,43,37.35,65.55,54.78
		c11.87,9.18,22.85,19.51,34.32,29.22c1.38,1.17,2.48,2.14,2.07,4.06c-2.88,1.58-6.01,0.79-9,0.79
		c-319.86,0.04-639.71,0.04-959.57,0c-3,0-6.12,0.78-9-0.79c-0.4-2.57-0.24-4.71,2.16-6.63c30.44-24.29,60.03-49.6,89.45-75.12
		C113.48,510.45,122.14,503.92,129.78,496.22z"/>
	<path class="st0" d="M435.55,642.94c1.26,0.38,2.52,0.75,3.78,1.13c0.41,0.27,0.82,0.53,1.23,0.8c0.76,0.62,1.45,1.32,2.09,2.07
		c2.49,3.71,2.23,7.95,2.25,12.1c0.07,14.18,0.01,28.37,0.03,42.55c0.01,4.17-0.03,8.36,1.81,12.27c0.87,2.47,0.54,4.92-0.21,7.35
		c-5.46,17.88-4.4,35.63,1.12,53.28c0.66,2.12,1.43,4.22,1.05,6.49c-5.84,3.74-3.6,11.68-8.28,16.05
		c-2.04,12.89,0.14,25.86-1.14,39.62c1.5-2.59,1.65-5.28,4.42-5.73c4.75,4.1,6.25,8.95,2.96,14.58c-3,5.14-1.38,10.07,0.2,15.08
		c-0.32,1.07,0.58-0.05-0.05,0.81c-9.41,12.99-6.94,27.95-7.05,42.46c-0.08,10.28-0.01,20.55-0.01,30.83
		c0,5.22,0.66,10.09,6.01,12.72c5.4,2.66,10.24,1.15,14.81-2.13c5.88-4.22,11.93-8.07,18.82-10.56c15.38-5.56,30.53-4.35,45.68,0.92
		c8.4,2.92,9.84,1.92,10.09-6.85c0.63-21.36,3.32-42.56,4.9-63.85c1.01-13.64-0.85-16.82-13.66-21.79
		c-15.54-6.03-31.21-7.41-47.2-1.95c-2.36,0.81-4.75,1.62-7.32,1c-0.91-5.14,0.36-6.24,5.17-8.41c9.79-4.4,21.07-6.26,30.16-3.73
		c10.08,2.81,22.77-1.44,31.87,10.6c-2-3.9-2.01-6.34-1.69-8.79c0.33-2.57,1.07-5.08,3.78-5.96c3.57-1.16,4.86,1.56,6.1,4.13
		c0.94,3.02,0.83,6.07,0.23,9.13c-1.39,3.85-1.06,7.68,0.15,11.51c1.52,7.58-0.85,14.85-1.72,22.24c-2.04,6.88-0.63,13.95-1.16,20.9
		c-0.03,1.39-0.26,2.76-0.57,4.12c-1.62,4.36-0.88,8.94-1.18,13.42c-0.07,1.4-0.31,2.78-0.64,4.14c-1.59,6.56-0.7,13.2-0.67,19.82
		c-2.86,16.35-3.42,32.95-5.23,49.41c-0.22,1.99-1.02,3.72-2.24,5.28c0.48,3.93-1.11,5.2-5.16,5.17
		c-29.47-0.17-58.94-0.19-88.41,0.01c-4.21,0.03-5.45-1.42-4.99-5.2c-2.73-3.25-2.65-7.2-2.65-11.09
		c-0.05-108.29-0.05-216.58,0.01-324.87C433.05,650.19,432.64,646.16,435.55,642.94z"/>
	<path class="st3" d="M757.96,989.92c6.94-28.46,13.92-56.92,20.82-85.39c7.3-30.09,14.52-60.19,21.79-90.28
		c12.99-53.75,25.99-107.5,39.05-161.23c0.84-3.47,2.3-6.79,3.46-10.18c3.82,0.02,7.64,0.04,11.46,0.06
		c-1.12,13.85-5.68,27-8.9,40.37c-7.76,32.21-15.56,64.41-23.17,96.66c-8.18,34.69-17.2,69.18-25.59,103.82
		c-8.39,34.62-16.46,69.31-24.7,103.97c-0.19,0.8-0.65,1.53-0.99,2.29C766.78,989.97,762.37,989.95,757.96,989.92z"/>
	<path class="st3" d="M435.55,642.94c0.08,33.37,0.22,66.74,0.22,100.11c0.01,82.31-0.05,164.62-0.08,246.93
		c-3.87,0.01-7.74,0.02-11.62,0.04c-2.75-2.78-1.58-6.3-1.59-9.48c-0.16-43.18-0.22-86.35-0.3-129.53
		c-2.72-2.97-2.41-6.7-2.43-10.26c-0.09-20.83-0.1-41.66,0-62.48c0.02-3.56-0.29-7.3,2.5-10.23c0.06-38.26,0.11-76.52,0.18-114.78
		c0.01-3.57-0.54-7.25,1.64-10.49C427.9,642.82,431.72,642.88,435.55,642.94z"/>
	<path class="st4" d="M298.8,642.81c2.71,6.8,2.61,14.11,3.24,21.18c3.02,33.9,5.68,67.83,8.3,101.76
		c1.9,24.56,3.34,49.17,5.35,73.72c1.85,22.6,4.89,45.12,6.09,67.75c0.91,17.16,2.79,34.23,3.96,51.35
		c0.71,10.44,0.56,21.03,3.05,31.31c-4.4,0.04-8.81,0.08-13.21,0.12c-2.61-9.43-2.21-19.21-3.16-28.81
		c-2.61-26.4-4.58-52.87-6.66-79.32c-1.32-16.82-2.21-33.67-3.6-50.49c-1.93-23.4-4.47-46.76-6.14-70.18
		c-1.02-14.35-2.09-28.67-3.49-42.99c-2.24-22.83-3.62-45.75-5.31-68.64c-0.16-2.2,0.08-4.44,0.14-6.66
		C291.18,642.88,294.99,642.84,298.8,642.81z"/>
	<path class="st4" d="M205.48,989.96c-4.77-13.3-5.78-27.39-8.3-41.13c-7.25-39.64-14-79.37-20.93-119.07
		c-8.11-46.5-16.2-93-24.28-139.5c-2.74-15.75-5.42-31.52-8.12-47.28c3.81-0.06,7.62-0.12,11.42-0.18
		c5.77,15.68,6.81,32.36,9.86,48.58c6.67,35.54,12.41,71.25,18.65,106.88c6.57,37.52,13.36,75.01,19.9,112.54
		c4.59,26.37,8.92,52.79,13.37,79.18C213.19,989.96,209.34,989.96,205.48,989.96z"/>
	<path class="st4" d="M644.44,989.95c6.9-39.97,13.75-79.95,20.71-119.9c8.06-46.22,16.19-92.43,24.34-138.63
		c4.94-27.99,9.97-55.97,15.02-83.94c0.29-1.6,1.12-3.1,1.7-4.64c3.81,0.02,7.63,0.04,11.44,0.07c-1.96,19.81-6.45,39.2-9.82,58.77
		c-6.56,38.09-13.24,76.17-19.98,114.23c-8.24,46.49-16.67,92.95-24.85,139.45c-2.04,11.61-2.49,23.52-7.01,34.63
		C652.15,989.97,648.29,989.96,644.44,989.95z"/>
	<path class="st3" d="M544.2,872.96c-0.42-7.89,3.08-15.55,1.33-23.52c-0.62-3.25-0.84-6.49,0.15-9.72
		c0.05-3.38,0.11-6.76,0.16-10.14c-2.26-15.25,0.37-30.39,2.16-45.37c2.34-19.48,5.02-38.96,5.33-58.52
		c0.4-25.26,3.8-50.24,5.19-75.38c0.12-2.24,0.6-4.4,2.29-6.08c4.19-2.92,8.87-1.09,13.33-1.38c-0.37,20.49-2.65,40.84-4.21,61.24
		c-1.22,16-3.18,31.97-3.84,47.99c-0.89,21.35-4.75,42.35-6.35,63.59c-0.29,3.87-0.57,7.76-0.6,11.64
		c-0.26,31.62-6.23,62.77-7.91,94.27c-0.79,14.95-2.29,29.85-2.25,44.87c0.02,7.84-0.42,15.9-3.17,23.5
		c-3.86,0.01-7.72,0.02-11.58,0.03c0.4-18.51,2.19-36.9,5.07-55.19c2.12-6.59-0.55-13.54,1.53-20.13c0.03-1.08,0.07-2.17,0.1-3.25
		c2.2-4.27-0.57-9.14,1.62-13.42c0.02-1.09,0.04-2.18,0.06-3.27C544.91,887.6,541.96,880.09,544.2,872.96z"/>
	<path class="st1" d="M586.07,11.89c-0.41,18.32-0.41,18.32-19.09,18.32c-48.26,0-96.52,0.02-144.79-0.01
		c-12.97-0.01-11.34,1.23-11.48-11.65c-0.02-2.22-0.07-4.44-0.11-6.65c0.13-1.64,0.25-3.27,0.38-4.91c3.08-3.1,7.1-2.8,10.93-2.8
		c50.95-0.07,101.9-0.07,152.85,0c3.83,0.01,7.85-0.3,10.93,2.8C585.81,8.61,585.94,10.25,586.07,11.89z"/>
	<path class="st5" d="M13.71,599.28c325.86,0,651.72,0,977.58,0c-0.01,0.62-0.01,1.23-0.01,1.85
		c-157.7-0.02-315.41-0.06-473.11-0.07c-164.66-0.01-329.31,0-493.97-0.01c-3.61,0-7.22-0.16-10.83-0.25
		C13.42,600.27,13.53,599.77,13.71,599.28z"/>
	<path class="st2" d="M585.69,6.98c-58.24,0-116.48,0-174.72,0c-0.97-4.78,0.28-6.93,5.85-6.91c54.34,0.18,108.68,0.18,163.01,0
		C585.4,0.04,586.66,2.2,585.69,6.98z"/>
	<path class="st6" d="M858.25,644.1c2.59-2.47,5.82-1.35,8.75-1.35c34.46-0.08,68.92-0.27,103.37,0.12
		c7.18,0.08,12.26-1.21,14.51-8.5c-0.08,3.65,0.73,7.57-3.05,10.1c-1.8,1.06-3.79,0.69-5.7,0.69c-37.47,0.02-74.93,0.02-112.4,0
		c-1.92,0-3.9,0.35-5.7-0.71L858.25,644.1z"/>
	<path class="st7" d="M858.03,644.45c41.27,0.01,82.53,0.01,123.8,0.02c-0.13,0.52-0.27,1.04-0.4,1.56
		c-37.97,0-75.93,0.03-113.9-0.06C864.35,645.96,860.83,647.19,858.03,644.45z"/>
	<path class="st4" d="M834.92,46.81c3.87,1.92,3.07,5.53,3.08,8.77c0.05,13.88-0.32,27.78,0.13,41.65
		c1.39,42.69,0.48,85.43,2.07,128.07c1.19,31.9-0.46,63.8,1.49,95.61c2,32.72,0.16,65.45,1.72,98.11
		c0.63,13.28,1.22,26.54,1.26,39.82c0.01,3.19,0.93,6.93-3.45,8.38c-2.96-1.19-6.05-0.61-9.08-0.61
		c-220.85-0.03-441.7-0.03-662.55,0c-3.03,0-6.12-0.54-9.1,0.56c-2.63-1.81-3.06-4.67-2.76-7.36c1.92-17.74,0.51-35.52,0.9-53.28
		c0.98-43.78,0.89-87.6,2.17-131.35c0.92-31.65-0.53-63.34,1.5-94.88c1.81-28.06-0.11-56.1,1.66-84.05
		c0.95-14.98,0.91-29.92,1.36-44.87c0.05-1.67-0.01-3.36,1.48-4.55c2.92-1.39,6.03-0.7,9.04-0.7c216.68-0.04,433.36-0.04,650.04,0
		C828.89,46.13,831.99,45.45,834.92,46.81z"/>
	<path class="st8" d="M160.48,467.18c2.62-2.39,5.84-1.34,8.78-1.34c221.06-0.05,442.13-0.05,663.19,0c2.94,0,6.17-1.07,8.75,1.4
		c-2.78,0.07-5.56,0.22-8.33,0.22c-221.35,0.01-442.71,0.01-664.07,0C166.04,467.45,163.26,467.27,160.48,467.18z"/>
	<path class="st9" d="M834.92,46.81c-162.93,0.03-325.86,0.07-488.79,0.08c-59.78,0.01-119.56-0.04-179.34-0.07
		c2.5-2.65,5.76-1.55,8.68-1.55c216.91-0.05,433.83-0.05,650.74,0C829.15,45.27,832.4,44.22,834.92,46.81z"/>
	<path class="st0" d="M560.82,644.23c-0.61,19.56-1.75,39.07-4.44,58.49c-0.79,5.72-0.33,11.61-0.5,17.42
		c-0.67,22.07-2.48,44.01-6.05,65.85c-1.68,10.3-1.72,20.88-2.16,31.35c-0.18,4.19-0.58,8.25-1.82,12.24
		c-3.63-3.97-6.05-3.53-6.54,2.03c-0.3,3.42-0.06,6.88-0.06,10.87c-5.48-5.4-10.82-10.25-18.93-6.87c-0.25,0.1-0.65,0.23-0.79,0.11
		c-7.8-6.52-17.53-1.05-25.87-4.18c-0.98-0.37-2.54-1.11-2.96-0.73c-4.48,4.06-9.89,4.97-15.62,5.69c-1.61,0.2-2.87,3.11-4.29,4.78
		c0.69,2.96-1.81,3.82-3.55,4.74c-7.44,3.93-12.72,11.12-20.97,13.79c-5.63-2.47-5.27-8.65-3.31-11.34
		c4.49-6.16,2.8-11.59,0.98-17.51c-2.77-2.93-2.51-6.69-2.18-10.12c0.81-8.39-3.81-16.23-2.22-24.63c1.9-3.61,3.09-7.38,2.87-11.52
		c-0.34-6.58,2.68-3.89,5.42-1.94c4.18,0.05,5.1,3.8,7.06,6.3c9.2,11.72,21.65,11.01,27.29-2.7c10.42-25.31,7.42-49.88-7.16-73.02
		c-0.59-0.94-1.24-2.02-2.19-2.48c-16.21-7.88-16.09-23.72-18.72-38.21c-0.01-0.54-0.02-1.09-0.02-1.65c0-0.44,0.01-0.72,0-0.83
		c-0.13,0.13-0.02,0.3-0.06,0.52c-1.57,9.46,0.65,18.66,1.41,27.92c0.67,8.23-1.68,12.42-9.4,15.93c-5.08-0.81-3.57-4.83-3.59-7.82
		c-0.11-17.06-0.11-34.11-0.01-51.17c0.02-3.68,0.02-7.15-3.38-9.53c3.17-2.46,6.9-1.61,10.42-1.62
		c35.96-0.13,71.92,0.11,107.89-0.15c0.53-0.07,1.06-0.15,1.59-0.22C559.59,644.1,560.21,644.16,560.82,644.23z"/>
	<path class="st6" d="M703.13,642.77c-0.1,0.53-0.21,1.05-0.33,1.57c-1.75,1.21-3.74,0.81-5.65,0.81
		c-37.96,0.02-75.91,0.02-113.87,0c-1.91,0-3.9,0.38-5.67-0.77c0,0,0.26-0.34,0.26-0.34c2.04-2.13,4.69-1.33,7.09-1.33
		C624.35,642.7,663.74,642.74,703.13,642.77z"/>
	<path class="st6" d="M160.44,644.57c-0.67-0.61-1.34-1.22-2.02-1.82c39.38-0.02,78.76-0.05,118.14-0.03c2.4,0,5.05-0.8,7.06,1.38
		c0,0,0.22,0.35,0.22,0.35c-1.52,0.92-3.21,0.7-4.85,0.7c-38.16,0.01-76.33,0.01-114.49,0.01
		C163.11,645.17,161.73,645.19,160.44,644.57z"/>
	<path class="st6" d="M439.32,644.07c1.75-1.96,4.09-1.36,6.24-1.36c35.72-0.03,71.44-0.03,107.16,0c2.14,0,4.49-0.61,6.25,1.32
		c0,0,0.28,0.33,0.28,0.33c-1.48,1.05-3.18,0.8-4.82,0.8c-36.84,0.01-73.69,0.01-110.53,0c-1.64,0-3.34,0.23-4.85-0.73
		L439.32,644.07z"/>
	<path class="st6" d="M839.93,642.75c-0.68,0.61-1.36,1.21-2.04,1.82c-9.07,1.32-18.19,0.5-27.28,0.55
		c-27.09,0.14-54.18,0.07-81.28,0.02c-2.72-0.01-5.54,0.6-8.17-0.68c0,0,0.21-0.35,0.21-0.36c2.01-2.18,4.67-1.38,7.07-1.38
		C765.6,642.7,802.77,642.73,839.93,642.75z"/>
	<path class="st6" d="M302.21,644.3c-0.09-0.51-0.18-1.03-0.26-1.54c36.6-0.02,73.21-0.06,109.82-0.03c2.4,0,5.05-0.8,7.06,1.39
		c0,0,0.22,0.36,0.22,0.36c-2.64,1.27-5.46,0.67-8.19,0.67c-33.51,0.05-67.02,0.05-100.53-0.01
		C307.62,645.13,304.78,645.89,302.21,644.3z"/>
	<path class="st10" d="M88.54,646c-19.07,0.01-38.15,0.06-57.22-0.01c-2.64-0.01-5.6,0.96-7.79-1.54
		c21.72-0.08,43.44-0.16,65.16-0.23c0.17,0.31,0.35,0.63,0.52,0.94C88.98,645.43,88.76,645.71,88.54,646z"/>
	<path class="st11" d="M88.68,644.21c4.55-3.15,9.7-1.54,14.47-1.38c12.31,0.42,24.73-1.92,36.94,1.29c0,0,0.21,0.36,0.21,0.36
		c-17.28,1.22-34.56,1-51.84,0.11L88.68,644.21z"/>
	<path class="st7" d="M160.44,644.57c41.13-0.04,82.27-0.08,123.4-0.12c-1.96,2.24-4.62,1.55-7.04,1.55
		c-36.43,0.04-72.86,0.04-109.29,0C165.11,646,162.45,646.74,160.44,644.57z"/>
	<path class="st7" d="M721.16,644.46c38.91,0.04,77.82,0.07,116.73,0.11c-2.02,2.17-4.67,1.43-7.08,1.43
		c-34.2,0.04-68.4,0.04-102.6,0C725.78,646,723.13,646.7,721.16,644.46z"/>
	<path class="st7" d="M88.45,644.59c17.28-0.04,34.56-0.07,51.84-0.11c-4.54,3.17-9.65,1.35-14.46,1.46
		c-12.43,0.28-24.86,0.07-37.3,0.06C88.54,645.52,88.51,645.05,88.45,644.59z"/>
	<path class="st12" d="M422.25,768.02c-0.03,27.66-0.05,55.32-0.08,82.98c-8.14,0.14-13.56-4.92-17.77-10.69
		c-12.86-17.67-21.7-38.11-14.7-59.12c5.58-16.74,2.53-32.34,3.01-48.48c0.06-2.03-1.23-5.39,1.46-5.79
		c3.66-0.55,2.69,3.34,3.26,5.46c1.17,4.27,2.19,8.59,3.05,12.93c1.62,8.2,2.7,16.47,14.16,16.68
		C417.77,762.05,420.24,765.3,422.25,768.02z"/>
	<path class="st7" d="M302.21,644.3c38.94,0.06,77.89,0.11,116.83,0.17c-1.96,2.22-4.59,1.54-7,1.54
		c-34.31,0.04-68.62,0.04-102.92,0C306.72,646,304.05,646.72,302.21,644.3z"/>
	<path class="st13" d="M604.23,723.63c0.35,10.14,0.8,20.3-1.14,30.39c-0.87,4.52-0.78,8.43,2.17,12.54
		c6.19,8.64,6.4,18.86,5.48,28.89c-1.58,17.3-7.53,32.96-19.44,45.96c-2.84,3.1-6.29,5.52-10.18,7.15
		c-11.47,4.8-21.14-1.66-20.34-13.79c1.03-15.79,2.12-31.59,3.78-47.32c1.55-14.69,9.72-24.63,23.96-28.83
		c3.95-1.17,5.25-3.23,6.09-6.74c2.29-9.58,4.83-19.09,7.27-28.63C602.66,723.37,603.44,723.5,604.23,723.63z"/>
	<path class="st14" d="M558.42,866.35c16.8,12.34,27.42,46.98,20.36,64.74c-3.73,9.39-11.31,14.9-20.27,18.67
		c-4.09,1.72-6.38,0.44-6.11-4.43c0.36-6.38,0.23-12.8,0.76-19.17C554.77,906.57,556.59,886.98,558.42,866.35z"/>
	<path class="st7" d="M577.61,644.39c41.73-0.01,83.46-0.03,125.19-0.04c-1.87,2.37-4.54,1.66-6.94,1.66
		c-37.09,0.04-74.19,0.04-111.28,0C582.17,646,579.52,646.7,577.61,644.39z"/>
	<path class="st15" d="M857.98,512.93c19.56,16.09,39,32.34,58.74,48.2c7.65,6.15,14.07,13.83,22.99,18.43
		c1.92,0.99,1.81,2.58-0.17,3.72c-0.2,0.11-0.57,0.03-0.8-0.07c-0.24-0.11-0.41-0.37-0.61-0.56c-11.49-0.3-22.99,0.11-34.48-0.05
		c-3.03-0.04-6.07,0.11-9.1-0.22c-4.36-1.01-7.2-4.16-9.78-7.41c-6.79-8.52-14.91-15.74-22.39-23.58c-4.1-4.3-8.84-6.55-14.82-6.24
		c-2.49,0.13-5,0-7.51,0c-224.42,0-448.83,0.07-673.25-0.21c-11.49-0.01-20.38,2.65-27.78,11.57c-5.3,6.39-11.76,11.8-16.98,18.35
		c-2.59,3.25-5.44,6.37-9.74,7.5c-13.83,0.09-27.67,1.02-41.48-0.55c-1.38-0.16-2.77-0.12-3.92,0.88c-4.13,0.83-3.71-1.52-1.6-3.06
		c17.74-12.87,34.1-27.45,51.07-41.27c10.29-8.38,20.45-16.94,30.67-25.42c3.3-2.61,7.36-0.31,10.85-1.67
		c3.59-0.68,7.21-0.4,10.82-0.4c222.09-0.02,444.18-0.02,666.27,0.04c4.33,0,8.94-1.24,12.95,1.65c0.6-0.05,1.2-0.1,1.81-0.14
		C852.53,511.64,855.35,510.71,857.98,512.93z"/>
	<path class="st16" d="M933.13,582.9c-2.65,2.31-5.85,1.34-8.81,1.34c-281.21,0.04-562.43,0.04-843.64,0
		c-2.96,0-6.16,0.97-8.81-1.34c10.33-2.52,20.82-0.43,31.22-1.07c3.03-0.19,6.09,0.02,9.13-0.08c4.52-1.61,9.19-1.9,13.96-1.9
		c251.39,0.03,502.77,0.03,754.16,0c4.76,0,9.44,0.21,13.95,1.88C907.22,582.58,920.25,580.35,933.13,582.9z"/>
	<path class="st17" d="M847.92,512.56c-230.31-0.01-460.62-0.02-690.93-0.04c-0.56-0.43-0.72-0.8-0.46-1.12
		c0.23-0.28,0.46-0.42,0.69-0.42l-0.22,0.03c2.53-1.78,5.4-0.93,8.1-0.93c225.02-0.04,450.03-0.05,675.05,0.02
		c2.6,0,5.57-1.25,7.83,1.28C847.89,511.77,847.87,512.16,847.92,512.56z"/>
	<path class="st18" d="M847.97,511.38c-5.54-0.18-11.08-0.51-16.63-0.51c-222.01-0.04-444.01-0.05-666.02-0.06
		c-2.78,0-5.55,0.13-8.33,0.19c2.64-3.13,6.24-1.76,9.39-1.76c224.15-0.07,448.3-0.07,672.46,0.01
		C841.93,509.26,845.65,507.67,847.97,511.38z"/>
	<path class="st19" d="M112.06,582.31c-13.39,0.2-26.79,0.39-40.18,0.59c-1.66-0.07-3.33-0.14-4.99-0.21
		c3.86-3.33,8.48-1.55,12.72-1.66c10.79-0.26,21.6-0.08,32.39-0.07c0.52,0.28,0.71,0.57,0.55,0.88
		C112.39,582.15,112.23,582.31,112.06,582.31z"/>
	<path class="st19" d="M933.13,582.9c-12.84-0.2-25.68-0.39-38.51-0.59c-0.5-0.32-0.66-0.63-0.47-0.92
		c0.18-0.28,0.35-0.43,0.53-0.43c11.9-0.01,23.8-0.07,35.69,0.02c2.64,0.02,5.62-0.94,7.75,1.67
		C936.46,582.73,934.79,582.81,933.13,582.9z"/>
	<path class="st20" d="M157.21,510.98c-0.01,0.52-0.08,1.04-0.23,1.54c-3.32,0.14-6.64,0.27-9.96,0.41
		C149.82,509.14,153.79,511.47,157.21,510.98z"/>
	<path class="st21" d="M857.98,512.93c-2.75-0.17-5.5-0.34-8.26-0.51C852.62,510.24,855.41,509.74,857.98,512.93z"/>
	<path class="st13" d="M446.28,859.82c7.37-7.23,15.86-12.99,24.51-18.52c22.82-8.78,44.95-8.34,66.3,4.65
		c4.5,2.74,6.33,5.51,5.78,11.32c-2.22,23.76-3.61,47.61-5.32,71.42c-0.16,2.22-0.41,4.42-0.67,6.63c-0.61,5.23-2.3,7.14-8.07,4.47
		c-12.88-5.95-26.49-7.81-40.63-5.09c-9.81,1.88-18.33,6.16-25.99,12.46c-5.91,4.85-12.17,6.44-19.1,1.84
		c-3.99-2.65-6.11-5.8-6.04-10.95c0.27-19.74,0.42-39.48-0.04-59.21C436.82,870.5,443.21,866.14,446.28,859.82z"/>
	<path class="st13" d="M455.68,671.03c1.21,5.7,2.31,11.43,3.65,17.1c1.83,7.74,3.37,15.02,12.25,19.08
		c6.52,2.98,9.86,10.39,12.42,17.25c6.79,18.18,8.43,36.74,3.3,55.62c-0.94,3.44-2.45,6.82-4.23,9.92
		c-6.98,12.18-18.64,13.37-27.95,2.84c-2.73-3.09-4.86-6.71-7.26-10.09c-8.44-22.53-10.28-45.23-1.79-68.21
		c9.64-6.64,7.16-16.25,5.99-25.36c-0.93-7.22-0.92-14.34,0.36-21.48C455.67,666.68,454.29,670.21,455.68,671.03z"/>
	<path class="st22" d="M439.56,796.21c4.66,11.18,4.86,22.93,4.39,34.76c-2.53,3.76-1.58,9.2-6.68,13.01
		c0-16.35-0.01-31.84,0.04-47.33c0-0.37,0.57-0.96,0.95-1.03C438.64,795.54,439.12,795.99,439.56,796.21z"/>
	<path class="st7" d="M439.05,644.43c40.07-0.02,80.14-0.04,120.2-0.06c-2.74,2.89-6.29,1.6-9.46,1.61
		c-36.9,0.09-73.81,0.06-110.71,0.05C439.07,645.49,439.07,644.96,439.05,644.43z"/>
	<path class="st23" d="M544.2,872.96c-0.75,7.24,1.81,14.73-1.58,21.78C543.21,887.48,540.97,880.02,544.2,872.96z"/>
	<path class="st23" d="M540.84,914.67c-0.63,6.7,1.64,13.62-1.53,20.13C539.8,928.09,537.81,921.19,540.84,914.67z"/>
	<path class="st23" d="M542.56,898.01c-0.55,4.47,1.55,9.26-1.62,13.42C541.45,906.95,539.48,902.17,542.56,898.01z"/>
	<path class="st0" d="M545.68,839.73c-0.05,3.24-0.1,6.48-0.15,9.72C543.54,846.17,543.4,842.93,545.68,839.73z"/>
	<path class="st13" d="M507.59,755.97c0.26-13.39,2.96-27.4,10.12-40.36c1.77-3.2,3.57-6.97,6.74-8.28
		c12.74-5.28,12.97-17.11,15.74-27.82c0.84-3.23-0.33-9.32,3.7-8.96c4.15,0.37,1.56,6.03,1.84,9.3c0.33,3.83,0.17,7.81-0.49,11.6
		c-1.26,7.28-2.08,13.92,4.39,19.82c3.65,3.33,4.86,8.59,4.36,13.88c-1.63,17.09-3.2,34.19-4.77,51.29
		c-0.33,3.63-1.03,7.19-2.88,10.34c-3.82,6.48-8.92,11.79-16.85,12.05c-7.95,0.25-12.37-5.27-15.69-11.78
		C509,777.66,507.75,767.55,507.59,755.97z"/>
	<path class="st24" d="M455.68,671.03c-1.09-1.11-2.18-2.22-3.27-3.33c0.04-1.03,0.3-2.59,1.39-2.12
		C456.08,666.57,455.83,668.93,455.68,671.03z"/>
	<path class="st4" d="M894.68,580.96c-0.06,0.45-0.08,0.9-0.06,1.35c-2.5,0.06-5,0.17-7.5,0.17c-255.85,0.01-511.7,0.01-767.55,0
		c-2.5,0-5-0.11-7.5-0.17c0.02-0.45,0-0.9-0.06-1.35c10.84-11.14,21.79-22.18,32.46-33.48c3.29-3.49,6.67-5.05,11.57-5.04
		c231.54,0.11,463.08,0.11,694.62,0c4.9,0,8.28,1.56,11.57,5.04C872.88,558.79,883.83,569.82,894.68,580.96z"/>
</g>
</svg>
