<svg width="221" height="221" viewBox="0 0 221 221" fill="none" xmlns="http://www.w3.org/2000/svg">
<path d="M110.5 217.331C166.389 217.331 211.696 172.024 211.696 116.135C211.696 60.2465 166.389 14.9396 110.5 14.9396C54.6112 14.9396 9.3042 60.2465 9.3042 116.135C9.3042 172.024 54.6112 217.331 110.5 217.331Z" fill="#232628"/>
<path d="M110.5 196.579C161.153 196.579 202.215 155.517 202.215 104.864C202.215 54.2117 161.153 13.1495 110.5 13.1495C59.8474 13.1495 18.7852 54.2117 18.7852 104.864C18.7852 155.517 59.8474 196.579 110.5 196.579Z" fill="#3D4144"/>
<path d="M172.38 35.36C154.942 19.7906 132.217 11.4676 108.849 12.0915C85.48 12.7155 63.2315 22.2393 46.6494 38.7171C30.0673 55.1948 20.4031 77.3826 19.6316 100.747C18.86 124.111 27.0394 146.888 42.4983 164.424L175.695 38.454C174.59 37.57 173.485 36.4208 172.38 35.36Z" fill="#74818C"/>
<path d="M103.273 39.338C141.55 36.8628 175.739 54.808 192.093 82.4551C189.683 62.7391 179.794 44.7014 164.468 32.0671C147.51 18.1783 125.911 11.2489 104.038 12.6808C82.1662 14.1127 61.6543 23.799 46.6525 39.78C35.5635 51.6881 28.4707 66.7623 26.3647 82.8971C41.4148 58.7197 69.7912 41.5038 103.273 39.338Z" fill="#232628"/>
<path d="M182.06 33.3047C167.908 19.1501 149.877 9.50996 130.246 5.60356C110.615 1.69716 90.267 3.69993 71.7747 11.3586C53.2823 19.0172 37.4764 31.9878 26.3559 48.6298C15.2354 65.2718 9.2998 84.8379 9.2998 104.853C9.2998 124.869 15.2354 144.435 26.3559 161.077C37.4764 177.719 53.2823 190.69 71.7747 198.348C90.267 206.007 110.615 208.01 130.246 204.103C149.877 200.197 167.908 190.557 182.06 176.402C201.027 157.422 211.682 131.687 211.682 104.853C211.682 78.0201 201.027 52.2849 182.06 33.3047ZM169.109 163.54C157.523 175.141 142.756 183.044 126.677 186.25C110.598 189.456 93.9294 187.821 78.78 181.551C63.6305 175.282 50.6811 164.66 41.5702 151.029C32.4592 137.398 27.596 121.371 27.596 104.975C27.596 88.5795 32.4592 72.5524 41.5702 58.9214C50.6811 45.2904 63.6305 34.6682 78.78 28.3986C93.9294 22.129 110.598 20.4939 126.677 23.7C142.756 26.9061 157.523 34.8094 169.109 46.41C184.629 61.9491 193.346 83.013 193.346 104.975C193.346 126.937 184.629 148.001 169.109 163.54Z" fill="#ABB3B7"/>
<path d="M166.634 105.815L162.877 100.091L164.313 99.3395C166.289 98.2397 167.91 96.5994 168.987 94.6109C170.063 92.6224 170.55 90.3682 170.391 88.1127L169.529 71.7587C169.524 70.9851 169.317 70.2262 168.927 69.558C168.537 68.8898 167.979 68.3356 167.307 67.9508C166.636 67.566 165.876 67.3641 165.102 67.3653C164.329 67.3665 163.569 67.5707 162.899 67.9575L147.76 77.7257C144.411 73.7769 140.243 70.6032 135.546 68.4243C130.848 66.2454 125.733 65.1134 120.555 65.1066H100.665C95.4838 65.0985 90.3628 66.2216 85.6602 68.3973C80.9575 70.5731 76.7864 73.7491 73.4381 77.7036L56.3769 67.8691C55.7939 67.5618 55.1396 67.4153 54.4812 67.4446C53.8229 67.4738 53.1841 67.6778 52.6307 68.0356C52.0772 68.3933 51.6289 68.8919 51.3318 69.4802C51.0348 70.0685 50.8997 70.7252 50.9403 71.383L50.8298 89.2619C50.78 91.303 51.3154 93.3157 52.3728 95.0623C53.4301 96.8089 54.9653 98.2164 56.7968 99.1185L58.4985 99.892L54.8962 105.329C52.348 109.185 50.9401 113.683 50.8346 118.304C50.729 122.925 51.93 127.482 54.2995 131.451L83.5158 162.015C84.77 163.327 86.3637 164.265 88.1194 164.726C89.8751 165.186 91.7241 165.151 93.4608 164.623V164.733L100.091 170.59C103.009 173.292 106.819 174.828 110.796 174.905C114.772 174.983 118.639 173.596 121.66 171.01L129.285 164.733C131.095 165.161 132.985 165.104 134.766 164.568C136.546 164.033 138.155 163.038 139.429 161.684L167.628 131.186C169.793 127.268 170.844 122.834 170.669 118.362C170.494 113.889 169.098 109.551 166.634 105.815Z" fill="#232628"/>
<path d="M93.4165 155.717L100.047 161.573C102.961 164.257 106.757 165.782 110.719 165.859C114.68 165.936 118.533 164.561 121.55 161.993L129.174 155.717L108.975 100.157L93.4165 155.717Z" fill="#ABB3B7"/>
<path d="M141.661 72.6648L162.943 58.9407C163.613 58.5539 164.373 58.3497 165.146 58.3485C165.92 58.3473 166.68 58.5492 167.351 58.934C168.023 59.3188 168.581 59.873 168.971 60.5412C169.361 61.2094 169.568 61.9683 169.573 62.7419L170.435 79.0738C170.596 81.3326 170.11 83.5904 169.033 85.5828C167.957 87.5751 166.335 89.2193 164.357 90.3227L155.517 94.9858L141.661 72.6648Z" fill="#ABB3B7"/>
<path d="M78.8745 71.7808L56.3988 58.8523C55.8158 58.545 55.1615 58.3985 54.5031 58.4278C53.8447 58.4571 53.206 58.661 52.6525 59.0188C52.099 59.3765 51.6507 59.8751 51.3537 60.4634C51.0566 61.0517 50.9215 61.7084 50.9622 62.3662L50.8296 80.223C50.7743 82.2651 51.3074 84.2801 52.3654 86.0277C53.4234 87.7753 54.9615 89.1818 56.7966 90.0796L66.3438 94.4996L78.8745 71.7808Z" fill="#ABB3B7"/>
<path d="M54.277 122.434L83.5153 152.998C84.8729 154.408 86.6169 155.384 88.528 155.805C90.4391 156.226 92.4319 156.072 94.2559 155.363L110.654 148.954L128.025 155.341C129.975 156.061 132.095 156.187 134.116 155.703C136.138 155.219 137.971 154.147 139.384 152.623L167.628 122.169C169.792 118.247 170.843 113.809 170.668 109.334C170.492 104.858 169.097 100.516 166.633 96.7759L150.279 72.1344C147.035 67.2031 142.616 63.1553 137.42 60.3548C132.224 57.5542 126.413 56.0886 120.511 56.0898H100.621C94.718 56.0924 88.9079 57.5571 83.7095 60.353C78.511 63.1489 74.086 67.189 70.8299 72.1123L54.8074 96.4223C52.2913 100.273 50.9075 104.753 50.8137 109.352C50.7199 113.951 51.9199 118.484 54.277 122.434Z" fill="#ABB3B7"/>
<path d="M166.634 96.7759L162.877 91.0741L164.314 90.3227C166.291 89.2193 167.913 87.5751 168.99 85.5827C170.066 83.5904 170.552 81.3326 170.391 79.0738L169.529 62.7419C169.525 61.9683 169.317 61.2094 168.927 60.5412C168.537 59.873 167.979 59.3188 167.308 58.934C166.637 58.5492 165.876 58.3473 165.103 58.3485C164.329 58.3497 163.569 58.5539 162.899 58.9407L159.584 61.1507C157.927 65.9906 156.026 70.9852 153.816 76.0903C152.601 78.897 151.363 81.7479 150.081 84.643L97.5275 147.009C93.1955 149.491 88.7156 151.705 84.1128 153.639C85.366 154.752 86.882 155.526 88.5177 155.889C90.1534 156.253 91.8548 156.193 93.4611 155.717L100.091 161.573C103.003 164.245 106.79 165.762 110.741 165.84C114.693 165.917 118.536 164.549 121.55 161.993L129.175 155.717C130.986 156.146 132.879 156.088 134.661 155.548C136.443 155.009 138.05 154.007 139.319 152.645L167.629 122.169C169.793 118.247 170.844 113.809 170.668 109.334C170.493 104.858 169.098 100.516 166.634 96.7759Z" fill="#74818C"/>
<path d="M141.66 67.3387L147.274 73.6151L161.595 66.742L158.655 61.7032L147.804 68.7089C144.458 64.7555 140.291 61.5786 135.593 59.3993C130.895 57.22 125.778 56.0906 120.599 56.0898H100.709C91.7542 56.0928 83.1294 59.4701 76.5537 65.5486L78.8963 71.8029L100.223 66.7641L141.66 67.3387Z" fill="#E4ECEF"/>
<path d="M74.8304 67.2282L54.9404 96.3118L70.4104 98.787L87.8473 58.565C82.9254 60.4629 78.4814 63.4206 74.8304 67.2282Z" fill="#E4ECEF"/>
<path d="M75.4493 74.3444L75.9797 66.0348C75.0953 66.8676 74.2544 67.7454 73.4603 68.6647L56.3991 58.8523C55.8573 58.5606 55.2504 58.4108 54.6351 58.4168C54.0197 58.4228 53.4159 58.5845 52.8799 58.8867C52.3438 59.1889 51.893 59.6219 51.5693 60.1453C51.2457 60.6686 51.0597 61.2654 51.0288 61.88L75.4493 74.3444Z" fill="#E4ECEF"/>
<path d="M110.654 151.783V135.561" stroke="#232628" stroke-width="2.04" stroke-miterlimit="10"/>
<path d="M102.279 126.169H119.207C119.624 126.164 120.033 126.285 120.381 126.515C120.728 126.746 120.998 127.076 121.155 127.462C121.313 127.849 121.35 128.273 121.263 128.681C121.176 129.089 120.967 129.461 120.666 129.749L113.063 137.02C112.544 137.503 111.861 137.772 111.152 137.772C110.442 137.772 109.759 137.503 109.24 137.02L100.908 129.639C100.647 129.351 100.471 128.997 100.401 128.614C100.331 128.232 100.369 127.838 100.512 127.477C100.655 127.115 100.896 126.801 101.208 126.57C101.52 126.339 101.891 126.2 102.279 126.169Z" fill="#3D4144"/>
<path d="M129.882 104.312L128.909 120.202L144.291 109.616V99.1185L129.882 104.312Z" fill="#232628"/>
<path d="M91.074 103.052L91.9801 120.202L76.2891 106.632L75.6924 100.179L91.074 103.052Z" fill="#232628"/>
<path d="M126.39 52.598L143.495 98.7649L129.882 104.312L127.981 136.092L139.296 126.169L132.467 159.54L110.655 151.783L88.7314 159.54L81.6815 124.732L92.9967 136.092L91.074 103.052L76.2891 98.7649L95.5382 54.4102" stroke="#232628" stroke-width="2.04" stroke-miterlimit="10"/>
<path d="M110.787 59.2501L100.024 59.1617L111.163 74.3444L121.307 59.1617L110.787 59.2501Z" fill="#3D4144"/>
<path d="M110.787 59.2501L100.024 59.1617L105.66 66.8304L116.069 66.9851L121.307 59.1617L110.787 59.2501Z" fill="#74818C"/>
<path d="M99.1845 71.4051L94.3667 82.9192L102.102 90.6542L106.61 81.0628L99.1845 71.4051Z" fill="#3D4144"/>
<path d="M123.163 71.1399L127.981 82.654L120.246 90.4111L115.737 80.7976L123.163 71.1399Z" fill="#3D4144"/>
<path d="M75.4492 130.788L71.427 114.832L65.0622 110.257L64.5981 119.76L75.4492 130.788Z" fill="#3D4144"/>
<path d="M147.274 130.368L150.169 116.533L155.893 112.401L156.335 121.152L147.274 130.368Z" fill="#232628"/>
<path d="M182.059 33.3047C180.976 32.2439 179.849 31.0947 178.766 30.1886C178.049 37.5996 176.567 44.9166 174.346 52.0234C187.466 67.8477 194.236 87.9828 193.343 108.519C192.45 129.055 183.957 148.526 169.513 163.152C155.069 177.777 135.706 186.513 115.183 187.663C94.6594 188.813 74.4411 182.295 58.454 169.374C51.4291 171.683 44.1987 173.311 36.8623 174.236C37.5695 174.966 38.2325 175.695 38.9397 176.446C57.9215 195.425 83.6651 206.086 110.507 206.084C123.798 206.083 136.959 203.464 149.238 198.377C161.516 193.29 172.673 185.834 182.07 176.435C191.468 167.037 198.922 155.879 204.007 143.599C209.092 131.32 211.709 118.159 211.708 104.868C211.707 91.5768 209.088 78.4162 204.001 66.1374C198.914 53.8586 191.458 42.702 182.059 33.3047Z" fill="#74818C"/>
<path d="M57.1946 41.4154C63.8871 35.7692 71.4369 31.2258 79.5598 27.9565L71.9132 11.3152C63.8549 14.6392 56.2685 19.0082 49.3491 24.31L57.1946 41.4154Z" fill="#E4ECEF"/>
<path d="M190.502 126.589C186.918 139.755 180.139 151.833 170.767 161.75L181.286 177.22L182.06 176.491C191.05 167.505 198.263 156.903 203.32 145.241L190.502 126.589Z" fill="#ABB3B7"/>
<path d="M91.98 68.6868L85.7036 70.1675L95.2508 46.2995L101.859 47.1393L91.98 68.6868Z" fill="#74818C"/>
<path d="M129.019 67.2724L134.456 67.2282L126.191 44.8851L119.561 45.7249L129.019 67.2724Z" fill="#74818C"/>
</svg>
