<svg width="98" height="100" viewBox="0 0 98 100" fill="none" xmlns="http://www.w3.org/2000/svg">
<path d="M49 99.06L97.34 63.93V57.62H0.660004V63.93L49 99.06Z" fill="#232628"/>
<path d="M48.8 84.48L89.28 55.07L78.01 7.47H18.57L8.31001 55.07L48.8 84.48Z" fill="#74818C"/>
<path d="M68.27 33.3L67.62 32L70.94 30.32C71.4748 30.005 71.9132 29.5495 72.2076 29.003C72.502 28.4566 72.6411 27.8399 72.61 27.22L72.68 21.11C72.6895 20.9649 72.6602 20.82 72.5952 20.6899C72.5302 20.5599 72.4317 20.4495 72.31 20.37C72.2488 20.3308 72.1777 20.31 72.105 20.31C72.0323 20.31 71.9612 20.3308 71.9 20.37L63.9 25.37L63.15 23.32L71 18.46C71.2779 18.2837 71.5979 18.1851 71.9268 18.1746C72.2557 18.164 72.5814 18.2419 72.87 18.4C73.2192 18.6027 73.508 18.895 73.7067 19.2465C73.9053 19.5981 74.0066 19.9963 74 20.4V27.21C74.0358 28.1015 73.8239 28.9855 73.3879 29.7639C72.9519 30.5423 72.3089 31.1848 71.53 31.62L68.27 33.3Z" fill="#232628"/>
<path d="M64.16 32.52L57.15 35.03V38.88L63.69 36.83L64.16 33.8V32.52Z" fill="#232628"/>
<path d="M57.67 41.69V35.11L64.16 34L53.52 22.16L52.36 23L61 33L56.26 33.77V43.42L64.66 47.55L66.11 54.73L61.11 60L50.05 57V54.3L53.61 50.86C54.53 49.98 54.54 46.49 52.5 46.7L48.8 49V58.14H48.86L61.8 61.77L67.8 54.19L66.14 45.57L57.67 41.69Z" fill="#232628"/>
<path d="M65.68 23.83C65.1296 22.7645 64.2939 21.873 63.2661 21.255C62.2384 20.6369 61.0592 20.3167 59.86 20.33L48.8 24.33V26.5L60.22 22.5C60.9489 22.5424 61.6541 22.7741 62.2661 23.1721C62.8781 23.5702 63.3757 24.1209 63.71 24.77L65.68 23.83Z" fill="#232628"/>
<path d="M66.15 30.06L69.59 44.39C70.0167 47.494 69.2716 50.6457 67.5 53.23L61.85 60.14L49.43 56.58L48.8 56.39V60.09L62.35 63.3L69.73 55.3C71.73 52.7 72.49 47.11 71.73 43.88L68.34 29.47L66.15 30.06Z" fill="#232628"/>
<path d="M47.42 73.34C46.7589 73.3582 46.1167 73.1179 45.63 72.67C45.25 72.2658 45.0343 71.7344 45.025 71.1797C45.0158 70.6249 45.2136 70.0866 45.58 69.67L47.37 70.92C47.3187 71.0006 47.2719 71.0841 47.23 71.17C47.379 71.2018 47.5329 71.2031 47.6824 71.1739C47.8319 71.1446 47.9739 71.0855 48.1 71L59.33 60.24L61.06 62.24L49.61 73.07C49 73.52 48.11 73.34 47.42 73.34Z" fill="#232628"/>
<path d="M48.8 71.54V68.8L59.84 59.02L60.82 60.1L48.8 71.54Z" fill="#ABB3B7"/>
<path d="M57.15 33.76V37.61L63.69 35.55L64.16 32.52L57.15 33.76Z" fill="#ABB3B7"/>
<path d="M73.34 26V19.19C73.3522 19.0032 73.327 18.8158 73.266 18.6388C73.2049 18.4618 73.1092 18.2987 72.9845 18.159C72.8598 18.0194 72.7085 17.906 72.5394 17.8255C72.3704 17.745 72.187 17.6989 72 17.69C71.7859 17.6842 71.5756 17.7473 71.4 17.87L65.46 21.61C64.7239 20.7926 63.8249 20.1381 62.8209 19.6886C61.8169 19.2392 60.73 19.0046 59.63 19L48.8 23.13V24.62H48.91L49.31 24.47L59.89 20.47C62.43 20.57 64.1 21.2 65.06 23.47L71.83 19.26V25.97C71.8585 26.4513 71.7575 26.9314 71.5377 27.3605C71.3179 27.7895 70.9872 28.1519 70.58 28.41L68.29 29.41L66.89 29.78L70.14 44.03C70.88 46.98 68.57 50.24 67.14 51.91L61.29 58.7L49.21 55.7L48.8 55.59V57.13H48.87L61.8 60.33L68.28 52.93C70.54 50.29 72.39 46.93 71.6 43.74L68.68 30.94L71.26 29.77C71.9191 29.3928 72.4618 28.8416 72.8287 28.1767C73.1955 27.5118 73.3724 26.7587 73.34 26Z" fill="#ABB3B7"/>
<path d="M57.67 40.25V33.66L64.16 32.53L54.57 22.13L53.42 23L61 31.5L56.26 32.27V41.18L64.77 45.07L66.53 52.8L61.4 58.25L49.9 55.4V52.66L53.61 48.77C54.53 47.95 53.84 46.61 52.5 46.61L48.8 47.19V56.73H48.86L61.8 60.33L67.8 52.74L66.14 44.13L57.67 40.25Z" fill="#ABB3B7"/>
<path d="M81.8 4.59H15.23L2.46001 57.59L49 90.42L95.54 57.58L81.8 4.59ZM10 55.19L19.9 10.7L76.75 10.38L87.36 55.19L49 82.7L10 55.19Z" fill="#3D4144"/>
<path d="M73.46 15.85L82.71 54.94L48.71 80.27L14.67 55.5L23.21 15.85H73.46ZM76.62 11.85H20L10.21 57.2L48.78 85.2L87.21 56.57L76.62 11.85Z" fill="#232628"/>
<path d="M48.8 12.12L74.89 11.9L84.91 54.28L48.8 80.49V83.22L87.36 55.19L76.62 9.84001L48.8 9.76001V12.12Z" fill="#ABB3B7"/>
<path d="M83.07 0.940002H13.92L0.660004 57.62L49 92.74L97.34 57.62L83.07 0.940002ZM8.31 55.07L18.57 7.48H77.42L89.28 55.07L48.8 84.48L8.31 55.07Z" fill="#ABB3B7"/>
<path d="M49.61 12.3H19.52L9.52 58.75L48.8 87.3V74.44C47.8717 74.4211 46.9769 74.0899 46.26 73.5L38.6 67.24C38.1793 66.8921 37.8238 66.4722 37.55 66L36.47 66.72L29.09 57.19C26.28 53.32 25.26 50.42 26 46.88L28.61 34.28L28.12 31.1C25.98 31.83 24.12 30.53 24.12 28.69L24.19 21C24.19 19.7 25.19 18.88 26.09 19.49L32 23.59C32.7 22.7192 33.5839 22.014 34.5883 21.5248C35.5927 21.0355 36.6929 20.7744 37.81 20.76H40L43 26.51H48.8V24.28L46.74 17.36H47.45L49.61 12.3Z" fill="#232628"/>
<path d="M48.73 48.66L44.19 46.71C42.73 46.71 42.52 49.59 43.57 50.51L47.74 54.2V56.81L35.87 62.91L31.87 51.77L42 42L41.87 33.52L34.17 32.2L37.6 18.2L35.09 18.49L30.92 32.35V33.88L39.83 35.36V40.3L29.21 48.67L29.13 51.57L34.87 67L48.8 60L48.73 48.66Z" fill="#232628"/>
<path d="M40.87 34.09V39.23L33.2 37.4L32.22 32.98L40.87 34.09Z" fill="#232628"/>
<path d="M40.87 32.55V37.7L33.2 35.86L32.22 31.44L40.87 32.55Z" fill="#ABB3B7"/>
<path d="M48.8 47.19L44.73 46.43C44.4184 46.3947 44.1036 46.46 43.8317 46.6163C43.5598 46.7727 43.3451 47.0119 43.2188 47.299C43.0926 47.5861 43.0615 47.9061 43.1301 48.2121C43.1987 48.5182 43.3633 48.7942 43.6 49L47.77 52.69V55.29L36 61.32L31.71 49.32L42 39.74V32L33.61 30.61L37.48 15L35.37 14.46L30.88 32.32L39.78 33.8V38.8L29.13 48.66L34.75 64.4L48.86 57.15L49.18 48.15L48.8 47.19Z" fill="#ABB3B7"/>
<path d="M25.33 16.79L31.39 20.93C32.1295 20.0566 33.0478 19.352 34.0828 18.8638C35.1179 18.3756 36.2457 18.1151 37.39 18.1H39.64L43.77 24.66H48.77L49.34 23.83L48.77 23.13L46.71 17.36L51.09 6.18L17 5.88L4.9 57.58L48.8 89.47V83.22L52 79.74L48.8 68.8L42.25 68.72L39.46 63.72C39.01 63.36 37.09 63.72 37.09 63.72L35.71 63.92L28.43 54.48C25.52 50.61 24.43 47.71 25.23 44.18L27.94 31.58L25.47 30.22C24.7719 29.7674 24.205 29.1393 23.8259 28.3987C23.4468 27.6581 23.2689 26.831 23.31 26L23.36 18.31C23.37 17 24.44 16.19 25.33 16.79Z" fill="#ABB3B7"/>
<path d="M20.66 9.67L76.62 9.84L77.42 7.47L19.61 7.49L8.31001 55.05L48.8 84.48L49.18 83.77L48.8 83.22L9.62 54.84L20.66 9.67Z" fill="#232628"/>
<path d="M13.92 0.940002L19.61 7.49L77.42 7.47L83.07 0.940002H13.92Z" fill="#E4ECEF"/>
<path d="M32.7 31.14L36.04 18.28L36.7 18.14L33.58 30.56L32.7 31.14Z" fill="#3D4144"/>
<path d="M41.97 39.74L31.68 49.28L31.11 49.11L41.32 39.44L41.97 39.74Z" fill="#74818C"/>
<path d="M29.15 48.66L29.94 48.82L35.1 62.54L33.46 60.76L29.15 48.66Z" fill="#74818C"/>
<path d="M48.88 57.15L35.71 63.93L35.2 63.29L48.84 56.26L59.92 58.89L59.08 59.7L48.88 57.15Z" fill="#74818C"/>
<path d="M33.1 32.69L33.7 35.39L40.54 37.05L39.76 37.45L33.21 35.86L32.46 32.59L33.1 32.69Z" fill="#3D4144"/>
<path d="M40.71 39.05L40.54 37.05L39.76 37.45L39.79 38.79L29.15 48.66L29.94 48.82L40.71 39.05Z" fill="#E4ECEF"/>
<path d="M44 48.64C44 48.64 43.33 47.09 44.39 46.82C45.4993 46.7693 46.6067 46.9533 47.64 47.36C46.715 47.335 45.7894 47.3751 44.87 47.48C44 47.63 44 48.64 44 48.64Z" fill="#E4ECEF"/>
<path d="M49 92.74L0.660004 57.62L8.31 55.07L48.8 84.48L89.28 55.07L97.34 57.62L49 92.74Z" fill="#74818C"/>
<path d="M49.43 70.94L48.8 71V70.67L61.08 59.16L61.82 59.34C61.82 59.34 69.09 51.75 70.27 49.09C70.907 47.811 71.4129 46.4709 71.78 45.09C71.78 45.09 71.78 46.09 71.7 46.74C71.4044 47.9353 70.9575 49.0879 70.37 50.17C69.23 52.51 61.85 60.54 61.85 60.54L60.85 60.12L49.43 70.94Z" fill="#74818C"/>
<path d="M31.88 31.67L30.89 32.32L39.78 33.8L40.37 33.1L31.88 31.67Z" fill="#3D4144"/>
<path d="M51.23 79.15L51.09 78.83L84.95 54.22L86.07 54.69L51.23 79.15Z" fill="#E4ECEF"/>
<path d="M74.89 11.9L84.87 54.22L86.07 54.69L75.78 11.32L48.56 11.42L46.23 17.39L46.74 17.36L48.8 12.12L74.89 11.9Z" fill="#74818C"/>
<path d="M66.48 52.8L67.02 52.19L65.3 44.67L56.91 40.72L56.21 41.18L64.72 45.06L66.48 52.8Z" fill="#74818C"/>
<path d="M56.21 32.27L60.95 31.5L62.57 32.2L57.45 32.91L56.21 32.27Z" fill="#E4ECEF"/>
<path d="M63.11 33.22L62.84 34.99L57.63 36.57L57.65 36.9L57.67 37.45L63.69 35.55L64.16 32.52L63.11 33.22Z" fill="#3D4144"/>
<path d="M75.65 10.27H22.27L20.66 9.67999L76.62 9.76999L75.65 10.27Z" fill="#E4ECEF"/>
<path d="M10.79 54.49L9.62 54.85L48.8 83.22L87.36 55.19L86.61 55.01L48.8 82.03L10.79 54.49Z" fill="#3D4144"/>
<path d="M24.86 48.52C24.4873 47.0872 24.4873 45.5828 24.86 44.15L27.56 31.38L28.12 31.06L25.56 44.32C25.1476 45.8924 25.1649 47.5466 25.61 49.11L24.86 48.52Z" fill="#74818C"/>
<path d="M27.56 31.38L25.27 30.38C24.6536 30.0334 24.1271 29.5471 23.7329 28.9601C23.3386 28.373 23.0876 27.7017 23 27L23.61 25.74C23.5617 26.5238 23.7212 27.3064 24.0724 28.0088C24.4236 28.7111 24.954 29.3083 25.61 29.74L28.11 31.04L27.56 31.38Z" fill="#E4ECEF"/>
<path d="M42 69.07L39.2 64C38.0492 63.9579 36.8974 64.0553 35.77 64.29H35.56L28.12 54.88C28.03 54.77 25 50.69 24.85 48.45L25.61 49.07C26.2628 51.0418 27.307 52.8615 28.68 54.42L35.86 63.5C37.4 63.24 39.23 63.04 39.69 63.4L39.78 63.51L42.47 68.33L48.8 68.76V69.27L42 69.07Z" fill="#E4ECEF"/>
<path d="M23 27V21.21V18.92C23 18.53 23 18.19 23 17.75C23.0325 17.2967 23.1957 16.8625 23.47 16.5C23.6869 16.1875 24.0164 15.9713 24.3893 15.8967C24.7623 15.8221 25.1496 15.895 25.47 16.1L25.95 16.43L27.83 17.74L31.58 20.34L31.1 20.4C31.6417 19.8203 32.2858 19.3456 33 19C33.6437 18.6791 34.3126 18.4115 35 18.2C36.4196 17.7398 37.8982 17.4872 39.39 17.45H39.59L39.7 17.62L44.07 24.46L43.77 24.3H48.77H48.64L59.74 20H59.8C60.435 20.0183 61.0616 20.1504 61.65 20.39C62.4744 20.7566 63.2613 21.202 64 21.72C64.4506 22.2626 64.818 22.8693 65.09 23.52C64.7654 22.9371 64.3615 22.402 63.89 21.93C63.1527 21.4945 62.3759 21.1295 61.57 20.84C61.0344 20.6851 60.4767 20.6209 59.92 20.65H60.01L48.93 25H48.87H43.59L43.48 24.83L39.11 18L39.41 18.17C37.9934 18.2085 36.5895 18.4475 35.24 18.88C34.551 19.083 33.8817 19.3473 33.24 19.67C32.6269 19.9659 32.0715 20.3689 31.6 20.86L31.38 21.11L31.12 20.93L27.37 18.32L25.53 17L25.07 16.69C24.9633 16.6176 24.8388 16.5761 24.71 16.57C24.5648 16.575 24.4232 16.6172 24.2989 16.6924C24.1746 16.7677 24.0717 16.8736 24 17C23.8109 17.245 23.6994 17.5411 23.68 17.85C23.68 18.18 23.68 18.6 23.68 18.97V21.25V25.82L23 27Z" fill="#3D4144"/>
<path d="M54.2 22.91L62.57 32.2L60.95 31.5L53.56 23.17L54.2 22.91Z" fill="#3D4144"/>
<path d="M65.87 22.06L71.51 18.46C71.51 18.46 72.11 18.35 72.51 18.32C72.91 18.29 73.19 18.5 72.97 18.17C72.8089 17.9315 72.5622 17.7642 72.281 17.7028C71.9999 17.6413 71.7059 17.6905 71.46 17.84L65.46 21.59L65.87 22.06Z" fill="#E4ECEF"/>
<path d="M66.94 29.84C66.94 29.84 70.5 28.58 70.77 28.34C71.1058 28.1138 71.3808 27.8085 71.5709 27.451C71.761 27.0936 71.8602 26.6948 71.86 26.29C72.0425 26.7383 72.0614 27.2365 71.9133 27.6973C71.7652 28.1581 71.4596 28.552 71.05 28.81C69.7553 29.4351 68.4187 29.9697 67.05 30.41L66.94 29.84Z" fill="#E4ECEF"/>
<path d="M32.7 31.14L33.58 30.56L41.96 31.95L41.16 32.42L32.7 31.14Z" fill="#E4ECEF"/>
<path d="M65.06 23.52L66.14 22.45C66.14 22.45 71.74 18.71 71.78 18.84C71.793 18.9964 71.793 19.1536 71.78 19.31L65.06 23.52Z" fill="#74818C"/>
<path d="M68.56 30.51L68.68 30.94L71.42 29.68C71.42 29.68 73.1 29.04 73.34 26.29C73.1589 26.9748 72.8343 27.6134 72.3878 28.1633C71.9413 28.7133 71.3831 29.1621 70.75 29.48C70.07 29.83 68.56 30.51 68.56 30.51Z" fill="#74818C"/>
<path d="M35.97 61.32L35.78 62.28L48.15 55.77L47.77 55.26L35.97 61.32Z" fill="#E4ECEF"/>
<path d="M49.42 55.79L49.9 55.4L61.35 58.25L67.02 52.19L67.1 52.8L61.62 58.73L49.42 55.79Z" fill="#E4ECEF"/>
<path d="M48.8 69.31V68.8L59.92 58.89L60.29 58.98L48.8 69.31Z" fill="#E4ECEF"/>
<path d="M48.46 23.68L59.7 19.36C60.2952 19.3295 60.892 19.363 61.48 19.46C62.0263 19.5499 62.5671 19.6701 63.1 19.82C62.0491 19.213 60.8406 18.9344 59.63 19.02L48.8 23.13L47.45 17.39H46.74H46.23L48.46 23.68Z" fill="#E4ECEF"/>
<path d="M36.97 62.37L35.59 63.08L37.22 64.96H34.69L32.52 61.03L35.1 62.54L35.78 62.28L36.97 62.37Z" fill="#ABB3B7"/>
<path d="M33.92 20.24L35.02 15.87L36.5 16.32L35.44 20.57L33.92 20.24Z" fill="#ABB3B7"/>
<path d="M15.92 29.04L26.86 34.43L25.43 41.23L14.19 36.12L15.92 29.04Z" fill="#E4ECEF"/>
<path d="M54.47 23.22L53.69 22.32L54.38 21.93L55.36 22.98L54.47 23.22Z" fill="#ABB3B7"/>
<path d="M48.8 71.01L51.09 78.83L51.65 78.42L49.43 70.94L48.8 71.01Z" fill="#E4ECEF"/>
<path d="M49 92.74L48.8 84.48L89.28 55.07L97.34 57.62L49 92.74Z" fill="#3D4144"/>
</svg>
