<svg width="86" height="89" viewBox="0 0 86 89" fill="none" xmlns="http://www.w3.org/2000/svg">
<path d="M74.6155 0H22.3847C16.2065 0 11.1924 4.60062 11.1924 10.2692V27.3846H18.6539V10.2692C18.6539 8.37969 20.329 6.84615 22.3847 6.84615H74.6155C76.6711 6.84615 78.3462 8.37969 78.3462 10.2692V78.7308C78.3462 80.6203 76.6711 82.1538 74.6155 82.1538H22.3847C20.329 82.1538 18.6539 80.6203 18.6539 78.7308V61.6154H11.1924V78.7308C11.1924 84.3994 16.2065 89 22.3847 89H74.6155C80.7936 89 85.8078 84.3994 85.8078 78.7308V10.2692C85.8078 4.60062 80.7936 0 74.6155 0Z" fill="#926021"/>
<path d="M29.8462 66.7501C29.8462 66.7501 26.1154 67.712 26.1154 63.327C26.1154 62.3344 26.1154 59.0242 26.1154 54.7694H3.73077C1.67138 54.7694 0 53.2324 0 51.3463V37.654C0 35.7679 1.67138 34.2309 3.73077 34.2309H26.1154C26.1154 30.1369 26.1154 26.8542 26.1154 25.5671C26.1154 20.9665 29.8462 22.2501 29.8462 22.2501L57.8269 44.5001L29.8462 66.7501Z" fill="#926021"/>
</svg>
