<svg width="85" height="89" viewBox="0 0 85 89" fill="none" xmlns="http://www.w3.org/2000/svg">
<path d="M60.0208 38.2422C60.0208 36.3221 58.3943 34.7656 56.3879 34.7656H18.97C16.9636 34.7656 15.3372 36.3221 15.3372 38.2422C15.3372 40.1623 16.9636 41.7188 18.97 41.7188H56.3879C58.3943 41.7188 60.0208 40.1623 60.0208 38.2422Z" fill="#926021"/>
<path d="M18.97 48.6719C16.9636 48.6719 15.3372 50.2283 15.3372 52.1484C15.3372 54.0685 16.9636 55.625 18.97 55.625H41.6952C43.7016 55.625 45.328 54.0685 45.328 52.1484C45.328 50.2283 43.7016 48.6719 41.6952 48.6719H18.97Z" fill="#926021"/>
<path d="M27.5072 82.0469H15.3574C11.3512 82.0469 8.0918 78.9277 8.0918 75.0938V13.9062C8.0918 10.0723 11.3512 6.95312 15.3574 6.95312H60.0209C64.0271 6.95312 67.2865 10.0723 67.2865 13.9062V35.2871C67.2865 37.2072 68.9129 38.7637 70.9193 38.7637C72.9257 38.7637 74.5521 37.2072 74.5521 35.2871V13.9062C74.5521 6.23834 68.0334 0 60.0209 0H15.3574C7.34489 0 0.826172 6.23834 0.826172 13.9062V75.0938C0.826172 82.7617 7.34489 89 15.3574 89H27.5072C29.5136 89 31.14 87.4435 31.14 85.5234C31.14 83.6033 29.5136 82.0469 27.5072 82.0469Z" fill="#926021"/>
<path d="M80.9867 50.3357C76.7374 46.2692 69.8235 46.269 65.5769 50.3329L45.6322 69.3775C45.2086 69.782 44.8962 70.2802 44.7222 70.8281L40.3786 84.5127C39.9935 85.7261 40.329 87.0435 41.2543 87.9511C41.9474 88.6309 42.8891 88.9999 43.8549 88.9999C44.178 88.9999 44.5042 88.9586 44.8244 88.8736L59.4874 84.9866C60.0908 84.8267 60.6408 84.5202 61.084 84.0968L80.9869 65.0857C85.2362 61.0192 85.2362 54.4026 80.9867 50.3357ZM56.6273 78.5299L49.2505 80.4855L51.4093 73.6838L64.8669 60.8335L70.0055 65.7511L56.6273 78.5299ZM75.8519 60.1671L75.1481 60.8393L70.0104 55.9225L70.7119 55.2526C72.1283 53.8971 74.433 53.8971 75.8494 55.2526C77.2658 56.6081 77.2658 58.8137 75.8519 60.1671Z" fill="#926021"/>
<path d="M56.3879 20.8594H18.97C16.9636 20.8594 15.3372 22.4158 15.3372 24.3359C15.3372 26.256 16.9636 27.8125 18.97 27.8125H56.3879C58.3943 27.8125 60.0208 26.256 60.0208 24.3359C60.0208 22.4158 58.3943 20.8594 56.3879 20.8594Z" fill="#926021"/>
</svg>
