<svg width="160" height="175" viewBox="0 0 160 175" fill="none" xmlns="http://www.w3.org/2000/svg">
<path d="M36.1556 60.7784C42.8377 60.7784 48.2546 53.4688 48.2546 44.4518C48.2546 35.4349 42.8377 28.1252 36.1556 28.1252C29.4735 28.1252 24.0566 35.4349 24.0566 44.4518C24.0566 53.4688 29.4735 60.7784 36.1556 60.7784Z" fill="#CF540B"/>
<path d="M46.9902 60.5991C54.1709 60.5991 59.9921 52.8075 59.9921 43.196C59.9921 33.5846 54.1709 25.793 46.9902 25.793C39.8094 25.793 33.9883 33.5846 33.9883 43.196C33.9883 52.8075 39.8094 60.5991 46.9902 60.5991Z" fill="#CF540B"/>
<path d="M33.2656 28.6636L45.5452 25.9724L48.4345 60.5991H35.252" fill="#CF540B"/>
<path d="M47.5323 50.3726C48.074 48.5785 48.4352 46.6049 48.4352 44.452C48.4352 41.0431 47.7128 37.9931 46.2682 35.3019L45.5459 25.9724L35.0721 28.3048C34.5304 28.3048 33.8081 28.4842 33.2663 28.6636C27.8489 30.4577 24.0566 36.7372 24.0566 44.452C24.0566 53.0638 29.1129 60.0609 35.2527 60.5991H35.975H36.1556C36.3362 60.5991 36.3362 60.5991 36.5168 60.5991L48.4352 60.4197L47.5323 50.3726Z" fill="#7F4E2D"/>
<path d="M46.9902 60.5991C54.1709 60.5991 59.9921 52.8075 59.9921 43.196C59.9921 33.5846 54.1709 25.793 46.9902 25.793C39.8094 25.793 33.9883 33.5846 33.9883 43.196C33.9883 52.8075 39.8094 60.5991 46.9902 60.5991Z" fill="#C47037"/>
<path d="M108.568 160.891C148.116 105.99 137.822 43.3753 137.822 43.3753C137.822 43.3753 32.0015 10.5427 44.8228 51.9871C64.5062 116.038 0.941406 139.361 0.941406 139.361L57.1023 173.809" fill="#FFD45A"/>
<path d="M46.9902 28.1252L120.126 8.74854L118.32 53.7812L46.9902 56.8313" fill="#FFDB61"/>
<path d="M121.932 56.1139C132.603 56.1139 141.254 44.5469 141.254 30.2784C141.254 16.0098 132.603 4.44287 121.932 4.44287C111.26 4.44287 102.609 16.0098 102.609 30.2784C102.609 44.5469 111.26 56.1139 121.932 56.1139Z" fill="#CF540B"/>
<path d="M139.087 56.1137C150.556 56.1137 159.854 43.7435 159.854 28.4841C159.854 13.2247 150.556 0.854492 139.087 0.854492C127.618 0.854492 118.32 13.2247 118.32 28.4841C118.32 43.7435 127.618 56.1137 139.087 56.1137Z" fill="#CF540B"/>
<path d="M117.416 5.33985L136.738 1.03394L141.253 55.9344L120.486 56.1138" fill="#CF540B"/>
<path d="M139.99 39.7872C140.893 36.9166 141.254 33.6871 141.254 30.2783C141.254 24.8959 139.99 19.8723 138.003 15.9252L136.739 1.03394L120.306 4.6222C119.403 4.80161 118.32 4.98103 117.417 5.16044C108.93 7.85164 102.609 18.0782 102.609 30.2783C102.609 43.9137 110.555 55.0373 120.487 55.9344H121.57C121.751 55.9344 121.751 55.9344 121.932 55.9344C122.112 55.9344 122.293 55.9344 122.293 55.9344L141.073 55.7549L139.99 39.7872Z" fill="#7F4E2D"/>
<path d="M139.087 56.1137C150.556 56.1137 159.854 43.7435 159.854 28.4841C159.854 13.2247 150.556 0.854492 139.087 0.854492C127.618 0.854492 118.32 13.2247 118.32 28.4841C118.32 43.7435 127.618 56.1137 139.087 56.1137Z" fill="#C47037"/>
<path d="M139.628 48.2193C148.005 48.2193 154.797 39.2228 154.797 28.125C154.797 17.0273 148.005 8.03076 139.628 8.03076C131.25 8.03076 124.459 17.0273 124.459 28.125C124.459 39.2228 131.25 48.2193 139.628 48.2193Z" fill="#A35F31"/>
<path d="M139.629 8.03076C138.907 8.03076 138.365 8.03076 137.643 8.21017C145.046 9.46607 150.825 17.8985 150.825 28.125C150.825 38.3516 145.046 46.784 137.643 48.0399C138.365 48.2193 138.907 48.2193 139.629 48.2193C147.936 48.2193 154.798 39.2486 154.798 28.125C154.798 17.0014 147.936 8.03076 139.629 8.03076Z" fill="#7F4E2D"/>
<path d="M46.9899 56.8314C52.176 56.8314 56.3801 50.4053 56.3801 42.4783C56.3801 34.5513 52.176 28.1252 46.9899 28.1252C41.8038 28.1252 37.5996 34.5513 37.5996 42.4783C37.5996 50.4053 41.8038 56.8314 46.9899 56.8314Z" fill="#FFDB61"/>
<path d="M108.567 160.891C108.567 160.891 92.6762 179.55 57.1016 173.809C57.1016 173.809 73.1733 158.379 76.2432 149.767C76.4238 149.947 90.5092 157.841 108.567 160.891Z" fill="#F9BF4C"/>
<path d="M126.265 86.255L54.2129 84.2815V76.3873L126.265 74.0549V86.255Z" fill="#C47037"/>
<path d="M121.931 111.911L51.5039 102.761L52.768 94.8672L123.737 99.8908L121.931 111.911Z" fill="#C47037"/>
<path d="M112.361 139.361L43.0176 119.088L45.9069 111.552L116.876 127.879L112.361 139.361Z" fill="#C47037"/>
</svg>
