<svg width="180" height="138" viewBox="0 0 180 138" fill="none" xmlns="http://www.w3.org/2000/svg">
<path d="M173.767 111.935L45.5536 137.458C41.3334 138.261 37.3142 135.649 36.3094 131.429L20.2325 51.0442C19.4287 46.824 22.0412 42.8047 26.2614 41.7999L154.475 16.2779C158.695 15.474 162.714 18.0865 163.719 22.3067L179.796 102.691C180.801 106.911 177.987 111.132 173.767 111.935Z" fill="#593B02"/>
<path d="M33.8979 128.012C29.2758 128.012 25.2565 124.998 24.0508 120.577L3.75368 48.6327C2.94984 46.0202 3.35176 43.2067 4.75849 40.9961C6.16522 38.5846 8.17483 36.9769 10.7873 36.1731L125.737 3.61732C126.742 3.41635 127.546 3.21539 128.551 3.21539C133.173 3.21539 137.192 6.22981 138.398 10.651L158.695 82.5951C160.303 88.0211 157.087 93.648 151.661 95.0547L36.7113 127.61C35.7065 127.811 34.7017 128.012 33.8979 128.012Z" fill="#F28705"/>
<path d="M128.35 6.02884C131.364 6.02884 134.379 8.03845 135.182 11.2538L155.48 83.198C156.484 87.0163 154.274 90.8345 150.656 92.0403L35.7065 124.596C35.1036 124.797 34.5008 124.797 33.6969 124.797C30.6825 124.797 27.6681 122.787 26.8642 119.572L6.56713 47.6278C5.56232 43.8096 7.7729 39.9913 11.3902 38.7855L126.34 6.2298C127.144 6.2298 127.747 6.02884 128.35 6.02884ZM128.35 0C127.144 0 125.938 0.200961 124.732 0.401923L9.78251 32.9577C6.36617 33.9625 3.55271 36.173 1.74406 39.1875C-0.0645968 42.2019 -0.466517 45.8192 0.53829 49.2355L20.8354 121.18C22.4431 126.807 27.6681 130.826 33.496 130.826C34.7017 130.826 35.9075 130.625 37.1133 130.424L152.063 97.8682C159.097 95.8586 163.116 88.624 161.106 81.5903L141.211 9.64615C139.604 4.01923 134.379 0 128.35 0Z" fill="#7F4E2D"/>
<path d="M27.0652 119.773C28.07 123.591 32.0892 125.802 35.9075 124.596L150.656 92.2412C154.475 91.2364 156.685 87.2172 155.48 83.3989L151.259 68.3268L22.644 104.701L27.0652 119.773Z" fill="#9E7128"/>
<path d="M34.5008 62.7C39.5248 66.1163 42.5392 69.9346 44.1469 72.5471C47.1613 77.5711 48.1661 81.9923 48.97 86.4134C49.9748 91.6384 49.9748 96.0596 49.9748 99.4759L54.195 99.074C54.7979 92.8442 54.3959 87.6192 53.793 83.8009C52.9892 77.973 52.3863 73.9538 50.5777 71.1404C50.3767 70.7384 49.7738 69.7336 49.5728 68.1259C49.1709 65.7144 49.9748 63.9058 50.3767 63.1019L34.5008 62.7Z" fill="#7F4E2D"/>
<path d="M42.7402 67.724C38.1181 68.5278 37.1133 70.9394 31.2854 71.7432C30.4815 71.9442 29.0748 72.1452 23.6489 71.7432C13.3998 71.1403 8.17483 70.9394 7.77291 69.3317C7.57195 68.3269 8.77772 65.7144 23.4479 59.0827C23.2469 56.8721 23.2469 52.8529 25.6585 49.2356C28.6729 44.6134 33.496 43.6086 38.9219 42.6038C42.3383 42.0009 47.7642 41.1971 54.5969 42.6038C59.8219 42.6038 64.0421 42.4029 66.6546 42.4029C73.0853 42.2019 75.8988 42.0009 80.119 42.6038C83.7363 43.2067 89.3632 44.0106 89.7651 46.4221C90.1671 48.0298 87.9565 50.6423 75.8988 55.8673C75.2959 58.2788 74.0902 62.499 70.4729 65.7144C65.4488 70.3365 58.8171 69.9346 55.1998 69.9346C48.1661 69.3317 47.7642 66.7192 42.7402 67.724Z" fill="#7F4E2D"/>
<path d="M56.0036 59.2836C58.4152 59.6855 60.6257 59.2836 62.6353 58.0778C63.6402 57.4749 64.2431 56.6711 65.0469 56.0682C65.8508 55.4653 66.6546 54.6615 67.6594 53.8576H67.8604C68.0613 55.2643 67.4584 56.4701 66.6546 57.6759C65.8507 58.8816 64.645 59.4845 63.2382 59.8864C60.8267 60.8913 58.0132 60.6903 55.8027 59.4845L56.0036 59.2836Z" fill="#F9BF4B"/>
<path d="M31.6873 56.6711C34.2998 58.2788 37.3142 58.8816 39.9267 58.0778C41.3335 57.6759 42.3382 56.872 43.544 56.2691C44.7498 55.6663 45.7546 54.6615 47.1613 53.8576L47.3623 54.0586C47.1613 55.6663 46.1565 57.2739 44.9508 58.2788C43.745 59.4845 41.9363 59.8864 40.3286 60.0874C37.1133 60.2884 33.6969 59.0826 31.6873 56.6711Z" fill="#F9BF4B"/>
<path d="M152.448 67.5223L22.6867 104.2L23.7253 107.874L153.487 71.1966L152.448 67.5223Z" fill="#7F4E2D"/>
<path d="M124.531 75.3605C126.139 71.7432 126.541 67.523 125.335 63.3028C122.723 53.6567 112.675 48.2307 103.029 50.8432C93.3824 53.4557 87.9565 63.5038 90.569 73.1499C91.7747 77.3701 94.1863 80.5855 97.6026 82.997L124.531 75.3605Z" fill="#F8D46F"/>
<path d="M155.063 77.2005L25.3018 113.878L26.3404 117.553L156.102 80.8748L155.063 77.2005Z" fill="#7F4E2D"/>
</svg>
